<?xml version="1.0" encoding="utf-8"?>
<!-- Generator: Adobe Illustrator 26.0.0, SVG Export Plug-In . SVG Version: 6.00 Build 0)  -->
<svg version="1.1" id="Camada_1" xmlns="http://www.w3.org/2000/svg" xmlns:xlink="http://www.w3.org/1999/xlink" x="0px" y="0px"
	 viewBox="0 0 300 400" style="enable-background:new 0 0 300 400;" xml:space="preserve">
<style type="text/css">
	.st0{fill:#F8C68C;}
	.st1{fill:#B38F4A;}
	.st2{fill:#EA5163;}
	.st3{fill:none;stroke:#FFFFFF;stroke-width:2.5065;stroke-miterlimit:10;}
	.st4{fill:none;stroke:#000000;stroke-width:0.8355;stroke-miterlimit:10;}
	.st5{fill:none;stroke:#7A6F65;stroke-width:1.671;stroke-miterlimit:10;}
	.st6{fill:none;stroke:#000000;stroke-width:2.5065;stroke-miterlimit:10;}
	.st7{fill:#ED6D62;}
</style>
<g>
	<path class="st0" d="M127.72,309.39l4.44,33.23c0,1.88,8.11,3.4,18.12,3.4c10.01,0,18.12-1.52,18.12-3.4l4.44-33.23"/>
	<path class="st1" d="M172.84,309.39c0,1.88-10.1,3.4-22.56,3.4c-12.46,0-22.56-1.52-22.56-3.4c0-1.88,10.1-3.4,22.56-3.4
		C162.74,305.99,172.84,307.51,172.84,309.39z"/>
	<g>
		<path class="st2" d="M246.18,116.23c-8.15-19.58-22.27-36.44-39.56-47.33c-18.58-11.7-40.82-16.2-62.2-14.17
			c-10.49,1-21.01,3.39-31.04,7.19c-24.34,8.25-44.55,27.13-57.66,50.97c-15.97,29.03-13.32,65.49,2.59,93.88
			c4.15,7.4,9.08,14.19,14.59,20.39c12.2,17.43,27.22,33.02,42.86,46.48c0.08,0.07,0.17,0.13,0.25,0.2
			c5.29,10.04,19.01,8.42,28.13,8.8c5.86,0.25,11.73,0.5,17.59,0.74c5.69,0.23,11.29,0.19,16.07-3.6c0.44-0.35,0.85-0.72,1.25-1.1
			c0.77-0.32,1.45-0.82,1.99-1.52c12.78-17.02,30.22-29.98,43.66-46.2c12.68-11.98,22.98-25.56,27.31-43.9
			C257.54,163.55,255.38,138.36,246.18,116.23z"/>
		<path class="st3" d="M149.78,53.98c0,0-10.53,13.53-12.89,67.03c-2.36,53.5-2.58,89.37,2.36,123.32
			c4.94,33.94,4.88,38.32,4.88,38.32"/>
		<path class="st3" d="M152.57,55.7c0,0,16.97,41.25,14.61,102.05c-2.36,60.8-9.02,93.24-9.88,104.84
			c-0.86,11.6-1.29,19.77-1.29,19.77"/>
		<path class="st3" d="M144.42,54.74c0,0-22.14,6.98-33.31,57.89c-11.17,50.92,4.51,104.84,4.51,104.84s18.05,48.98,18.48,64.67"/>
		<path class="st3" d="M136.67,56.13c0,0-17.83,2.79-34.8,22.34s-23.2,50.27-23.2,50.27s-2.51,10.59-1.46,28.68
			c1.28,22.22,7.5,43.87,17.89,63.55c4.87,9.23,11.23,20.52,18.17,30.87c15.25,22.77,14.18,29.22,14.18,29.22"/>
		<path class="st3" d="M155.36,54.62c0,0,43.61,22.34,42.54,94.53c0,0-2.36,34.8-15.04,65.1c-12.68,30.29-17.19,67.89-17.19,67.89"
			/>
		<path class="st4" d="M171.55,282.09"/>
		<path class="st3" d="M164.82,55.27c0,0,40.21,11.53,54.14,49.84c0.57,1.57,1.11,3.11,1.63,4.62c11.34,33.03,7.99,69.4-9.78,99.46
			c-0.15,0.25-0.3,0.5-0.45,0.76c-6.99,11.69-11.76,19.1-14.85,23.69c-7.23,10.72-13.51,22.06-18.6,33.94
			c-2.05,4.79-3.95,9.76-5.36,14.5"/>
		<path class="st5" d="M119.84,278.85c0,0,5.59,12.6,8.31,29.79"/>
		<path class="st5" d="M181.03,277.16c0,0-7.34,20.73-8.77,30.9"/>
		<path class="st5" d="M139.61,282.86c0,0,2.94,14.54,2.65,29.58"/>
		<path class="st5" d="M161.09,284.29c0,0-2.72,14.61-2.43,28.07"/>
		<path class="st6" d="M127.72,309.39"/>
		<path class="st7" d="M184.37,274.63c-17.87,1.55-35.57,1.65-53.29,0.4c-5.02-0.36-10.05-0.83-15.08-1.41
			c-0.43-0.05-0.71,0.13-0.83,0.36c-0.33,0.08-0.59,0.27-0.49,0.59c0.52,1.69,1.13,3.36,1.88,5.02c0.38,0.85,0.79,1.69,1.24,2.53
			c0.2,0.37,0.4,0.74,0.61,1.11c0.22,0.38,0.4,0.93,0.76,1.25c0.31,0.28,0.76,0.31,1.2,0.4c0.63,0.12,1.26,0.24,1.89,0.36
			c1.26,0.23,2.52,0.45,3.78,0.65c2.53,0.4,5.07,0.74,7.61,1.02c10.19,1.12,20.49,1.25,30.71,0.39c5.82-0.49,11.62-1.3,17.35-2.43
			c0.4-0.08,0.65-0.29,0.74-0.58c1.01-3.01,1.96-6.02,2.84-9.03C185.43,274.8,184.84,274.59,184.37,274.63z"/>
	</g>
</g>
</svg>
