<?xml version="1.0" encoding="utf-8"?>
<!-- Generator: Adobe Illustrator 26.0.0, SVG Export Plug-In . SVG Version: 6.00 Build 0)  -->
<svg version="1.1" id="Camada_1" xmlns="http://www.w3.org/2000/svg" xmlns:xlink="http://www.w3.org/1999/xlink" x="0px" y="0px"
	 viewBox="0 0 500 500" style="enable-background:new 0 0 500 500;" xml:space="preserve">
<style type="text/css">
	.st0{fill:#F8C68C;}
	.st1{fill:#B38F4A;}
	.st2{fill:#1A9A54;}
	.st3{fill:none;stroke:#008A47;stroke-width:1.671;stroke-linecap:round;stroke-linejoin:round;stroke-miterlimit:10;}
	.st4{fill:none;stroke:#000000;stroke-width:0.8355;stroke-linecap:round;stroke-linejoin:round;stroke-miterlimit:10;}
	.st5{fill:none;stroke:#7A6F65;stroke-width:1.671;stroke-miterlimit:10;}
	.st6{fill:none;stroke:#000000;stroke-width:2.5065;stroke-linecap:round;stroke-linejoin:round;stroke-miterlimit:10;}
	.st7{fill:#008A47;}
	.st8{fill:#79BC68;}
</style>
<g>
	<g>
		<path class="st0" d="M217.52,421.52l6.63,52.1c0,2.95,12.11,5.33,27.05,5.33s27.05-2.39,27.05-5.33l6.63-52.1"/>
		<ellipse class="st1" cx="251.2" cy="421.52" rx="33.68" ry="5.33"/>
		<path class="st2" d="M394.39,118.66c-12.16-30.69-33.25-57.14-59.06-74.21c-27.74-18.35-60.95-25.4-92.88-22.21
			c-15.67,1.56-31.37,5.31-46.34,11.27c-36.34,12.94-66.51,42.54-86.09,79.92c-23.85,45.53-19.89,102.69,3.86,147.19
			c6.19,11.61,13.55,22.25,21.78,31.97c18.21,27.33,40.64,51.77,64,72.87c0.12,0.11,0.25,0.21,0.37,0.31
			c7.9,15.74,28.38,13.2,42,13.8c8.76,0.39,17.51,0.79,26.27,1.16c8.5,0.37,16.86,0.29,23.99-5.65c0.65-0.54,1.27-1.12,1.86-1.72
			c1.14-0.5,2.17-1.28,2.97-2.39c19.08-26.69,45.12-47.01,65.19-72.43c18.93-18.78,34.31-40.08,40.77-68.84
			C411.35,192.85,408.13,153.35,394.39,118.66z"/>
		<path class="st3" d="M232.1,291.71c1.31,14.88,3,29.72,5.08,44.5c2.02,14.39,4.75,28.77,4.85,43.37"/>
		<path class="st3" d="M229.7,166.72c-0.97,21.99-1.28,44.01-0.8,66.02"/>
		<path class="st3" d="M250.45,21.05c-13.48,21.3-16.86,70.74-16.86,70.74"/>
		<path class="st3" d="M265.23,318.11c-2.74,20.32-4.43,40.53-5.48,61.02"/>
		<path class="st3" d="M275.64,202.28c-1.15,23.76-2.84,47.5-5.15,71.16"/>
		<path class="st3" d="M254.62,23.74c12.29,34.33,18.53,71.01,20.94,107.37"/>
		<path class="st3" d="M212.25,317.07c6.27,20.17,12.33,40.6,14.79,61.73"/>
		<path class="st3" d="M187.79,204.21c0.42,22.24,3.92,44.21,10.01,65.5"/>
		<path class="st3" d="M242.45,22.23c-16.71,7.01-26.68,24.04-34.17,39.76c-9.98,23.58-17.46,47.16-19.14,72.61"/>
		<path class="st3" d="M174.33,294.65c13.82,27.21,36.64,51.56,42.76,82.46"/>
		<path class="st3" d="M141.71,169.04c-0.39,24.12,3.47,48.11,10.38,71.08"/>
		<path class="st3" d="M230.88,24.42c-25.6,4.81-48.44,26.98-61.91,49.13c-5.13,8.44-9.42,17.43-13.1,26.66"/>
		<path class="st3" d="M291.61,297.97c-7.77,26.42-14.46,53.3-17.42,80.83"/>
		<path class="st3" d="M322.32,163.32c0.76,26.97-5.29,52.27-13.24,77.66"/>
		<path class="st3" d="M258.79,22.06c9.37,4.57,16.85,12.43,24.34,20.29c12.47,17.03,22.45,34.06,28.81,53.48"/>
		<path class="st4" d="M282.96,378.72"/>
		<path class="st3" d="M305.72,324.81c-9.24,17.08-17.4,35.06-22.77,53.91"/>
		<path class="st3" d="M363.93,206.75c-5.86,27.28-18.98,51.8-33.01,75.28"/>
		<path class="st3" d="M272.9,23.07c28.93,10.11,53.88,28.45,70.1,55.96c11.23,18.34,17.46,36.68,21.23,56.98"/>
		<path class="st5" d="M205.76,373.63c0,0,8.34,19.76,12.4,46.71"/>
		<path class="st5" d="M297.12,370.99c0,0-10.95,32.51-13.09,48.45"/>
		<path class="st5" d="M235.27,379.92c0,0,4.38,22.79,3.96,46.37"/>
		<path class="st5" d="M267.34,382.16c0,0-4.06,22.91-3.64,44.02"/>
		<path class="st6" d="M217.52,421.52"/>
		<path class="st7" d="M302.1,367.02c-26.68,2.43-53.11,2.59-79.57,0.62c-7.5-0.56-15.01-1.29-22.52-2.22
			c-0.64-0.08-1.06,0.2-1.24,0.57c-0.49,0.12-0.88,0.42-0.74,0.92c0.77,2.64,1.69,5.27,2.8,7.87c0.57,1.33,1.18,2.65,1.85,3.97
			c0.29,0.58,0.6,1.16,0.91,1.74c0.32,0.6,0.59,1.45,1.14,1.95c0.47,0.43,1.14,0.49,1.79,0.62c0.94,0.19,1.88,0.38,2.82,0.56
			c1.88,0.36,3.76,0.7,5.65,1.02c3.77,0.63,7.57,1.17,11.37,1.61c15.21,1.76,30.59,1.97,45.86,0.61c8.69-0.77,17.35-2.04,25.91-3.81
			c0.6-0.12,0.97-0.46,1.11-0.91c1.51-4.71,2.92-9.44,4.24-14.16C303.68,367.28,302.81,366.95,302.1,367.02z"/>
	</g>
	<g>
		<g>
			<path class="st8" d="M231.15,160.64c6.95,5.13,13.85,10.29,20.68,15.51c4.15,3.17,8.28,6.36,12.39,9.57
				c2.01,1.57,4.02,3.14,6.02,4.72c1,0.79,2,1.58,3,2.37c0.13,0.1,0.78,0.64,1.54,1.22c0.15-3.39,0.29-6.82,0.42-10.33
				c0.63-17.03,0.32-33.1-0.6-48.01c-13.65-12.4-25.51-24.31-40.5-35.65c-0.68,7.96-1.24,16.65-1.64,26.17
				C231.95,138.18,231.51,149.63,231.15,160.64z"/>
			<path class="st8" d="M277.68,183.8c-0.17,4.63-0.36,9.15-0.56,13.56c0.44-0.03,0.87-0.22,1.19-0.61c0.39-0.48,3.26-3.89,4.6-4.95
				c2-1.58,3.98-3.17,5.96-4.79c4.03-3.29,8.01-6.65,11.95-10.08c6.87-5.98,13.58-12.2,20.15-18.6c-0.6-20.83-3.57-38.69-7.79-53.85
				c-12.91,13.78-21.19,22.14-35.63,33.87c-0.11-0.1-0.21-0.19-0.32-0.29C278.04,152.35,278.28,167.65,277.68,183.8z"/>
			<path class="st8" d="M188.76,199.07c0.07-0.05,0.15-0.09,0.21-0.16c12.43-13.89,39.22-40.46,39.74-40.07
				c0.35-10.5,0.77-21.38,1.25-32.75c0.42-9.94,1.01-19,1.72-27.25c-0.24,0.06-0.48,0.16-0.69,0.37
				c-12.83,12.48-28.02,25.12-40.87,37.89C187.62,158.6,187.59,179.86,188.76,199.07z"/>
			<path class="st8" d="M143.01,164.99c15.14,10.17,29.56,21.25,43.2,33.15c-1.06-18.12-1.04-38.01,1.07-58.2
				c-0.53,0.55-19.58-22.72-32.13-34.3c-6.72,18.05-9.61,32.63-9.66,32.89C145.46,138.69,143.36,148.27,143.01,164.99z"/>
			<path class="st8" d="M363.35,200.5c0.13,0.2,0.3,0.37,0.49,0.51c3.66-20.09,3.68-40.18,0.05-60.19
				c-14.63-14.64-30.1-26.2-47.79-38.02c-0.23-0.15-0.56-0.22-0.85-0.19c4.3,15.09,7.38,32.86,8.14,53.56
				C339.03,168.64,352.55,183.67,363.35,200.5z"/>
			<path class="st8" d="M402.23,138.45c0.09-0.06,0.17-0.11,0.26-0.17c1.36-0.94-1.87-1.9-2.19-1.68c-1.52-6.11-2.85-9.48-2.95-9.4
				c-10.46,7.14-30.1,17.06-30.39,16.76c3.01,18.84,2.84,37.75-0.51,56.65c11.12-4.03,21.96-14.24,32.03-20.44
				c2.49-1.54,5.24-3.05,7.43-5.05C407.98,173.22,403.21,146.11,402.23,138.45z"/>
			<path class="st8" d="M152.98,104.31c-0.22,0.03-0.43,0.09-0.59,0.22c-18.79,14.28-43.2,38.13-59.12,55.75
				c-0.72-0.46-1.12,15.88-0.66,24.08c0.29,5.1,0.76,10.19,1.44,15.25c0.23,1.67,0.66,3.56,1.59,4.9
				c-0.93,1.31,43.97-41.77,44.9-41.15c0.43-15.9,2.41-24.88,2.52-25.38C143.11,137.73,146.07,122.78,152.98,104.31z"/>
			<path class="st8" d="M226.84,238.08c-9.43,11.79-18.35,24-26.81,36.57c0.37,1.48,0.6,2.31,0.62,2.38
				c0.46,1.3,5.38,15.39,10.96,33.06c0.02-0.03,0.06-0.06,0.08-0.09c5.26-9.23,11.29-17.92,18.04-26
				c-1.12-14.76-1.76-30.08-2.02-46.3C227.38,237.69,227.06,237.8,226.84,238.08z"/>
			<path class="st8" d="M307.19,246.85c-11.25,11.72-23.3,22.58-36.02,32.5c-1.2,11.71-2.42,21.98-3.54,30.92
				c8.28-5.58,16.24-11.65,23.88-18.14c2.18-6.87,4.57-13.69,7.2-20.29C301.97,263.63,304.78,255.19,307.19,246.85z"/>
			<path class="st8" d="M309.28,320.99c0.14,0.01,0.28,0,0.43-0.06c5.74-2.44,11.62-4.47,17.62-6.06
				c5.85-1.55,11.79-2.29,17.69-3.53c2.62-0.55,5.21-1.39,7.49-2.88c2.33-1.52,4.28-3.57,6.19-5.61c4.39-4.72,8.72-9.51,12.98-14.37
				c4.8-5.47,9.51-11.03,14.13-16.67c0.77-0.94,0.06-2.58-1.21-2.19c-18.59,5.78-37.06,11.99-55.4,18.6
				c-3.47,5.79-6.62,10.9-9.43,15.27C316.07,309.24,312.58,315.09,309.28,320.99z"/>
			<path class="st8" d="M230.22,239.61c0.29,15.96,0.96,31.05,2.1,45.6c11.06,8.14,21.74,16.83,31.96,26.11
				c0.18,0.17,0.41,0.28,0.64,0.34c1.12-8.8,2.33-18.94,3.54-30.55C256.69,266.33,243.9,252.46,230.22,239.61z"/>
			<path class="st8" d="M325.91,288.78l-16.24-41.52c-2.46,8.54-5.32,17.19-8.67,25.59c-2.28,5.72-4.38,11.61-6.31,17.56
				c4.75,9.22,9.08,18.67,12.96,28.33c3.18-5.63,6.52-11.21,10.05-16.71C320.17,298.17,322.92,293.74,325.91,288.78z"/>
			<path class="st8" d="M151.63,243.56c-0.01,0.01-0.02,0.02-0.03,0.03c-8.83,14.3-15.84,29.78-20.86,45.98
				c-0.44,1.43,1.4,2.12,2.16,1.14c5.37,11.52,13.03,21.79,22.45,29.97c0.76,0.66,1.73,0.39,2.08-0.58
				c3.85-10.63,8.21-21.05,13-31.24c-0.91-1.78-1.82-3.56-2.74-5.37C161.17,270.51,155.82,257.18,151.63,243.56z"/>
			<path class="st8" d="M198.16,277.4c-0.05,0.07-0.1,0.15-0.15,0.22c-15.64-9.45-30.26-20.67-43.58-33.47
				c4.08,12.99,9.23,25.72,15.47,38.12c1.13,2.24,2.25,4.45,3.37,6.63c12.13,6.42,24,13.36,35.56,20.84
				c-5.6-17.7-10.44-31.57-10.56-31.89C198.27,277.82,198.23,277.66,198.16,277.4z"/>
		</g>
	</g>
</g>
</svg>
