<?xml version="1.0" encoding="utf-8"?>
<!-- Generator: Adobe Illustrator 26.0.0, SVG Export Plug-In . SVG Version: 6.00 Build 0)  -->
<svg version="1.1" id="Camada_1" xmlns="http://www.w3.org/2000/svg" xmlns:xlink="http://www.w3.org/1999/xlink" x="0px" y="0px"
	 viewBox="0 0 300 400" style="enable-background:new 0 0 300 400;" xml:space="preserve">
<style type="text/css">
	.st0{fill:#F8C68C;}
	.st1{fill:#B38F4A;}
	.st2{fill:#97C34C;}
	.st3{fill:none;stroke:#000000;stroke-width:0.8326;stroke-miterlimit:10;}
	.st4{fill:none;stroke:#7A6F65;stroke-width:1.8089;stroke-miterlimit:10;}
	.st5{fill:none;stroke:#000000;stroke-width:2.7133;stroke-miterlimit:10;}
	.st6{fill:#DBE38B;}
	.st7{fill:#87B640;}
</style>
<g>
	<path class="st0" d="M129.24,309.79l4.42,33.11c0,1.87,8.08,3.39,18.06,3.39c9.97,0,18.06-1.52,18.06-3.39l4.42-33.11"/>
	<g>
		<g>
			<g>
				<ellipse class="st1" cx="151.72" cy="309.79" rx="22.48" ry="3.39"/>
				<path class="st2" d="M247.29,117.29c-8.12-19.51-22.2-36.32-39.42-47.17C189.35,58.46,167.19,53.98,145.88,56
					c-10.46,0.99-20.94,3.38-30.93,7.17c-24.26,8.22-44.39,27.04-57.46,50.8c-15.92,28.94-13.28,65.27,2.58,93.56
					c4.13,7.38,9.05,14.14,14.54,20.32c12.16,17.37,27.12,32.91,42.72,46.32c0.08,0.07,0.17,0.13,0.25,0.2
					c5.27,10,18.94,8.39,28.03,8.77c5.84,0.25,11.69,0.5,17.53,0.74c5.67,0.23,11.25,0.19,16.02-3.59c0.44-0.35,0.85-0.71,1.24-1.09
					c0.76-0.32,1.45-0.81,1.98-1.52c12.74-16.96,30.12-29.88,43.51-46.04c12.63-11.94,22.9-25.47,27.21-43.75
					C258.62,164.45,256.46,139.34,247.29,117.29z"/>
				<path class="st3" d="M172.91,282.58"/>
				<path class="st4" d="M121.39,279.35c0,0,5.57,12.56,8.28,29.69"/>
				<path class="st4" d="M182.37,277.67c0,0-7.31,20.66-8.74,30.8"/>
				<path class="st4" d="M141.08,283.34c0,0,2.93,14.49,2.64,29.48"/>
				<path class="st4" d="M162.49,284.77c0,0-2.71,14.56-2.43,27.98"/>
				<path class="st5" d="M129.24,309.79"/>
			</g>
			<path class="st6" d="M254.72,180.32c-9.29-4.33-18.84-8.04-28.57-11.16c5.26-24.96,2.55-51.43-9.89-73.93
				c-5.51-9.96-12.82-19.04-21.54-26.37c-8.91-7.49-19.47-14.01-31.46-13.96c-3.03,0.01-3.78,3.85-1.47,5.43
				c15.08,10.35,25.63,26.1,31.45,43.29c1.91,5.65,3.36,11.45,4.41,17.32c1.51,10.38,2.24,20.83,2.24,31.3
				c-0.25,3.31-0.78,6.56-1.74,9.68c-9.63-1.9-19.37-3.26-29.15-4.03c0.01-0.08,0.02-0.15,0.03-0.23
				c0.42-33.35-3.7-66.63-12.21-98.87c-0.38-1.44-1.5-2.05-2.65-2.06c-1.32-1.49-4.34-1.52-5.14,1
				c-10.17,32.16-14.35,65.99-12.32,99.64c-9.27,0.44-18.53,1.4-27.71,2.86c-1.66-35.03,5.25-71.53,29.25-98.37
				c1.8-2.01,0.1-5.9-2.84-4.87c-11.49,4.03-21.19,11.57-29.11,20.77c-8.03,8.09-14.16,18.01-18.45,28.69
				c-2.17,5.41-3.84,10.98-5.16,16.65c-0.47,0.34-0.86,0.87-1.04,1.65c-0.26,1.08-0.49,2.17-0.7,3.26c-0.04,0.1-0.08,0.19-0.11,0.3
				c-0.71,2.7-1.06,5.36-1.07,8.15c0,0.5,0.1,0.93,0.26,1.29c-1.2,8.24-2.62,17.35-0.4,25.46c0.1,1.16,0.21,2.31,0.35,3.47
				c-10.25,2.95-20.29,6.57-30.1,10.8c-3.04,1.31-1.06,5.4,1.8,5.29c-0.22,1.99,0.36,4.23,1.22,6.35
				c4.7,11.64,11.01,22.6,18.23,32.84c14.63,20.73,32.83,38.56,51.36,55.77c1.73,1.61,4.05,0.74,4.87-1.29
				c1.52-3.76-0.55-7.09-2.56-10.22c-2.98-4.64-6.02-9.24-9.03-13.86c-6.02-9.24-12.04-18.47-18.07-27.71
				c-0.14-0.21-0.28-0.38-0.44-0.54l-2.59-5.35c-0.18-0.37-0.4-0.65-0.65-0.87c-6.34-14.45-10.93-29.63-13.66-45.29
				c9.51-2.77,19.2-4.95,28.97-6.54c0.54,19.42,4.24,38.57,9.57,57.22c2.81,9.86,6.05,19.6,9.46,29.27
				c1.44,4.08,2.92,8.15,4.4,12.21c1.1,4.43,2.04,8.89,2.83,13.39c0.42,2.36,2.85,2.56,4.39,1.45c1.08,0.46,2.54,0.29,3.25-0.6
				c4.98-6.23,0.82-16.07-0.35-23.06c-1.77-10.56-3.11-21.18-4.03-31.84c-1.74-20.29-1.91-40.69-0.64-61.01
				c10-0.44,20.02-0.27,30,0.5c0,0.02,0,0.03,0,0.04c-0.03,19.1-1.15,38.18-3.44,57.15c-1.15,9.48-2.62,18.91-4.33,28.3
				c-1.66,9.15-3.33,18.31-2.42,27.64c0.19,1.97,1.7,3.21,3.69,2.81c0.63-0.13,1.2-0.33,1.72-0.58c0.77,0.2,1.63,0.12,2.25-0.28
				c0.31-0.2,0.57-0.43,0.78-0.69c0.49-0.36,0.86-0.86,1-1.5c0.2-0.95,0.23-1.85,0.11-2.73c0.4-1.13,0.69-2.32,0.89-3.49
				c1.12-6.46,2.3-12.86,3.93-19.21c3.46-13.44,8.13-26.53,12.67-39.64c4.4-12.69,9.29-25.68,11.79-38.91
				c0.36-1.92,0.32-3.6-0.17-5.03c4.19,0.82,8.36,1.75,12.5,2.79c5.68,1.43,11.31,3.07,16.86,4.91c-0.11,0.19-0.2,0.4-0.27,0.64
				c-5.62,18.77-15.56,35.66-26,52.1c-9.81,15.47-21.8,31.03-25.18,49.46c-0.52,2.81,2.64,4.92,4.87,2.84
				c15.9-14.88,31.82-29.79,46.33-46.05c12.58-14.09,26.52-29.71,29.03-49.14C256.44,183.85,256.94,181.36,254.72,180.32z"/>
		</g>
		<path class="st7" d="M185.7,275.15c-17.81,1.54-35.45,1.65-53.11,0.4c-5.01-0.36-10.02-0.82-15.03-1.41
			c-0.43-0.05-0.7,0.13-0.83,0.36c-0.32,0.08-0.59,0.27-0.49,0.58c0.52,1.68,1.13,3.35,1.87,5c0.38,0.85,0.79,1.69,1.23,2.52
			c0.2,0.37,0.4,0.74,0.61,1.11c0.21,0.38,0.4,0.92,0.76,1.24c0.31,0.27,0.76,0.31,1.2,0.4c0.63,0.12,1.25,0.24,1.88,0.36
			c1.25,0.23,2.51,0.45,3.77,0.65c2.52,0.4,5.05,0.74,7.59,1.02c10.15,1.12,20.42,1.25,30.61,0.39c5.8-0.49,11.58-1.3,17.29-2.42
			c0.4-0.08,0.65-0.29,0.74-0.58c1.01-3,1.95-6,2.83-9C186.75,275.31,186.17,275.11,185.7,275.15z"/>
	</g>
</g>
</svg>
