<?xml version="1.0" encoding="utf-8"?>
<!-- Generator: Adobe Illustrator 26.0.0, SVG Export Plug-In . SVG Version: 6.00 Build 0)  -->
<svg version="1.1" id="Camada_1" xmlns="http://www.w3.org/2000/svg" xmlns:xlink="http://www.w3.org/1999/xlink" x="0px" y="0px"
	 viewBox="0 0 500 300" style="enable-background:new 0 0 500 300;" xml:space="preserve">
<g>
	<g>
		<path d="M39.93,174.88c3.85-28.42,31.55-49.64,59.63-42.26c15.35,3.86,28.24,15.95,33.04,30.98c0,0-0.98,0.23-0.98,0.23
			c-1.2-8.73-0.57-17.73,2.03-26.16c9.39-30.12,39.82-36.83,65.92-22.88c10.79,5.73,19.72,14.91,25.98,25.74
			c1.34,2.24,0.58,5.15-1.68,6.45c-2.24,1.29-5.1,0.53-6.4-1.71c-3.91-10.43-10.93-19.8-20.5-26.15
			c-13.81-9.21-33.6-11.96-47.69-1.86c-14.19,10.36-19.09,29.61-16.67,46.42c0.09,0.58-0.79,0.82-0.98,0.23
			c-8.16-25.09-38.36-38.03-61.3-24.13c-12.37,7.19-20.56,21.72-19.76,35.74C50.56,183.4,39.03,182.78,39.93,174.88L39.93,174.88z"
			/>
	</g>
	<g>
		<path d="M119.32,232.8c3.85-28.42,31.55-49.64,59.63-42.26c15.35,3.86,28.24,15.95,33.04,30.98c0,0-0.98,0.23-0.98,0.23
			c-1.2-8.73-0.57-17.73,2.03-26.16c9.39-30.12,39.82-36.83,65.92-22.88c10.79,5.73,19.72,14.91,25.98,25.74
			c1.34,2.24,0.58,5.15-1.68,6.45c-2.24,1.29-5.1,0.53-6.4-1.71c-3.91-10.43-10.93-19.8-20.5-26.15
			c-13.81-9.21-33.6-11.96-47.69-1.86c-14.19,10.36-19.09,29.61-16.67,46.42c0.09,0.58-0.79,0.82-0.98,0.23
			c-8.16-25.09-38.36-38.03-61.3-24.13c-12.37,7.19-20.56,21.72-19.76,35.74C129.95,241.32,118.42,240.7,119.32,232.8L119.32,232.8z
			"/>
	</g>
	<g>
		<path d="M253.72,134.28c3.85-28.42,31.55-49.64,59.63-42.26c15.35,3.86,28.24,15.95,33.04,30.98c0,0-0.98,0.23-0.98,0.23
			c-1.2-8.73-0.57-17.73,2.03-26.16c9.39-30.12,39.82-36.83,65.92-22.88c10.79,5.73,19.72,14.91,25.98,25.74
			c1.34,2.24,0.58,5.15-1.68,6.45c-2.24,1.29-5.1,0.53-6.4-1.71c-3.91-10.43-10.93-19.8-20.5-26.15
			c-13.81-9.21-33.6-11.96-47.69-1.86c-14.19,10.36-19.1,29.61-16.67,46.42c0.09,0.58-0.79,0.82-0.98,0.23
			c-8.16-25.09-38.36-38.03-61.3-24.13c-12.37,7.19-20.56,21.72-19.76,35.74C264.35,142.79,252.82,142.18,253.72,134.28
			L253.72,134.28z"/>
	</g>
</g>
</svg>
