<?xml version="1.0" encoding="utf-8"?>
<!-- Generator: Adobe Illustrator 26.0.0, SVG Export Plug-In . SVG Version: 6.00 Build 0)  -->
<svg version="1.1" id="Camada_1" xmlns="http://www.w3.org/2000/svg" xmlns:xlink="http://www.w3.org/1999/xlink" x="0px" y="0px"
	 viewBox="0 0 500 300" style="enable-background:new 0 0 500 300;" xml:space="preserve">
<g>
	<path d="M339.79,62.54c6.96-10.25,24.1-15.07,31.84-3.22c2.09,3.34,3.01,7.16,3.11,11.03c0,0-0.96-0.16-0.96-0.16
		c2.91-7.73,11.47-13.23,19.84-11.38c8.67,1.85,13.77,11.2,12.87,19.66c-0.24,2.14-3.4,1.86-3.25-0.29
		c0.52-3.61-0.11-7.41-1.89-10.62c-6.27-11.46-21.93-8.02-26.65,3.02c-0.18,0.49-0.95,0.36-0.96-0.16
		c-1.72-11.67-11.31-17.74-21.74-11.13c-2.69,1.76-4.85,4.23-6.35,7.02C343.12,70.57,336.95,66.63,339.79,62.54L339.79,62.54z"/>
</g>
<g>
	<path d="M198.54,78.29c6.96-10.25,24.1-15.07,31.84-3.22c2.09,3.34,3.01,7.16,3.11,11.03c0,0-0.96-0.16-0.96-0.16
		c2.91-7.73,11.47-13.23,19.84-11.38c8.67,1.85,13.77,11.2,12.87,19.66c-0.24,2.14-3.4,1.86-3.25-0.29
		c0.52-3.61-0.11-7.41-1.89-10.62c-6.27-11.46-21.93-8.02-26.65,3.02c-0.18,0.49-0.95,0.36-0.96-0.16
		c-1.72-11.67-11.31-17.74-21.74-11.13c-2.69,1.76-4.85,4.23-6.35,7.02C201.87,86.32,195.7,82.38,198.54,78.29L198.54,78.29z"/>
</g>
<g>
	<path d="M318.47,139.27c6.96-10.25,24.1-15.07,31.84-3.22c2.09,3.34,3.01,7.16,3.11,11.03c0,0-0.96-0.16-0.96-0.16
		c2.91-7.73,11.47-13.23,19.84-11.38c8.67,1.85,13.77,11.2,12.87,19.66c-0.24,2.14-3.4,1.86-3.25-0.29
		c0.52-3.61-0.11-7.41-1.89-10.62c-6.27-11.46-21.93-8.02-26.65,3.02c-0.18,0.49-0.95,0.36-0.96-0.16
		c-1.72-11.67-11.31-17.74-21.74-11.13c-2.69,1.76-4.85,4.23-6.35,7.02C321.8,147.3,315.63,143.36,318.47,139.27L318.47,139.27z"/>
</g>
<g>
	<path d="M110.31,99.5c6.96-10.25,24.1-15.07,31.84-3.22c2.09,3.34,3.01,7.16,3.11,11.03c0,0-0.96-0.16-0.96-0.16
		c2.91-7.73,11.47-13.23,19.84-11.38c8.67,1.85,13.77,11.2,12.87,19.66c-0.24,2.14-3.4,1.86-3.25-0.29
		c0.52-3.61-0.11-7.41-1.89-10.62c-6.27-11.46-21.93-8.02-26.65,3.02c-0.18,0.49-0.95,0.36-0.96-0.16
		c-1.72-11.67-11.31-17.74-21.74-11.13c-2.69,1.76-4.85,4.23-6.35,7.02C113.65,107.53,107.47,103.59,110.31,99.5L110.31,99.5z"/>
</g>
<g>
	<path d="M209.21,158.02c6.96-10.25,24.1-15.07,31.84-3.22c2.09,3.34,3.01,7.16,3.11,11.03c0,0-0.96-0.16-0.96-0.16
		c2.91-7.73,11.47-13.23,19.84-11.38c8.67,1.85,13.77,11.2,12.87,19.66c-0.24,2.14-3.4,1.86-3.25-0.29
		c0.52-3.61-0.11-7.41-1.89-10.62c-6.27-11.46-21.93-8.02-26.65,3.02c-0.18,0.49-0.95,0.36-0.96-0.16
		c-1.72-11.67-11.31-17.74-21.74-11.13c-2.69,1.76-4.85,4.23-6.35,7.02C212.54,166.05,206.37,162.11,209.21,158.02L209.21,158.02z"
		/>
</g>
<g>
	<path d="M302.22,221.24c6.96-10.25,24.1-15.07,31.84-3.22c2.09,3.34,3.01,7.16,3.11,11.03c0,0-0.96-0.16-0.96-0.16
		c2.91-7.73,11.47-13.23,19.84-11.38c8.67,1.85,13.77,11.2,12.87,19.66c-0.24,2.14-3.4,1.86-3.25-0.29
		c0.52-3.61-0.11-7.41-1.89-10.62c-6.27-11.46-21.93-8.02-26.65,3.02c-0.18,0.49-0.95,0.36-0.96-0.16
		c-1.72-11.67-11.31-17.74-21.74-11.13c-2.69,1.76-4.85,4.23-6.35,7.02C305.56,229.26,299.39,225.32,302.22,221.24L302.22,221.24z"
		/>
</g>
<g>
	<path d="M67.85,205.35c6.96-10.25,24.1-15.07,31.84-3.22c2.09,3.34,3.01,7.16,3.11,11.03c0,0-0.96-0.16-0.96-0.16
		c2.91-7.73,11.47-13.23,19.84-11.38c8.67,1.85,13.77,11.2,12.87,19.66c-0.24,2.14-3.4,1.86-3.25-0.29
		c0.52-3.61-0.11-7.41-1.89-10.62c-6.27-11.46-21.93-8.02-26.65,3.02c-0.18,0.49-0.95,0.36-0.96-0.16
		c-1.72-11.67-11.31-17.74-21.74-11.13c-2.69,1.76-4.85,4.23-6.35,7.02C71.18,213.38,65.01,209.44,67.85,205.35L67.85,205.35z"/>
</g>
</svg>
