<?xml version="1.0" encoding="utf-8"?>
<!-- Generator: Adobe Illustrator 26.0.0, SVG Export Plug-In . SVG Version: 6.00 Build 0)  -->
<svg version="1.1" id="Camada_1" xmlns="http://www.w3.org/2000/svg" xmlns:xlink="http://www.w3.org/1999/xlink" x="0px" y="0px"
	 viewBox="0 0 100 100" style="enable-background:new 0 0 100 100;" xml:space="preserve">
<style type="text/css">
	.st0{fill:#FFFFFF;}
	.st1{fill:#FF0000;}
</style>
<g>
	<path class="st0" d="M87.93,98.15c-4.69,0-9.97-2.46-14.12-6.58L50,67.95L26.19,91.57c-4.15,4.12-9.43,6.58-14.12,6.58
		c-2.88,0-5.35-0.92-7.13-2.67l-0.75-0.75c-1.79-1.75-2.74-4.19-2.75-7.06c-0.02-4.63,2.45-9.86,6.6-13.99L31.9,50L8.04,26.33
		c-4.16-4.13-6.62-9.36-6.61-13.99C1.44,9.46,2.4,7.01,4.2,5.25l0.72-0.72c1.8-1.76,4.27-2.69,7.15-2.69
		c4.69,0,9.97,2.46,14.12,6.58L50,32.05L73.81,8.43c4.15-4.12,9.43-6.58,14.12-6.58c2.88,0,5.35,0.92,7.13,2.67l0.75,0.75
		c1.79,1.75,2.74,4.19,2.75,7.06c0.02,4.63-2.45,9.86-6.6,13.99L68.1,50l23.86,23.67c4.16,4.13,6.62,9.36,6.61,13.99
		c-0.01,2.87-0.97,5.32-2.77,7.08l-0.72,0.72C93.28,97.23,90.81,98.15,87.93,98.15z"/>
	<path class="st1" d="M87.93,95.65c-4.04,0-8.67-2.19-12.36-5.85L50,64.43L24.43,89.8c-3.7,3.66-8.32,5.85-12.36,5.85
		c-2.21,0-4.07-0.68-5.39-1.96l-0.73-0.73c-1.32-1.29-2.01-3.12-2.02-5.3c-0.02-3.98,2.18-8.54,5.87-12.21L35.45,50L9.8,24.55
		c-3.69-3.67-5.88-8.23-5.87-12.21c0.01-2.19,0.71-4.02,2.02-5.3l0.74-0.74c1.31-1.28,3.17-1.96,5.38-1.96
		c4.05,0,8.67,2.19,12.36,5.85L50,35.57L75.57,10.2c3.7-3.67,8.32-5.85,12.36-5.85c2.21,0,4.08,0.68,5.39,1.96l0.73,0.73
		c1.32,1.29,2.01,3.12,2.02,5.3c0.02,3.98-2.18,8.54-5.87,12.21L64.55,50L90.2,75.45c3.69,3.67,5.88,8.23,5.87,12.21
		c-0.01,2.18-0.71,4.02-2.02,5.3l-0.74,0.74C92.01,94.97,90.15,95.65,87.93,95.65z"/>
	<path d="M12.07,4.85c3.92,0,8.41,2.13,12.01,5.71L49.3,35.58l0.7,0.7l0.7-0.7l25.22-25.02c3.6-3.57,8.09-5.71,12.01-5.71
		c2.08,0,3.82,0.63,5.03,1.81L93.7,7.4c1.21,1.19,1.86,2.9,1.87,4.95c0.02,3.85-2.12,8.28-5.72,11.85l-25.3,25.09L63.84,50
		l0.72,0.71l25.3,25.09c3.6,3.57,5.73,8.01,5.72,11.85c-0.01,2.05-0.65,3.76-1.88,4.95l-0.72,0.72c-1.21,1.19-2.96,1.82-5.04,1.82
		c-3.92,0-8.41-2.13-12.01-5.71L50.7,64.42l-0.7-0.7l-0.7,0.7L24.08,89.44c-3.6,3.57-8.09,5.71-12.01,5.71
		c-2.08,0-3.82-0.63-5.03-1.81L6.3,92.6c-1.21-1.19-1.86-2.9-1.87-4.95c-0.02-3.85,2.12-8.28,5.72-11.85l25.3-25.09L36.16,50
		l-0.72-0.71L10.15,24.2c-3.6-3.57-5.73-8.01-5.72-11.85c0.01-2.05,0.65-3.76,1.88-4.95l0.72-0.72C8.24,5.48,9.99,4.85,12.07,4.85
		 M87.93,3.85c-4,0-8.8,2.12-12.71,6L50,34.87L24.78,9.85c-3.91-3.88-8.71-6-12.71-6c-2.27,0-4.28,0.68-5.74,2.1L5.6,6.68
		c-4.02,3.93-2.28,12.13,3.85,18.22L34.74,50L9.45,75.09C3.32,81.19,1.58,89.38,5.6,93.32l0.73,0.73c1.45,1.42,3.47,2.1,5.74,2.1
		c4,0,8.8-2.12,12.71-6L50,65.13l25.22,25.02c3.91,3.88,8.71,6,12.71,6c2.27,0,4.28-0.68,5.74-2.1l0.73-0.73
		c4.02-3.93,2.28-12.13-3.85-18.22L65.26,50l25.3-25.09c6.13-6.09,7.87-14.29,3.85-18.22l-0.73-0.73
		C92.22,4.53,90.2,3.85,87.93,3.85L87.93,3.85z"/>
</g>
</svg>
