<?xml version="1.0" encoding="utf-8"?>
<!-- Generator: Adobe Illustrator 26.0.0, SVG Export Plug-In . SVG Version: 6.00 Build 0)  -->
<svg version="1.1" id="Camada_1" xmlns="http://www.w3.org/2000/svg" xmlns:xlink="http://www.w3.org/1999/xlink" x="0px" y="0px"
	 viewBox="0 0 1000 1000" style="enable-background:new 0 0 1000 1000;" xml:space="preserve">
<style type="text/css">
	.st0{fill:url(#XMLID_00000146458742735715816610000017586355889128621965_);}
	.st1{fill:url(#SVGID_1_);}
	.st2{filter:url(#Adobe_OpacityMaskFilter);}
	.st3{mask:url(#SVGID_00000117658684613606057310000011873711700889762434_);}
	.st4{fill:none;stroke:url(#SVGID_00000125604950804095342480000016152908919559782040_);stroke-width:16;stroke-miterlimit:10;}
</style>
<radialGradient id="XMLID_00000127764228701545846060000001140329419841885059_" cx="403.4105" cy="39.8625" r="440.0119" fx="-31.2211" fy="40.8631" gradientTransform="matrix(6.123234e-17 1 1.1548 -7.070973e-17 457.3664 83.5368)" gradientUnits="userSpaceOnUse">
	<stop  offset="6.300000e-02" style="stop-color:#9370DB"/>
	<stop  offset="0.2253" style="stop-color:#8365CD"/>
	<stop  offset="0.543" style="stop-color:#5947A8"/>
	<stop  offset="0.9606" style="stop-color:#191970"/>
</radialGradient>
<path id="XMLID_00000085222412399607632920000003562591706454419117_" style="fill:url(#XMLID_00000127764228701545846060000001140329419841885059_);" d="
	M884.1,965.9H115.9c-47.7,0-86.4-38.7-86.4-86.4V128.4c0-47.7,38.7-86.4,86.4-86.4h768.2c47.7,0,86.4,38.7,86.4,86.4v751.1
	C970.5,927.3,931.8,965.9,884.1,965.9z"/>
<linearGradient id="SVGID_1_" gradientUnits="userSpaceOnUse" x1="-208.74" y1="929.885" x2="-152.64" y2="929.885" gradientTransform="matrix(1 0 0 -1 0 1000)">
	<stop  offset="0" style="stop-color:#E541E5"/>
	<stop  offset="6.680000e-02" style="stop-color:#E939DF"/>
	<stop  offset="0.3435" style="stop-color:#F71AC8"/>
	<stop  offset="0.4994" style="stop-color:#FC0FC0"/>
	<stop  offset="0.6119" style="stop-color:#F319C3"/>
	<stop  offset="0.8007" style="stop-color:#DA33CA"/>
	<stop  offset="1" style="stop-color:#BA55D3"/>
</linearGradient>
<path class="st1" d="M-180.7,98.2L-180.7,98.2c-15.5,0-28.1-12.6-28.1-28l0,0c0-15.5,12.6-28.1,28.1-28.1l0,0
	c15.5,0,28.1,12.6,28.1,28.1l0,0C-152.6,85.6-165.2,98.2-180.7,98.2z"/>
<defs>
	<filter id="Adobe_OpacityMaskFilter" filterUnits="userSpaceOnUse" x="0" y="0" width="1000" height="1000">
		<feColorMatrix  type="matrix" values="1 0 0 0 0  0 1 0 0 0  0 0 1 0 0  0 0 0 1 0"/>
	</filter>
</defs>
<mask maskUnits="userSpaceOnUse" x="0" y="0" width="1000" height="1000" id="SVGID_00000117658684613606057310000011873711700889762434_">
	<g class="st2">
		
			<image style="overflow:visible;enable-background:new    ;" width="5000" height="5000" xlink:href="9913A2EC.jpg"  transform="matrix(0.1882 0 0 0.1858 29.8987 33.0087)">
		</image>
	</g>
</mask>
<g class="st3">
	<g>
		<g style="enable-background:new    ;">
			
				<image style="overflow:visible;" width="4225" height="4158" xlink:href="9913A2EC.png"  transform="matrix(0.2367 0 0 0.2405 0 0)">
			</image>
		</g>
	</g>
</g>
<linearGradient id="SVGID_00000068661816793557868870000010879631927986379708_" gradientUnits="userSpaceOnUse" x1="21.55" y1="500" x2="978.45" y2="500" gradientTransform="matrix(1 0 0 -1 0 1000)">
	<stop  offset="0" style="stop-color:#E541E5"/>
	<stop  offset="6.680000e-02" style="stop-color:#E939DF"/>
	<stop  offset="0.3435" style="stop-color:#F71AC8"/>
	<stop  offset="0.4994" style="stop-color:#FC0FC0"/>
	<stop  offset="0.6119" style="stop-color:#F319C3"/>
	<stop  offset="0.8007" style="stop-color:#DA33CA"/>
	<stop  offset="1" style="stop-color:#BA55D3"/>
</linearGradient>
<path style="fill:none;stroke:url(#SVGID_00000068661816793557868870000010879631927986379708_);stroke-width:16;stroke-miterlimit:10;" d="
	M29.5,875.6V125.1c0,0,1.7-87,86.4-87h768.2c0,0,86.4,4.7,86.4,87s0,750.5,0,750.5s-0.8,86.4-86.4,86.4H115.9
	C115.9,961.9,29.5,959,29.5,875.6z"/>
</svg>
