<?xml version="1.0" encoding="utf-8"?>
<!-- Generator: Adobe Illustrator 26.0.0, SVG Export Plug-In . SVG Version: 6.00 Build 0)  -->
<svg version="1.1" xmlns="http://www.w3.org/2000/svg" xmlns:xlink="http://www.w3.org/1999/xlink" x="0px" y="0px"
	 viewBox="0 0 1000 1000" style="enable-background:new 0 0 1000 1000;" xml:space="preserve">
<style type="text/css">
	.st0{fill:none;stroke:#000000;stroke-width:0.5;stroke-linecap:round;stroke-linejoin:round;stroke-miterlimit:10;}
	.st1{fill:url(#SVGID_1_);stroke:#00FFFF;stroke-width:0.5;stroke-linecap:round;stroke-linejoin:round;stroke-miterlimit:10;}
	.st2{fill:#FFFFFF;stroke:#000000;stroke-width:0.5;stroke-linecap:round;stroke-linejoin:round;stroke-miterlimit:10;}
	.st3{fill:#FFFFFF;stroke:#0000FF;stroke-linecap:round;stroke-linejoin:round;stroke-miterlimit:10;}
</style>
<g id="Camada_1">
	<path class="st0" d="M143.02,820.63v-0.99"/>
	<g>
		<linearGradient id="SVGID_1_" gradientUnits="userSpaceOnUse" x1="171.4" y1="502.6" x2="822.28" y2="502.6">
			<stop  offset="0" style="stop-color:#FFFFFF"/>
			<stop  offset="0.0495" style="stop-color:#CFECF9"/>
			<stop  offset="0.1033" style="stop-color:#A4DBF3"/>
			<stop  offset="0.1595" style="stop-color:#7ECCED"/>
			<stop  offset="0.2177" style="stop-color:#5FC0E9"/>
			<stop  offset="0.2784" style="stop-color:#47B7E6"/>
			<stop  offset="0.3426" style="stop-color:#36B0E4"/>
			<stop  offset="0.4127" style="stop-color:#2CACE2"/>
			<stop  offset="0.5" style="stop-color:#29ABE2"/>
			<stop  offset="0.5873" style="stop-color:#2CACE2"/>
			<stop  offset="0.6574" style="stop-color:#36B0E4"/>
			<stop  offset="0.7216" style="stop-color:#47B7E6"/>
			<stop  offset="0.7823" style="stop-color:#5FC0E9"/>
			<stop  offset="0.8405" style="stop-color:#7ECCED"/>
			<stop  offset="0.8967" style="stop-color:#A4DBF3"/>
			<stop  offset="0.9505" style="stop-color:#CFECF9"/>
			<stop  offset="1" style="stop-color:#FFFFFF"/>
		</linearGradient>
		<path class="st1" d="M810.28,894.28H183.4c-6.6,0-12-5.4-12-12V122.92c0-6.6,5.4-12,12-12h626.88c6.6,0,12,5.4,12,12v759.36
			C822.28,888.88,816.88,894.28,810.28,894.28z"/>
	</g>
	<path class="st2" d="M141.23,821.63"/>
	<path class="st3" d="M940.19,604.9c0-14.16-7.86-26.49-19.45-32.84c5.44-6.49,8.71-14.88,8.71-24.01c0-6.67-1.75-12.94-4.81-18.37
		c7.26-6.82,11.79-16.52,11.79-27.27c0-10.95-4.7-20.81-12.19-27.65c3.31-5.58,5.21-12.1,5.21-19.06c0-10.01-3.94-19.12-10.35-25.84
		c9.08-6.82,14.96-17.7,14.96-29.94c0-13.72-7.37-25.71-18.37-32.22c3.6-5.74,5.69-12.53,5.71-19.8
		c12.12-6.21,20.4-18.82,20.4-33.36c0-14.18-7.89-26.52-19.51-32.88c1.85-4.43,2.86-9.29,2.86-14.38c0-4.87-0.93-9.52-2.62-13.79
		c7.1-6.81,11.52-16.4,11.52-27.02c0-9.8-3.77-18.73-9.92-25.39c0.67-2.8,1.02-5.71,1.02-8.7c0-5.6-1.23-10.93-3.45-15.71
		c7.58-6.85,12.35-16.76,12.35-27.79c0-13.18-6.81-24.78-17.1-31.45c1.34-3.86,2.07-8,2.07-12.32c0-20.68-16.77-37.45-37.45-37.45
		c-3.66,0-7.2,0.53-10.55,1.51c0.87-2.96,1.34-6.06,1.34-9.26c0-21.36-20.86-38.66-46.6-38.66c-1.51,0-3,0.06-4.47,0.18
		c-8.24-6.12-19.13-9.84-31.07-9.84c-11.37,0-21.77,3.38-29.86,8.99c-7.13-3.66-15.53-5.77-24.5-5.77c-7.37,0-14.32,1.43-20.52,3.95
		c-8.43-6.96-20.06-11.25-32.88-11.25c-13.29,0-25.26,4.61-33.75,11.98c-7.84-4.96-17.63-7.9-28.22-7.9
		c-6.79,0-13.25,1.21-19.06,3.38c-7.73-4.7-17.24-7.46-27.54-7.46c-8.55,0-16.53,1.9-23.43,5.25C542.03,5.79,530.41,1.5,517.58,1.5
		c-19.6,0-36.38,10.02-43.25,24.25c-8.4-6.78-19.86-10.94-32.48-10.94c-11.38,0-21.8,3.39-29.89,9.01
		c-5.19-1.66-10.82-2.56-16.7-2.56c-1.67,0-3.31,0.07-4.91,0.21c-8.55-8.54-21.43-13.96-35.86-13.96
		c-12.47,0-23.82,4.06-32.18,10.69h-0.01c-7.45-4.17-16.4-6.61-26.05-6.61c-16.29,0-30.62,6.94-38.95,17.45
		c-2.49-0.35-5.05-0.54-7.65-0.54c-6.87,0-13.38,1.24-19.26,3.45c-8.37-6.61-19.71-10.69-32.18-10.69
		c-11.75,0-22.49,3.61-30.69,9.56c-4.97-1.5-10.33-2.32-15.91-2.32c-25.74,0-46.6,17.32-46.6,38.66c0,1.34,0.08,2.66,0.25,3.96
		c-12.83,5.94-21.72,18.93-21.72,34c0,4.32,0.73,8.46,2.07,12.32c-10.29,6.67-17.1,18.27-17.1,31.45c0,11.03,4.77,20.94,12.35,27.79
		c-2.22,4.78-3.45,10.1-3.45,15.71c0,3,0.35,5.91,1.02,8.7c-6.15,6.67-9.92,15.59-9.92,25.39c0,10.62,4.42,20.2,11.52,27.02
		c-1.69,4.27-2.62,8.93-2.62,13.79c0,5.09,1.02,9.95,2.86,14.38c-11.62,6.35-19.51,18.69-19.51,32.88c0,14.54,8.29,27.15,20.4,33.36
		c0.01,7.27,2.1,14.06,5.71,19.8c-11,6.51-18.37,18.5-18.37,32.22c0,12.24,5.87,23.11,14.96,29.94
		c-6.41,6.72-10.35,15.83-10.35,25.84c0,6.96,1.9,13.48,5.21,19.06c-7.5,6.85-12.19,16.7-12.19,27.65
		c0,10.75,4.53,20.45,11.79,27.27c-3.07,5.43-4.81,11.7-4.81,18.37c0,9.13,3.28,17.52,8.71,24.01
		c-11.59,6.35-19.45,18.68-19.45,32.84c0,14.32,8.03,26.76,19.85,33.06c-0.69,2.83-1.05,5.78-1.05,8.83c0,2.34,0.21,4.62,0.63,6.84
		c-8.13,6.86-13.29,17.13-13.29,28.6c0,12.62,6.24,23.79,15.82,30.57c-2.02,4.61-3.15,9.71-3.15,15.07
		c0,13.37,7.01,25.11,17.55,31.73c-0.81,3.08-1.24,6.3-1.24,9.62c0,3.02,0.36,5.95,1.04,8.77c-8.19,6.86-13.39,17.16-13.39,28.68
		c0,13.54,7.18,25.39,17.94,31.97c-1.53,4.08-2.37,8.51-2.37,13.13c0,2.83,0.31,5.66,0.95,8.42c0.76,3.33,1.99,6.56,3.64,9.55
		c1.09,1.98,2.36,3.86,3.78,5.62c0.79,0.97,1.64,1.92,2.54,2.82c0.22,0.22,2.76,2.6,2.86,2.6c-5.26,6.43-8.4,14.67-8.4,23.62
		c0,8.51,2.84,16.36,7.63,22.65c-0.54,2.36-0.83,4.79-0.83,7.27c0,21.36,20.86,38.66,46.6,38.66c5.58,0,10.94-0.82,15.91-2.32
		c8.2,5.95,18.94,9.56,30.69,9.56c12.47,0,23.82-4.07,32.18-10.69c5.88,2.21,12.4,3.45,19.26,3.45c2.61,0,5.16-0.18,7.65-0.53
		c8.33,10.5,22.66,17.44,38.95,17.44c9.65,0,18.6-2.44,26.05-6.6h0.01c8.37,6.62,19.71,10.69,32.18,10.69
		c14.43,0,27.32-5.44,35.86-13.97c1.6,0.15,3.24,0.21,4.91,0.21c5.88,0,11.51-0.91,16.7-2.56c8.09,5.62,18.51,9.01,29.89,9.01
		c12.62,0,24.07-4.16,32.48-10.93c6.87,14.22,23.65,24.25,43.25,24.25c12.82,0,24.44-4.31,32.88-11.25
		c6.89,3.33,14.88,5.25,23.43,5.25c10.3,0,19.81-2.77,27.54-7.47c5.82,2.17,12.27,3.38,19.06,3.38c10.59,0,20.38-2.94,28.22-7.9
		c8.49,7.38,20.46,11.99,33.75,11.99c12.82,0,24.44-4.31,32.88-11.27c6.2,2.53,13.14,3.95,20.52,3.95c8.97,0,17.37-2.11,24.5-5.76
		c8.09,5.6,18.49,8.98,29.86,8.98c11.94,0,22.82-3.73,31.07-9.84c1.48,0.12,2.96,0.18,4.47,0.18c23.66,0,43.19-14.62,46.2-33.56
		c2.54-2.45,4.13-5.87,4.13-9.65v-4.65c7.71-6.86,12.55-16.85,12.55-27.97c0-8.95-3.14-17.18-8.4-23.62c0.1,0,2.64-2.37,2.86-2.6
		c0.89-0.89,1.75-1.85,2.54-2.82c1.42-1.76,2.7-3.64,3.78-5.62c1.64-3,2.88-6.22,3.64-9.55c0.64-2.76,0.95-5.59,0.95-8.42
		c0-4.62-0.84-9.05-2.37-13.13c10.76-6.58,17.94-18.44,17.94-31.97c0-11.52-5.2-21.83-13.39-28.68c0.68-2.82,1.04-5.75,1.04-8.77
		c0-3.32-0.44-6.54-1.24-9.62c10.54-6.61,17.55-18.36,17.55-31.73c0-5.36-1.13-10.46-3.15-15.07c9.58-6.78,15.82-17.95,15.82-30.57
		c0-11.48-5.16-21.75-13.29-28.6c0.41-2.21,0.63-4.5,0.63-6.84c0-3.04-0.36-6-1.05-8.83C932.16,631.66,940.19,619.22,940.19,604.9z
		 M802.37,860.2c0.18,0.77,0.38,1.53,0.6,2.28c-1.61-0.15-3.24-0.21-4.9-0.21c-11.37,0-21.77,3.38-29.86,8.98
		c-7.13-3.65-15.53-5.76-24.5-5.76c-7.37,0-14.32,1.42-20.52,3.95c-8.43-6.96-20.06-11.27-32.88-11.27
		c-13.29,0-25.26,4.61-33.75,11.99c-7.84-4.96-17.63-7.9-28.22-7.9c-6.79,0-13.25,1.21-19.06,3.38c-7.73-4.7-17.24-7.47-27.54-7.47
		c-8.55,0-16.53,1.91-23.43,5.25c-8.43-6.95-20.06-11.25-32.88-11.25c-19.6,0-36.38,10.03-43.25,24.25
		c-8.4-6.77-19.86-10.93-32.48-10.93c-11.38,0-21.8,3.39-29.89,9.01c-5.19-1.66-10.82-2.56-16.7-2.56c-1.67,0-3.31,0.07-4.91,0.21
		c-8.55-8.54-21.43-13.97-35.86-13.97c-12.47,0-23.82,4.07-32.18,10.69h-0.01c-7.45-4.16-16.4-6.6-26.05-6.6
		c-16.29,0-30.62,6.94-38.95,17.44c-2.49-0.35-5.05-0.53-7.65-0.53c-6.87,0-13.38,1.23-19.26,3.45
		c-8.37-6.62-19.71-10.69-32.18-10.69c-4.02,0-7.92,0.43-11.63,1.22c0.77-1.1,1.49-2.23,2.13-3.4c1.64-3,2.88-6.22,3.64-9.55
		c0.64-2.76,0.95-5.59,0.95-8.42c0-4.62-0.84-9.05-2.37-13.13c10.76-6.58,17.94-18.44,17.94-31.97c0-11.52-5.2-21.83-13.39-28.68
		c0.68-2.82,1.04-5.75,1.04-8.77c0-3.32-0.44-6.54-1.24-9.62c10.54-6.61,17.55-18.36,17.55-31.73c0-5.36-1.13-10.46-3.15-15.07
		c9.58-6.78,15.82-17.95,15.82-30.57c0-11.48-5.16-21.75-13.29-28.6c0.41-2.21,0.63-4.5,0.63-6.84c0-3.04-0.36-6-1.05-8.83
		c11.81-6.3,19.85-18.74,19.85-33.06c0-14.16-7.86-26.49-19.45-32.84c5.44-6.49,8.71-14.88,8.71-24.01c0-6.67-1.75-12.94-4.81-18.37
		c7.26-6.82,11.79-16.52,11.79-27.27c0-10.95-4.7-20.81-12.19-27.65c3.31-5.58,5.21-12.1,5.21-19.06c0-10.01-3.94-19.12-10.35-25.84
		c9.08-6.82,14.96-17.7,14.96-29.94c0-13.72-7.37-25.71-18.37-32.22c3.6-5.74,5.69-12.53,5.71-19.8
		c12.12-6.21,20.4-18.82,20.4-33.36c0-14.18-7.89-26.52-19.51-32.88c1.85-4.43,2.86-9.29,2.86-14.38c0-4.87-0.93-9.52-2.62-13.79
		c7.1-6.81,11.52-16.4,11.52-27.02c0-9.8-3.77-18.73-9.92-25.39c0.67-2.8,1.02-5.71,1.02-8.7c0-5.6-1.23-10.93-3.45-15.71
		c7.58-6.85,12.35-16.76,12.35-27.79c0-9.82-3.78-18.76-9.98-25.44c2.53-1.34,4.88-2.88,7.04-4.59c5.88,2.21,12.39,3.46,19.26,3.46
		c2.61,0,5.16-0.19,7.65-0.54c8.33,10.5,22.66,17.45,38.95,17.45c9.65,0,18.6-2.45,26.05-6.61h0.01
		c8.37,6.62,19.71,10.69,32.18,10.69c14.43,0,27.32-5.44,35.86-13.97c1.6,0.15,3.24,0.21,4.91,0.21c5.88,0,11.51-0.91,16.7-2.56
		c8.09,5.62,18.51,9.02,29.89,9.02c12.62,0,24.07-4.17,32.48-10.94c6.87,14.23,23.65,24.25,43.25,24.25
		c12.82,0,24.44-4.31,32.88-11.25c6.89,3.33,14.88,5.25,23.43,5.25c10.3,0,19.81-2.77,27.54-7.47c5.82,2.17,12.27,3.39,19.06,3.39
		c10.59,0,20.38-2.94,28.22-7.9c8.49,7.37,20.46,11.98,33.75,11.98c12.82,0,24.44-4.3,32.88-11.27c6.2,2.53,13.14,3.96,20.52,3.96
		c8.97,0,17.37-2.13,24.5-5.77c3.36,2.33,7.1,4.26,11.15,5.73c-1.49,4.03-2.29,8.38-2.29,12.92c0,11.03,4.77,20.94,12.35,27.79
		c-2.21,4.78-3.45,10.1-3.45,15.71c0,3,0.35,5.91,1.02,8.7c-6.15,6.67-9.92,15.59-9.92,25.39c0,10.62,4.42,20.2,11.52,27.02
		c-1.69,4.27-2.62,8.93-2.62,13.79c0,5.09,1.02,9.95,2.86,14.38c-11.62,6.35-19.51,18.69-19.51,32.88c0,14.54,8.29,27.15,20.4,33.36
		c0.01,7.27,2.1,14.06,5.71,19.8c-11,6.51-18.37,18.5-18.37,32.22c0,12.24,5.87,23.11,14.96,29.94
		c-6.41,6.72-10.35,15.83-10.35,25.84c0,6.96,1.9,13.48,5.21,19.06c-7.5,6.85-12.19,16.7-12.19,27.65
		c0,10.75,4.53,20.45,11.79,27.27c-3.07,5.43-4.81,11.7-4.81,18.37c0,9.13,3.28,17.52,8.71,24.01
		c-11.59,6.35-19.45,18.68-19.45,32.84c0,14.32,8.03,26.76,19.85,33.06c-0.69,2.83-1.05,5.78-1.05,8.83c0,2.34,0.21,4.62,0.63,6.84
		c-8.13,6.86-13.29,17.13-13.29,28.6c0,12.62,6.24,23.79,15.82,30.57c-2.02,4.61-3.15,9.71-3.15,15.07
		c0,13.37,7.01,25.11,17.55,31.73c-0.81,3.08-1.24,6.3-1.24,9.62c0,3.02,0.36,5.95,1.04,8.77c-8.19,6.86-13.39,17.16-13.39,28.68
		c0,13.54,7.18,25.39,17.94,31.97c-1.53,4.08-2.37,8.51-2.37,13.13C801.42,854.61,801.73,857.44,802.37,860.2z"/>
</g>
<g id="Camada_2">
</g>
</svg>
