<?xml version="1.0" encoding="utf-8"?>
<!-- Generator: Adobe Illustrator 26.0.0, SVG Export Plug-In . SVG Version: 6.00 Build 0)  -->
<svg version="1.1" id="Camada_1" xmlns="http://www.w3.org/2000/svg" xmlns:xlink="http://www.w3.org/1999/xlink" x="0px" y="0px"
	 viewBox="0 0 1366 768" style="enable-background:new 0 0 1366 768;" xml:space="preserve">
<style type="text/css">
	.st0{fill:#F15A24;}
	.st1{fill:#3674CE;}
	.st2{fill:#FFFF00;}
	.st3{fill:none;stroke:#FFFF00;stroke-width:15;stroke-linecap:round;stroke-linejoin:round;stroke-miterlimit:10;}
	.st4{enable-background:new    ;}
</style>
<g>
	<path class="st0" d="M106,753c-36.9,0-67-30-67-67V82c0-36.9,30-67,67-67H1260c36.9,0,67,30,67,67V686c0,36.9-30,67-67,67H106z"/>
	<path class="st1" d="M106,726.5c-22.3,0-40.5-18.2-40.5-40.5V82c0-22.3,18.2-40.5,40.5-40.5H1260c22.3,0,40.5,18.2,40.5,40.5V686
		c0,22.3-18.2,40.5-40.5,40.5H106z"/>
	<path class="st2" d="M1260,49c18.2,0,33,14.8,33,33V686c0,18.2-14.8,33-33,33H106c-18.2,0-33-14.8-33-33V82c0-18.2,14.8-33,33-33
		H1260 M1260,34H106c-26.5,0-48,21.5-48,48V686c0,26.5,21.5,48,48,48H1260c26.5,0,48-21.5,48-48V82C1308,55.5,1286.5,34,1260,34
		L1260,34z"/>
</g>
<g>
	<line class="st3" x1="383.5" y1="308.5" x2="983.5" y2="308.5"/>
</g>
<g>
	<line class="st3" x1="408.5" y1="338.5" x2="958.5" y2="338.5"/>
</g>
<g class="st4">
	<path d="M492.7,205.5l-0.1,0.1c-2.5-4.1-7-5.6-12.5-5.6h-7.8v13h6.2c5,0,8.4-0.1,10.5-0.6l-2.2,12.6h-0.1c-0.9-3-4.1-5-7.6-5h-6.7
		v11.1c0,5.8,2,9.2,3.8,10.4v0.1h-17.2v-0.1c1.8-1.2,3.8-4.6,3.8-10.4v-27.7c0-6.9-1.8-9.2-3.7-10.4V193h23.5c4.2,0,6.7-0.1,9-0.6
		L492.7,205.5z"/>
	<path d="M499.2,241.5c1.8-1.2,3.8-4.6,3.8-10.4v-27.7c0-5.8-2-9.2-3.8-10.4V193h17.2v0.1c-1.8,1.2-3.8,4.6-3.8,10.4v27.7
		c0,5.8,2,9.2,3.8,10.4v0.1h-17.2V241.5z"/>
	<path d="M522.8,241.5c2.2-2.5,3.9-5.3,4.2-10.2l1.8-27.2c0.3-3.9-0.6-9.2-3.8-11.1l0.1-0.1h16c-0.8,1-0.7,3.2,1.1,6.4l6.9,11.9
		c2.2,3.8,3.7,7.6,4.3,11.6h0.3c1.1-4.3,2.9-7.5,5.2-11.6l6.9-12.1c1.8-3.1,1.9-5.1,1-6.2H583l0.1,0.1c-3.2,1.8-4.3,7.2-4.1,11.1
		l2.2,27.2c0.3,3.4,1.6,7.6,4.1,10.2l-0.1,0.1h-16l-0.1-0.1c1.3-1.2,2.7-4.3,2.3-8.7l-1.1-14.5c-0.3-3.3-0.2-6.9,0.4-12h-0.3
		c-1.5,4.7-3.1,8-5.4,11.9l-7.8,13.2c-2.5,4.2-3.2,7-3.3,8.5h-0.6c-0.2-1.5-0.9-4.3-3.5-8.4l-8.3-13.3c-2.2-3.6-3.7-6.9-5-11.8h-0.3
		c0.6,5.2,0.6,9,0.4,12l-0.8,14.5c-0.2,4.4,1,7.5,2.3,8.7l-0.1,0.1h-15.4L522.8,241.5z"/>
	<path d="M609.2,241.5c1.8-1.2,3.8-4.6,3.8-10.4v-27.7c0-5.2-2-9.2-3.8-10.4V193h20.3c14.7,0,24.4,9,24.4,24.3
		c0,15.3-8.2,24.4-25.5,24.4h-19.2V241.5z M629.1,234.7c9.4,0,14.4-6.2,14.4-17.4c0-11.8-4.8-17.4-14.8-17.4h-6.2v34.8H629.1z"/>
	<path d="M696.3,228.3l-2,13.9c-2.6-0.4-4.4-0.6-8.5-0.6h-24.7v-0.1c1.8-1.2,3.8-4.6,3.8-10.4v-27.7c0-5.8-2-9.2-3.8-10.4V193h25.1
		c2.8,0,5.9-0.2,7.4-0.6l1.2,12.5l-0.1,0.1c-1.7-3.4-5.5-5.2-11-5.2h-9.2v12.3h5.3c5.8,0,7.8-0.1,10.9-0.5l-2,11.8h-0.1
		c-1.2-3.2-3.7-4.4-7.6-4.4h-6.4v15.8h7.6c6.2,0,11.1-2.3,14.1-6.6L696.3,228.3z"/>
	<path d="M717.6,242.1l-0.7-10.9h0.1c0.5,0.9,2.7,4.3,7.1,4.3c5.3,0,7.8-2.8,7.8-7.8v-24.2c0-5.9-2-9.2-3.8-10.4V193h17.2v0.1
		c-1.8,1.2-3.8,4.6-3.8,10.4v21.7c0,12.4-5.1,18-17,18C722.8,243.2,720.2,242.8,717.6,242.1z"/>
	<path d="M751,217.8c0-15.8,9.8-26.2,26-26.2c15,0,25,10.2,25,25.2c0,15.6-10.4,26.3-26,26.3C760.2,243,751,232.1,751,217.8z
		 M791.5,217.5c0-11.8-5.7-18.6-15.3-18.6c-9.2,0-14.8,7.3-14.8,18.2c0,11.5,5.2,18.7,15.2,18.7
		C785.2,235.8,791.5,228.7,791.5,217.5z"/>
	<path d="M852.4,215.6v0.1c-1.6,1-2.3,4.1-2.3,10.4v11.6c-4.7,3-11.8,5-17.4,5c-14.6,0-24.6-10.2-24.6-24.7c0-16.2,10.5-26,26-26
		c5.1,0,9.7,0.8,13.3,1.9l1,11.4l-0.1,0.1c-3.6-4-8.4-6-14.4-6c-9.8,0-15.5,6.9-15.5,17.9c0,11.1,5.7,18,15,18
		c2.9,0,5.5-0.5,7.7-1.5v-11.4c-3.6,0.1-7.8,0.8-10.4,3.6l-0.1-0.1l1.1-10.7c1.5,0.3,4.1,0.4,8.5,0.4H852.4z"/>
	<path d="M857.2,217.8c0-15.8,9.8-26.2,26-26.2c15,0,25,10.2,25,25.2c0,15.6-10.4,26.3-26,26.3C866.5,243,857.2,232.1,857.2,217.8z
		 M897.8,217.5c0-11.8-5.7-18.6-15.3-18.6c-9.2,0-14.8,7.3-14.8,18.2c0,11.5,5.2,18.7,15.2,18.7
		C891.5,235.8,897.8,228.7,897.8,217.5z"/>
</g>
</svg>
