<?xml version="1.0" encoding="utf-8"?>
<!-- Generator: Adobe Illustrator 26.0.0, SVG Export Plug-In . SVG Version: 6.00 Build 0)  -->
<svg version="1.1" id="Camada_1" xmlns="http://www.w3.org/2000/svg" xmlns:xlink="http://www.w3.org/1999/xlink" x="0px" y="0px"
	 viewBox="0 0 200 130" style="enable-background:new 0 0 200 130;" xml:space="preserve">
<style type="text/css">
	.st0{fill:#E24444;}
	.st1{fill:#EF6262;}
	.st2{fill:none;}
</style>
<g>
	<path class="st0" d="M131.15,107.23c-9.55-4.95-20.33-7.57-31.15-7.57s-21.59,2.62-31.15,7.57l-1.22,0.63l-1.03-0.91
		c-14.95-13.3-33.93-22.13-54.86-25.52l-2.69-0.44l1.22-2.44C27.5,44.24,60.01,18.29,99.47,7.37L100,7.22l0.53,0.15
		c39.46,10.92,71.97,36.87,89.19,71.18l1.22,2.44l-2.69,0.44c-20.94,3.39-39.91,12.21-54.86,25.52l-1.03,0.91L131.15,107.23z"/>
	<path class="st1" d="M67.93,105.45c-14.57-12.96-33.7-22.41-55.87-26C28.24,47.22,59.39,20.54,100,9.3
		c40.61,11.24,71.76,37.92,87.94,70.15c-22.18,3.59-41.3,13.04-55.87,26C112.02,95.06,87.98,95.06,67.93,105.45z"/>
</g>
<g>
	<path class="st2" d="M96.82,13.39c42.06,11.73,74.23,39.45,90.86,72.84c-23.02,3.84-42.86,13.76-57.94,27.32
		c-20.58-10.67-45.27-10.67-65.85,0C48.81,99.98,28.98,90.06,5.96,86.22C22.59,52.84,54.76,25.12,96.82,13.39z"/>
</g>
</svg>
