<?xml version="1.0" encoding="utf-8"?>
<!-- Generator: Adobe Illustrator 26.0.0, SVG Export Plug-In . SVG Version: 6.00 Build 0)  -->
<svg version="1.1" id="Camada_1" xmlns="http://www.w3.org/2000/svg" xmlns:xlink="http://www.w3.org/1999/xlink" x="0px" y="0px"
	 viewBox="0 0 100 100" style="enable-background:new 0 0 100 100;" xml:space="preserve">
<style type="text/css">
	.st0{fill:#B2B2B2;}
	.st1{fill:none;stroke:#000000;stroke-linecap:round;stroke-linejoin:round;stroke-miterlimit:10;}
	.st2{stroke:#000000;stroke-linecap:round;stroke-linejoin:round;stroke-miterlimit:10;}
</style>
<g>
	<g>
		<path class="st0" d="M7.22,46.36c5.98-12.49,22.53-17.06,33.19-7.72c3.23,2.77,5.56,6.47,6.69,10.47l-2.13-0.16
			C55.21,27.5,84.13,29.71,92.42,51.6c1.09,3.19-3.52,4.92-4.79,1.79c-1.29-4.1-3.72-7.87-7.05-10.69
			c-10.84-9.38-27.13-5.27-33.54,7.26c-0.43,0.9-1.84,0.78-2.13-0.16c-2.41-6.88-9.12-12.15-16.4-12.13
			c-7.02-0.14-13.63,4.59-16.18,11C10.77,52.16,5.63,49.87,7.22,46.36L7.22,46.36z"/>
	</g>
	<path class="st1" d="M13.24,46.75"/>
	<path class="st2" d="M9.77,47.53h2.46c0,1.29-1.11,2.36-2.46,2.36s-2.46-1.06-2.46-2.36c0-0.69,0.32-1.35,0.87-1.8L9.77,47.53z"/>
	<path class="st2" d="M89.86,52.26l2.02-1.4c0.74,1.06,0.43,2.57-0.68,3.34c-1.11,0.77-2.63,0.53-3.37-0.53
		c-0.3-0.44-0.44-0.97-0.4-1.51L89.86,52.26z"/>
	<path class="st2" d="M45.94,49.22l0.89,0.45c-0.18,0.35-0.55,0.57-0.94,0.55c-0.39-0.02-0.74-0.27-0.88-0.64L45.94,49.22z"/>
</g>
</svg>
