<?xml version="1.0" encoding="utf-8"?>
<!-- Generator: Adobe Illustrator 26.0.0, SVG Export Plug-In . SVG Version: 6.00 Build 0)  -->
<svg version="1.1" id="Camada_1" xmlns="http://www.w3.org/2000/svg" xmlns:xlink="http://www.w3.org/1999/xlink" x="0px" y="0px"
	 viewBox="0 0 700 150" style="enable-background:new 0 0 700 150;" xml:space="preserve">
<style type="text/css">
	.st0{fill:#AFCA0B;}
	.st1{fill:#F6B4C1;}
	.st2{fill:#66B32E;}
</style>
<g>
	<g>
		<path class="st0" d="M78.5,66.95c0-9.17,1.19-17.14,2.98-21.65c0.01-0.03,0.03-0.06,0.05-0.09c3.23-5,13.58-11.66,16.57-11.66
			c1.95,0,12.01,0.48,18.07,0.96c0.24,0.02,0.42,0.23,0.4,0.47c-0.17,2.42-0.98,14.11-1.14,16.45c-0.02,0.23-0.21,0.41-0.45,0.41
			h-4.58c-0.23,0-0.42-0.17-0.44-0.4l-1.11-9.48c-0.02-0.2-0.16-0.35-0.36-0.39c-3.65-0.66-9.75-1.04-11.88-1.04
			c-1.5,0-2.4,0.2-3.2,0.6c-3.3,1.7-5,10.2-5,22.3c0,20.3,5.9,24.7,12.8,24.7h6.81c0.22,0,0.41-0.17,0.44-0.39l1.6-11.92
			c0.03-0.23,0.22-0.39,0.45-0.39l4.26,0.08c0.24,0,0.44,0.2,0.44,0.44l0.1,16.92c0,0.21-0.13,0.39-0.33,0.44
			c-4.04,0.99-17.01,2.21-18.47,2.21C87.6,95.55,78.5,86.85,78.5,66.95z"/>
		<path class="st0" d="M123.6,73.75c0-6.18,0.99-12.25,2.38-14.87c0.01-0.02,0.02-0.04,0.04-0.06c2.14-3.21,12.49-10.27,14.88-10.27
			c13.5,0,20.4,7.5,20.4,21.2c0,6.75-1.08,12.61-2.17,15.83c-0.02,0.05-0.04,0.09-0.07,0.14c-2.2,2.84-12.27,9.84-14.65,9.84
			C130.7,95.55,123.6,88.95,123.6,73.75z M149.82,87.44c0.12-0.06,0.19-0.16,0.22-0.29c0.7-3.1,1.66-7.78,1.66-16.1
			c0-10.1-3.7-16.6-11.3-16.6c-1.4,0-2.7,0.1-4,0.8c-1.8,1-3.2,7-3.2,17.1c0,14.43,6.24,17.47,11.62,17.5c0.05,0,0.1,0,0.15-0.02
			C145.74,89.56,149.02,87.86,149.82,87.44z"/>
		<path class="st0" d="M172,92.25V56.04c0-0.18-0.11-0.34-0.27-0.41l-2.96-1.27c-0.16-0.07-0.27-0.23-0.27-0.41v-3.03
			c0-0.22,0.15-0.4,0.36-0.44c1.59-0.29,7.95-1.43,8.74-1.43c0.6,0,3.2,2.6,3.2,3.2l0,2.83c0,0.38,0.44,0.59,0.73,0.34
			c3.08-2.62,7.8-6.37,8.17-6.37c6.06,0,10.74,1.58,12.95,6.42c0.13,0.28,0.48,0.37,0.71,0.16c2.86-2.63,7.46-6.58,7.84-6.58
			c9.9,0,15.9,3.8,15.9,16.8v22.61c0,0.18,0.1,0.34,0.27,0.41l2.87,1.26c0.16,0.07,0.27,0.23,0.27,0.41v3.04
			c0,0.21-0.15,0.4-0.36,0.44c-1.58,0.31-7.94,1.53-8.64,1.53c-0.6,0-3.5-2.6-3.5-3.3v-26.4c0-9.6-4.8-9.4-6.3-9.4
			c-0.8,0-6.2,3.01-7.37,3.67c-0.14,0.08-0.23,0.23-0.23,0.39v27.95c0,0.18,0.1,0.34,0.27,0.41l2.87,1.26
			c0.16,0.07,0.27,0.23,0.27,0.41v3.04c0,0.21-0.15,0.4-0.36,0.44c-1.58,0.31-7.94,1.53-8.64,1.53c-0.6,0-3.5-2.6-3.5-3.3v-26.4
			c0-9.6-4.4-9.4-5.8-9.4c-0.89,0-6.62,3.02-7.86,3.67c-0.15,0.08-0.24,0.23-0.24,0.39v27.94c0,0.18,0.1,0.34,0.27,0.41l2.87,1.26
			c0.16,0.07,0.27,0.23,0.27,0.41v3.04c0,0.21-0.15,0.4-0.36,0.44c-1.59,0.31-7.96,1.53-8.74,1.53C174.8,95.55,172,92.95,172,92.25z
			"/>
		<path class="st0" d="M237.8,74.35c0-6.77,0.99-12.85,2.38-15.47c0.01-0.02,0.02-0.04,0.04-0.06c2.14-3.21,12.39-10.27,14.98-10.27
			c9.73,0,15.71,3.35,15.8,21.58c0,0.23-0.18,0.44-0.41,0.46l-22.77,1.93c-0.23,0.02-0.42,0.22-0.41,0.46
			c0.14,12.83,6.53,15.48,9.3,15.48c1.06,0,8.42-0.37,12.45-0.49c0.25-0.01,0.45,0.2,0.45,0.45l0,3.31c0,0.2-0.12,0.37-0.31,0.43
			c-4.85,1.49-13.03,3.4-14.89,3.4C246.2,95.55,237.8,89.05,237.8,74.35z M260.91,66.7c0.22-0.03,0.39-0.23,0.39-0.45
			c-0.06-7.36-1.89-11.7-6.9-11.7c-1.1,0-2.4,0.1-3.8,0.7c-1.75,0.78-2.93,6.93-3,12.69c0,0.27,0.24,0.48,0.51,0.45L260.91,66.7z"/>
		<path class="st0" d="M294.9,88.25h10.85c0.25,0,0.45,0.2,0.45,0.45l0,3.42c0,0.2-0.12,0.37-0.31,0.43c-3.05,0.93-7,1.86-9.88,2.44
			c-0.19,0.04-0.33,0.19-0.35,0.38l-0.46,3.88c0,0,0,0,0,0c4.5,0.6,8.8,3.3,8.8,6.5c0,1.46-0.29,2.93-0.95,4.39
			c-0.03,0.07-0.08,0.13-0.14,0.18c-1.49,1.18-3.91,2.75-12.06,5.99c-0.2,0.08-0.43,0.01-0.55-0.17l-1.64-2.58
			c-0.14-0.22-0.06-0.52,0.17-0.64c4.26-2.26,7.07-3.64,7.07-5.87c0-2-3.5-3.1-6.3-3.4c0,0,0,0,0,0l-0.57-2.27
			c-0.02-0.08-0.02-0.17,0.01-0.25l1.96-5.68c0,0,0,0,0,0c-6.4-0.9-12.7-7.5-12.7-21.1c0-6.57,0.99-12.85,2.38-15.47
			c0.01-0.02,0.02-0.04,0.04-0.06c2.14-3.21,12.09-9.87,14.48-9.87c3.01,0,7.14,0.75,10.67,1.8c0.19,0.06,0.32,0.24,0.32,0.44
			l-0.28,12.02c-0.01,0.24-0.2,0.44-0.45,0.44h-5.3c-0.21,0-0.4-0.15-0.44-0.36l-1.28-6.32c-0.03-0.14-0.11-0.25-0.24-0.31
			c-1.45-0.68-4.09-1.5-6-1.5c-0.5,0-1,0.1-1.4,0.4c-1.9,1.5-2.9,8.7-2.9,17.5C287.9,84.25,292.3,88.25,294.9,88.25z"/>
		<path class="st0" d="M312.7,73.75c0-6.37,0.99-12.04,2.38-14.86c0.01-0.03,0.03-0.05,0.05-0.08c2.16-3.02,12.08-9.86,14.47-9.86
			c1.63,0,13.76,1.75,17.12,2.24c0.22,0.03,0.38,0.22,0.38,0.44l0,36.92c0,0.18,0.11,0.34,0.28,0.41l2.85,1.17
			c0.17,0.07,0.28,0.23,0.28,0.41v3.03c0,0.21-0.14,0.4-0.35,0.44c-1.55,0.31-7.66,1.53-8.45,1.53c-0.5,0-3.4-2.6-3.4-3.3v-2.99
			c0-0.37-0.42-0.58-0.72-0.36c-3.45,2.65-8.63,6.65-9.28,6.65C320.4,95.55,312.7,88.95,312.7,73.75z M338,83.87V56.98
			c0-0.2-0.12-0.37-0.31-0.43c-3.31-0.98-9.75-2.1-11.59-1.81c-2.3,0.4-3.8,4.2-3.8,18.3c0,11.2,4.6,15.1,6.6,15.1
			c0.88,0,6-2.46,8.86-3.88C337.91,84.2,338,84.04,338,83.87z"/>
		<path class="st0" d="M360.6,92.25V55.77c0-0.19-0.12-0.36-0.3-0.42l-2.9-0.99c-0.18-0.06-0.3-0.23-0.3-0.42v-3.01
			c0-0.21,0.15-0.4,0.36-0.44c1.51-0.3,7.36-1.43,8.14-1.43c0.48,0,2.7,1.88,3.61,2.96c0.26,0.31,0.38,0.71,0.36,1.12l-0.1,1.8
			c-0.02,0.42,0.48,0.64,0.77,0.33c3.3-3.48,6.41-6.71,6.96-6.71c1.34,0,4.8,1.01,6.49,1.53c0.14,0.04,0.24,0.14,0.28,0.28
			c0.27,0.86,0.53,2.34,0.53,2.89c0,0.79-1.71,3.99-2.46,4.95c-0.12,0.16-0.33,0.22-0.52,0.15c-1.46-0.57-3.34-1.19-5.03-1.19
			c-0.88,0-3.56,1.33-6.57,3.07c-0.14,0.08-0.23,0.23-0.23,0.39v27.41c0,0.2,0.13,0.37,0.32,0.43l4.46,1.31
			c0.19,0.06,0.32,0.23,0.32,0.43v3.38c0,0.22-0.15,0.41-0.37,0.44c-1.81,0.29-9.63,1.54-10.43,1.54
			C363.4,95.55,360.6,92.95,360.6,92.25z"/>
		<path class="st0" d="M404.4,73.75c0-6.18,0.99-12.25,2.38-14.87c0.01-0.02,0.02-0.04,0.04-0.06c2.14-3.21,12.49-10.27,14.88-10.27
			c13.5,0,20.4,7.5,20.4,21.2c0,6.75-1.08,12.61-2.17,15.83c-0.02,0.05-0.04,0.09-0.07,0.14c-2.2,2.84-12.27,9.84-14.65,9.84
			C411.5,95.55,404.4,88.95,404.4,73.75z M430.62,87.44c0.12-0.06,0.19-0.16,0.22-0.29c0.7-3.1,1.66-7.78,1.66-16.1
			c0-10.1-3.7-16.6-11.3-16.6c-1.4,0-2.7,0.1-4,0.8c-1.8,1-3.2,7-3.2,17.1c0,14.43,6.24,17.47,11.62,17.5c0.05,0,0.1,0,0.15-0.02
			C426.54,89.56,429.82,87.86,430.62,87.44z"/>
		<path class="st0" d="M458,104.2v-3.91c0-0.25,0.2-0.45,0.44-0.45c3.01,0,9.13-0.01,10.56-0.3c3-0.6,3.2-8.4,3.2-11.9V40.48
			c0-0.2-0.13-0.37-0.32-0.43l-5.87-1.81c-0.19-0.06-0.32-0.23-0.32-0.43v-3.02c0-0.25,0.2-0.45,0.45-0.45h21.41
			c0.25,0,0.45,0.2,0.45,0.45v3.02c0,0.2-0.13,0.37-0.32,0.43l-5.87,1.81c-0.19,0.06-0.32,0.23-0.32,0.43v50.37
			c0,6.2-10.4,16.1-13.5,16.1c-1.55,0-6.11-1.41-9.67-2.32C458.13,104.58,458,104.41,458,104.2z"/>
		<path class="st0" d="M495.7,73.75c0-6.18,0.99-12.25,2.38-14.87c0.01-0.02,0.02-0.04,0.04-0.06c2.14-3.21,12.49-10.27,14.88-10.27
			c13.5,0,20.4,7.5,20.4,21.2c0,6.75-1.08,12.61-2.17,15.83c-0.02,0.05-0.04,0.09-0.07,0.14c-2.2,2.84-12.27,9.84-14.65,9.84
			C502.8,95.55,495.7,88.95,495.7,73.75z M521.92,87.44c0.12-0.06,0.19-0.16,0.22-0.29c0.7-3.1,1.66-7.78,1.66-16.1
			c0-10.1-3.7-16.6-11.3-16.6c-1.4,0-2.7,0.1-4,0.8c-1.8,1-3.2,7-3.2,17.1c0,14.43,6.24,17.47,11.62,17.5c0.05,0,0.1,0,0.15-0.02
			C517.84,89.56,521.12,87.86,521.92,87.44z"/>
		<path class="st0" d="M539.74,109.75l0.83-6.73c0.01-0.11,0.06-0.21,0.14-0.28L553,91.65c0,0,0,0,0,0c-5.1,0-11.8-7-11.8-19.9
			c0-3.78,0.69-9.63,2.07-12.84c0.02-0.04,0.04-0.07,0.06-0.11c2.18-2.83,12.28-9.85,14.66-9.85c1.53,0,12.96,1.74,16.13,2.24
			c0.22,0.03,0.37,0.22,0.37,0.44l0,45.12c0,6.6-10.2,16-14.3,16c-4.94,0-15.88-1.59-20.11-2.51
			C539.86,110.19,539.72,109.98,539.74,109.75z M565.7,93.15v-5l-0.5-0.2c-4.4,3.9-14.5,13.6-17.5,16.4v0.6
			c1.9,0.8,12.6,3.2,15.5,3.2C564.7,108.15,565.7,99.75,565.7,93.15z M565.4,82.42V56.97c0-0.19-0.12-0.36-0.3-0.42
			c-3.01-0.98-8.95-2.18-10.4-1.7c-2.8,1-4,7-4,17c0,11.9,5.3,15.2,7.4,15.2c0.9,0,6.05-3.53,7.11-4.27
			C565.33,82.7,565.4,82.56,565.4,82.42z"/>
		<path class="st0" d="M583.79,73.75c0-6.18,0.99-12.25,2.38-14.87c0.01-0.02,0.02-0.04,0.04-0.06
			c2.14-3.21,12.49-10.27,14.88-10.27c13.5,0,20.4,7.5,20.4,21.2c0,6.75-1.08,12.61-2.17,15.83c-0.02,0.05-0.04,0.09-0.07,0.14
			c-2.2,2.84-12.27,9.84-14.65,9.84C590.9,95.55,583.79,88.95,583.79,73.75z M610.02,87.44c0.12-0.06,0.19-0.16,0.22-0.29
			c0.7-3.1,1.66-7.78,1.66-16.1c0-10.1-3.7-16.6-11.3-16.6c-1.4,0-2.7,0.1-4,0.8c-1.8,1-3.2,7-3.2,17.1
			c0,14.43,6.24,17.47,11.62,17.5c0.05,0,0.1,0,0.15-0.02C605.94,89.56,609.21,87.86,610.02,87.44z"/>
	</g>
	<g>
		<path class="st1" d="M96.5,105.55c-13.94,0-28-11.94-28-38.6c0-10.2,1.34-19.44,3.69-25.34c0.25-0.64,0.59-1.31,1-1.92
			c4-6.18,17.07-16.14,24.91-16.14c2.33,0,12.73,0.5,18.87,1c5.68,0.46,9.97,5.46,9.58,11.14l-1.14,16.45
			c-0.38,5.45-4.95,9.72-10.42,9.72h-4.58c-5.3,0-9.76-3.97-10.38-9.23l-0.23-1.93c-0.13-0.01-0.26-0.02-0.39-0.02
			c-0.48,2.23-1,6.2-1,12.79c0,7.14,0.81,10.98,1.49,12.94l0.25-1.87c0.69-5.17,5.15-9.06,10.36-9.06l4.47,0.09
			c5.71,0.12,10.21,4.68,10.24,10.38l0.1,16.92c0.02,4.86-3.25,9.05-7.95,10.21C112.44,104.25,98.68,105.55,96.5,105.55z"/>
		<path class="st1" d="M144.4,105.55c-19.58,0-30.8-11.59-30.8-31.8c0-3.02,0.26-13.36,3.55-19.56l0.19-0.36l0.35-0.55
			c2.77-4.15,15.75-14.73,23.2-14.73c18.75,0,30.4,11.96,30.4,31.2c0,6.93-1.01,14.05-2.71,19.04c-0.39,1.13-0.93,2.14-1.63,3.04
			C164.69,94.77,152,105.55,144.4,105.55z"/>
		<path class="st1" d="M221.5,105.55c-3.56,0-6.24-1.82-8.24-3.57c-1.23,0.91-2.67,1.56-4.25,1.86c-8.79,1.71-9.55,1.71-10.51,1.71
			c-3.56,0-6.24-1.82-8.24-3.57c-1.23,0.91-2.67,1.56-4.25,1.86c-8.8,1.71-9.68,1.71-10.61,1.71c-6.26,0-13.4-7.09-13.4-13.3V61.76
			c-2.19-1.95-3.5-4.77-3.5-7.81v-3.03c0-5.06,3.61-9.38,8.58-10.28c8.79-1.59,9.59-1.59,10.52-1.59c2.01,0,4.11,0.75,6.04,1.97
			c2.61-1.71,4.05-1.97,6.06-1.97c5.95,0,10.43,1.28,13.8,3.19c3.36-2.63,5.13-3.19,7.7-3.19c16.7,0,25.9,9.52,25.9,26.8v16.98
			c2.13,1.94,3.4,4.73,3.4,7.72v3.04c0,5.01-3.57,9.33-8.49,10.26C223.22,105.55,222.46,105.55,221.5,105.55z M184.79,63.43
			L184.79,63.43z"/>
		<path class="st1" d="M254.4,105.55c-12.81,0-26.6-9.76-26.6-31.2c0-4.05,0.35-14.13,3.55-20.16l0.22-0.42l0.29-0.45
			c2.88-4.32,15.69-14.77,23.33-14.77c25.64,0,25.76,23.73,25.8,31.53c0.02,4.2-2.51,7.91-6.15,9.57c2.86,1.87,4.75,5.09,4.75,8.76
			v3.31c0,4.6-2.95,8.61-7.34,9.98C270.17,102.34,258.78,105.55,254.4,105.55z"/>
		<path class="st1" d="M290.68,126.35c-3.6,0-6.9-1.81-8.83-4.85l-1.63-2.57c-1.56-2.46-2.03-5.46-1.29-8.27
			c0.29-1.09,0.75-2.11,1.35-3.04l-0.95-3.82c-0.25-1-0.35-2.01-0.3-3.03c-5.99-4.71-10.73-13.15-10.73-26.43
			c0-3.16,0.26-13.96,3.55-20.16l0.26-0.49l0.28-0.42l0.06-0.1c3.25-4.75,15.67-14.23,22.74-14.23c3.8,0,8.85,0.83,13.52,2.21
			c4.51,1.34,7.58,5.56,7.47,10.27l-0.28,12.01c-0.14,5.72-4.73,10.2-10.44,10.2h-5.3c-0.77,0-1.53-0.09-2.27-0.25
			c0.02,2.29,0.29,3.85,0.55,4.85h7.3c5.76,0,10.45,4.69,10.45,10.45v3.42c0,3.08-1.32,5.89-3.5,7.82c0.85,1.81,1.3,3.77,1.3,5.81
			c0,2.96-0.62,5.83-1.84,8.53c-0.7,1.54-1.76,2.88-3.06,3.9c-2.5,1.98-5.94,4-14.55,7.42C293.3,126.1,292,126.35,290.68,126.35z
			 M299.06,79.81L299.06,79.81z"/>
		<path class="st1" d="M341.7,105.55c-2.7,0-4.85-1.02-6.64-2.33c-2.73,1.79-4.42,2.33-6.76,2.33c-12.33,0-25.6-9.95-25.6-31.8
			c0-3.72,0.33-13.05,3.41-19.29l0.37-0.75l0.54-0.76c2.47-3.46,15.08-14.01,22.58-14.01c0.65,0,2.61,0,18.58,2.35
			c5.08,0.75,8.92,5.19,8.92,10.34v31.19c2.13,1.93,3.4,4.71,3.4,7.73v3.03c0,4.96-3.53,9.27-8.38,10.24
			C343.53,105.55,342.68,105.55,341.7,105.55z"/>
		<path class="st1" d="M364,105.55c-6.26,0-13.4-7.09-13.4-13.3V61.73c-2.18-1.94-3.5-4.76-3.5-7.8v-3.01
			c0-4.99,3.55-9.3,8.44-10.25c8.25-1.62,9.13-1.62,10.06-1.62c1.97,0,3.81,0.63,5.44,1.53c2-1.45,3.78-2.03,6.16-2.03
			c0.99,0,3.05,0,9.45,1.98c3.24,0.99,5.8,3.53,6.85,6.77c0.5,1.57,1.01,4.11,1.01,5.95c0,5.12-4.54,11.05-4.58,11.11
			c-2,2.55-5,4.01-8.23,4.01c-0.67,0-1.34-0.06-1.99-0.19v13.03c3.09,1.85,5.1,5.25,5.1,8.97v3.38c0,5.15-3.69,9.49-8.77,10.31
			C365.63,105.55,364.87,105.55,364,105.55z"/>
		<path class="st1" d="M425.2,105.55c-19.57,0-30.8-11.59-30.8-31.8c0-3.02,0.26-13.36,3.55-19.56l0.26-0.48l0.28-0.43
			c2.77-4.15,15.75-14.73,23.2-14.73c18.75,0,30.4,11.96,30.4,31.2c0,6.93-1.01,14.05-2.7,19.04c-0.39,1.13-0.93,2.14-1.63,3.04
			C445.49,94.77,432.79,105.55,425.2,105.55z"/>
		<path class="st1" d="M468,116.95c-2.34,0-4.88-0.66-9.16-1.83c-1.01-0.28-2.04-0.56-2.98-0.8c-4.62-1.16-7.86-5.33-7.86-10.12
			v-3.91c0-5.74,4.67-10.43,10.41-10.45c1.48,0,2.71-0.01,3.76-0.02c0.03-0.63,0.04-1.36,0.04-2.18V47.49
			c-3.92-1.59-6.5-5.37-6.5-9.67v-3.02c0-5.76,4.69-10.45,10.45-10.45h21.41c5.76,0,10.45,4.69,10.45,10.45v3.02
			c0,4.3-2.58,8.08-6.5,9.67v43.36C491.5,101.58,477.66,116.95,468,116.95z"/>
		<path class="st1" d="M516.5,105.55c-19.58,0-30.8-11.59-30.8-31.8c0-3.02,0.26-13.36,3.55-19.56l0.26-0.48l0.28-0.43
			c2.77-4.15,15.75-14.73,23.21-14.73c18.75,0,30.4,11.96,30.4,31.2c0,6.93-1.01,14.05-2.7,19.04c-0.41,1.18-0.98,2.22-1.72,3.15
			l0,0C536.5,95.01,524,105.55,516.5,105.55z"/>
		<path class="st1" d="M560.2,122.75c-5.96,0-17.78-1.77-22.23-2.74c-5.29-1.14-8.79-6.07-8.15-11.45l0.83-6.77
			c0.29-2.47,1.49-4.78,3.37-6.48l3.13-2.83c-3.59-5.07-5.96-12.1-5.96-20.74c0-3.74,0.61-11.5,2.89-16.79
			c0.34-0.78,0.75-1.5,1.25-2.15l0.08-0.1c2.27-2.94,14.95-13.75,22.59-13.75c2.37,0,12.1,1.48,17.69,2.36
			c5.1,0.8,8.81,5.14,8.81,10.32v45.12C584.5,108.81,569.79,122.75,560.2,122.75z"/>
		<path class="st1" d="M604.6,105.55c-19.57,0-30.8-11.59-30.8-31.8c0-3.02,0.26-13.36,3.55-19.56l0.26-0.48l0.28-0.43
			c2.77-4.15,15.75-14.72,23.2-14.72c18.75,0,30.4,11.96,30.4,31.2c0,6.93-1.01,14.04-2.7,19.04c-0.41,1.18-0.98,2.22-1.72,3.15h0
			C624.6,95.01,612.1,105.55,604.6,105.55z"/>
	</g>
	<g>
		<path class="st2" d="M96.5,100.55c-11.45,0-23-10.39-23-33.6c0-9.59,1.21-18.16,3.33-23.5c0.13-0.34,0.31-0.69,0.53-1.01
			c3.53-5.46,15.29-13.9,20.74-13.9c2.25,0,12.43,0.49,18.47,0.98c2.96,0.24,5.2,2.85,4.99,5.8l-1.14,16.45
			c-0.19,2.84-2.58,5.06-5.43,5.06h-4.58c-2.76,0-5.09-2.07-5.41-4.81l-0.7-5.98c-2.96-0.32-6.29-0.51-7.69-0.51
			c-0.36,0-0.59,0.02-0.74,0.03c-0.82,1.25-2.46,6.19-2.46,17.87c0,19.7,5.47,19.7,7.8,19.7h2.82l1.07-7.97
			c0.36-2.69,2.68-4.72,5.4-4.72l4.37,0.08c2.98,0.06,5.32,2.44,5.34,5.41l0.1,16.92c0.01,2.53-1.69,4.72-4.14,5.32
			C111.78,99.26,98.46,100.55,96.5,100.55z"/>
		<path class="st2" d="M144.4,100.55c-16.88,0-25.8-9.27-25.8-26.8c0-5.37,0.78-13.1,2.97-17.22l0.1-0.18l0.15-0.23
			c2.46-3.7,14.09-12.57,19.09-12.57c16.14,0,25.4,9.55,25.4,26.2c0,7.55-1.26,13.96-2.44,17.43c-0.21,0.59-0.49,1.12-0.85,1.59
			C160.91,91.49,149.4,100.55,144.4,100.55z M139.5,59.48c-0.52,1.56-1.3,5.48-1.3,12.87c0,10.75,3.59,12.25,5.75,12.46
			c0.41-0.2,0.97-0.48,1.66-0.83c0.51-2.63,1.09-6.69,1.09-12.94c0-7.7-2.12-11.6-6.3-11.6C140.02,59.45,139.73,59.46,139.5,59.48z"
			/>
		<path class="st2" d="M221.5,100.55c-3.23,0-8.5-4.64-8.5-8.3v-26.4c0-2.76-0.48-3.92-0.69-4.31c-0.69,0.33-1.8,0.9-3.21,1.66
			v22.29l0.15,0.07c1.97,0.86,3.25,2.82,3.25,4.98v3.04c0,2.61-1.86,4.86-4.42,5.35c-8.34,1.62-9.06,1.62-9.58,1.62
			c-3.23,0-8.5-4.64-8.5-8.3v-26.4c0-2.4-0.32-3.63-0.54-4.2c-0.76,0.34-1.92,0.9-3.36,1.63v22.21l0.15,0.07
			c1.97,0.86,3.25,2.82,3.25,4.98v3.04c0,2.61-1.86,4.86-4.42,5.35c-8.35,1.62-9.15,1.62-9.68,1.62c-3.19,0-8.4-4.64-8.4-8.3v-33.2
			l-0.2-0.08c-2-0.86-3.3-2.82-3.3-5.01v-3.03c0-2.64,1.88-4.89,4.47-5.36c8.35-1.51,9.12-1.51,9.63-1.51
			c1.85,0,4.14,1.45,5.83,3.32c4.21-3.32,5-3.32,6.27-3.32c6.09,0,10.79,1.51,14.04,4.51c5.15-4.51,5.97-4.51,7.46-4.51
			c13.87,0,20.9,7.33,20.9,21.8v19.64l0.15,0.07c1.97,0.86,3.25,2.82,3.25,4.98v3.04c0,2.61-1.86,4.86-4.42,5.35
			C222.74,100.55,222.03,100.55,221.5,100.55z"/>
		<path class="st2" d="M254.4,100.55c-10.4,0-21.6-8.2-21.6-26.2c0-5.91,0.78-13.7,2.97-17.82l0.11-0.21l0.17-0.26
			c2.5-3.75,14-12.52,19.16-12.52c14.49,0,20.71,7.94,20.8,26.55c0.01,2.82-2.18,5.22-4.99,5.46l-18.26,1.55
			c0.87,4.93,3.08,6.29,3.96,6.34c0.39,0,2.55-0.09,4.46-0.18c2.59-0.11,5.68-0.25,7.82-0.31l0.16,0c3,0,5.44,2.44,5.44,5.45v3.31
			c0,2.4-1.54,4.49-3.83,5.2C266.75,98.16,257.34,100.55,254.4,100.55z M253.67,59.58c-0.22,0.71-0.46,1.78-0.66,3.12L256,62.3
			c-0.21-1.22-0.48-1.91-0.68-2.28c-0.23-0.42-0.26-0.48-0.91-0.48C254.14,59.55,253.9,59.56,253.67,59.58z"/>
		<path class="st2" d="M290.68,121.35c-1.88,0-3.6-0.95-4.6-2.53l-1.64-2.57c-0.81-1.28-1.06-2.85-0.67-4.31
			c0.39-1.46,1.37-2.71,2.71-3.43l0.26-0.13l-1.14-0.12l-1.41-5.66c-0.26-1.02-0.21-2.1,0.14-3.1l0.34-0.99
			c-6.02-3.3-11.36-10.82-11.36-24.15c0-5.91,0.78-13.7,2.97-17.82l0.13-0.25l0.19-0.29c2.63-3.95,13.85-12.05,18.61-12.05
			c3.34,0,7.86,0.75,12.1,2.01c2.35,0.7,3.95,2.9,3.89,5.36l-0.28,12.02c-0.07,2.98-2.46,5.32-5.45,5.32h-5.3
			c-2.58,0-4.82-1.83-5.34-4.36l-0.78-3.82c-0.04-0.01-0.07-0.02-0.11-0.03c-0.48,2.02-1.05,6.01-1.05,12.61
			c0,6.61,1.72,9.48,2.54,10.2h10.31c3,0,5.45,2.44,5.45,5.45v3.42c0,2.41-1.55,4.51-3.85,5.21c-0.78,0.24-1.59,0.47-2.4,0.69
			c2.43,1.95,4.05,4.58,4.05,7.73c0,2.24-0.47,4.42-1.4,6.46c-0.37,0.8-0.92,1.5-1.6,2.04c-2.17,1.71-5.26,3.51-13.31,6.71
			C292.05,121.22,291.37,121.35,290.68,121.35z"/>
		<path class="st2" d="M341.7,100.55c-1.84,0-4.44-1.65-6.26-3.74c-4.51,3.36-5.48,3.74-7.14,3.74c-10.25,0-20.6-8.29-20.6-26.8
			c0-7.02,1.08-13.4,2.9-17.07l0.19-0.38l0.29-0.42c2.24-3.14,13.5-11.94,18.53-11.94c2.03,0,13.16,1.61,17.85,2.3
			c2.65,0.39,4.65,2.71,4.65,5.39V85.5l0.03,0.01c2.04,0.83,3.37,2.81,3.37,5.04v3.03c0,2.58-1.84,4.83-4.37,5.34
			C343.03,100.55,342.23,100.55,341.7,100.55z M328.22,59.79c-0.39,1.57-0.92,5.19-0.92,13.26c0,5.39,1.22,8.35,2.11,9.63
			c0.89-0.39,2.12-0.95,3.59-1.65V60.56C331.32,60.22,329.54,59.93,328.22,59.79z"/>
		<path class="st2" d="M364,100.55c-3.19,0-8.4-4.64-8.4-8.3V59.02c-2.1-0.8-3.5-2.83-3.5-5.09v-3.01c0-2.6,1.85-4.85,4.4-5.35
			c7.77-1.52,8.57-1.52,9.1-1.52c2.07,0,4.22,1.57,5.69,2.92c2.88-2.84,4.02-3.42,5.91-3.42c0.63,0,2.29,0,7.97,1.76
			c1.69,0.52,3.02,1.84,3.57,3.52c0.37,1.16,0.77,3.17,0.77,4.42c0,3.11-3.48,7.99-3.52,8.03c-1.04,1.33-2.61,2.09-4.29,2.09
			c-0.68,0-1.35-0.13-1.99-0.38c-1.33-0.52-2.19-0.73-2.74-0.81c-0.43,0.18-1.17,0.52-2.26,1.1v21.33l1.19,0.35
			c2.3,0.67,3.91,2.82,3.91,5.23v3.38c0,2.69-1.92,4.95-4.57,5.38C365.23,100.55,364.49,100.55,364,100.55z"/>
		<path class="st2" d="M425.2,100.55c-16.88,0-25.8-9.27-25.8-26.8c0-5.37,0.78-13.1,2.97-17.22l0.12-0.22l0.17-0.27
			c2.42-3.63,14.05-12.5,19.04-12.5c16.14,0,25.4,9.55,25.4,26.2c0,7.56-1.26,13.96-2.44,17.43c-0.21,0.59-0.49,1.12-0.85,1.59
			C441.7,91.49,430.2,100.55,425.2,100.55z M420.3,59.48c-0.52,1.56-1.3,5.48-1.3,12.87c0,10.75,3.59,12.25,5.75,12.46
			c0.41-0.2,0.97-0.48,1.66-0.82c0.52-2.65,1.09-6.71,1.09-12.94c0-7.7-2.12-11.6-6.3-11.6C420.82,59.45,420.52,59.46,420.3,59.48z"
			/>
		<path class="st2" d="M468,111.95c-1.7,0-3.97-0.6-7.84-1.65c-1.04-0.28-2.09-0.57-3.06-0.82c-2.41-0.6-4.1-2.78-4.1-5.28v-3.91
			c0-2.99,2.43-5.44,5.42-5.45c4.44,0,6.86-0.05,8.19-0.11c0.26-1.06,0.59-3.17,0.59-7.09V43.84l-2.66-0.82
			c-2.3-0.71-3.84-2.8-3.84-5.21v-3.02c0-3,2.44-5.45,5.45-5.45h21.41c3,0,5.45,2.44,5.45,5.45v3.02c0,2.41-1.55,4.5-3.85,5.21
			l-2.65,0.82v47.01C486.5,99.34,474.37,111.95,468,111.95z"/>
		<path class="st2" d="M516.5,100.55c-16.88,0-25.8-9.27-25.8-26.8c0-5.37,0.78-13.1,2.97-17.22l0.12-0.22l0.17-0.27
			c2.42-3.63,14.05-12.5,19.04-12.5c16.14,0,25.4,9.55,25.4,26.2c0,7.55-1.26,13.96-2.44,17.43c-0.21,0.62-0.51,1.16-0.9,1.64
			C533,91.49,521.5,100.55,516.5,100.55z M511.6,59.48c-0.52,1.56-1.3,5.48-1.3,12.87c0,10.75,3.59,12.25,5.75,12.46
			c0.38-0.18,0.92-0.45,1.66-0.83c0.52-2.65,1.09-6.71,1.09-12.94c0-7.7-2.12-11.6-6.3-11.6C512.11,59.45,511.82,59.46,511.6,59.48z
			"/>
		<path class="st2" d="M560.2,117.75c-5.54,0-17.02-1.72-21.17-2.63c-2.75-0.6-4.58-3.16-4.25-5.97l0.83-6.75
			c0.15-1.29,0.78-2.49,1.76-3.38l6.74-6.09c-4.55-4.09-7.92-11.4-7.92-21.19c0-4.36,0.78-10.86,2.48-14.82
			c0.18-0.41,0.4-0.79,0.66-1.13c2.13-2.77,13.63-11.85,18.66-11.85c2.3,0,16.31,2.21,16.91,2.3c2.66,0.42,4.59,2.68,4.59,5.38
			v45.12C579.5,105.82,567.36,117.75,560.2,117.75z M557.24,102.2c0.97,0.2,1.92,0.38,2.77,0.53c0.16-0.99,0.3-2.21,0.42-3.56
			C559.35,100.2,558.27,101.22,557.24,102.2z M556.86,59.83c-0.46,1.33-1.16,4.58-1.16,12.02c0,5.61,1.36,8.48,2.34,9.66
			c0.64-0.39,1.45-0.91,2.36-1.51V60.47C559.13,60.18,557.84,59.95,556.86,59.83z"/>
		<path class="st2" d="M604.6,100.55c-16.88,0-25.8-9.27-25.8-26.8c0-5.37,0.78-13.1,2.97-17.22l0.12-0.22l0.17-0.27
			c2.42-3.63,14.05-12.5,19.04-12.5c16.14,0,25.4,9.55,25.4,26.2c0,7.55-1.26,13.95-2.44,17.43c-0.21,0.62-0.51,1.16-0.9,1.64
			C621.1,91.49,609.6,100.55,604.6,100.55z M599.7,59.48c-0.52,1.56-1.3,5.48-1.3,12.87c0,10.75,3.59,12.25,5.75,12.46
			c0.38-0.18,0.92-0.45,1.66-0.82c0.51-2.65,1.09-6.71,1.09-12.94c0-7.7-2.12-11.6-6.3-11.6C600.21,59.45,599.92,59.46,599.7,59.48z
			"/>
	</g>
	<g>
		<path class="st0" d="M78.5,66.95c0-9.17,1.19-17.14,2.98-21.65c0.01-0.03,0.03-0.06,0.05-0.09c3.23-5,13.58-11.66,16.57-11.66
			c1.95,0,12.01,0.48,18.07,0.96c0.24,0.02,0.42,0.23,0.4,0.47c-0.17,2.42-0.98,14.11-1.14,16.45c-0.02,0.23-0.21,0.41-0.45,0.41
			h-4.58c-0.23,0-0.42-0.17-0.44-0.4l-1.11-9.48c-0.02-0.2-0.16-0.35-0.36-0.39c-3.65-0.66-9.75-1.04-11.88-1.04
			c-1.5,0-2.4,0.2-3.2,0.6c-3.3,1.7-5,10.2-5,22.3c0,20.3,5.9,24.7,12.8,24.7h6.81c0.22,0,0.41-0.17,0.44-0.39l1.6-11.92
			c0.03-0.23,0.22-0.39,0.45-0.39l4.26,0.08c0.24,0,0.44,0.2,0.44,0.44l0.1,16.92c0,0.21-0.13,0.39-0.33,0.44
			c-4.04,0.99-17.01,2.21-18.47,2.21C87.6,95.55,78.5,86.85,78.5,66.95z"/>
		<path class="st0" d="M123.6,73.75c0-6.18,0.99-12.25,2.38-14.87c0.01-0.02,0.02-0.04,0.04-0.06c2.14-3.21,12.49-10.27,14.88-10.27
			c13.5,0,20.4,7.5,20.4,21.2c0,6.75-1.08,12.61-2.17,15.83c-0.02,0.05-0.04,0.09-0.07,0.14c-2.2,2.84-12.27,9.84-14.65,9.84
			C130.7,95.55,123.6,88.95,123.6,73.75z M149.82,87.44c0.12-0.06,0.19-0.16,0.22-0.29c0.7-3.1,1.66-7.78,1.66-16.1
			c0-10.1-3.7-16.6-11.3-16.6c-1.4,0-2.7,0.1-4,0.8c-1.8,1-3.2,7-3.2,17.1c0,14.43,6.24,17.47,11.62,17.5c0.05,0,0.1,0,0.15-0.02
			C145.74,89.56,149.02,87.86,149.82,87.44z"/>
		<path class="st0" d="M172,92.25V56.04c0-0.18-0.11-0.34-0.27-0.41l-2.96-1.27c-0.16-0.07-0.27-0.23-0.27-0.41v-3.03
			c0-0.22,0.15-0.4,0.36-0.44c1.59-0.29,7.95-1.43,8.74-1.43c0.6,0,3.2,2.6,3.2,3.2l0,2.83c0,0.38,0.44,0.59,0.73,0.34
			c3.08-2.62,7.8-6.37,8.17-6.37c6.06,0,10.74,1.58,12.95,6.42c0.13,0.28,0.48,0.37,0.71,0.16c2.86-2.63,7.46-6.58,7.84-6.58
			c9.9,0,15.9,3.8,15.9,16.8v22.61c0,0.18,0.1,0.34,0.27,0.41l2.87,1.26c0.16,0.07,0.27,0.23,0.27,0.41v3.04
			c0,0.21-0.15,0.4-0.36,0.44c-1.58,0.31-7.94,1.53-8.64,1.53c-0.6,0-3.5-2.6-3.5-3.3v-26.4c0-9.6-4.8-9.4-6.3-9.4
			c-0.8,0-6.2,3.01-7.37,3.67c-0.14,0.08-0.23,0.23-0.23,0.39v27.95c0,0.18,0.1,0.34,0.27,0.41l2.87,1.26
			c0.16,0.07,0.27,0.23,0.27,0.41v3.04c0,0.21-0.15,0.4-0.36,0.44c-1.58,0.31-7.94,1.53-8.64,1.53c-0.6,0-3.5-2.6-3.5-3.3v-26.4
			c0-9.6-4.4-9.4-5.8-9.4c-0.89,0-6.62,3.02-7.86,3.67c-0.15,0.08-0.24,0.23-0.24,0.39v27.94c0,0.18,0.1,0.34,0.27,0.41l2.87,1.26
			c0.16,0.07,0.27,0.23,0.27,0.41v3.04c0,0.21-0.15,0.4-0.36,0.44c-1.59,0.31-7.96,1.53-8.74,1.53C174.8,95.55,172,92.95,172,92.25z
			"/>
		<path class="st0" d="M237.8,74.35c0-6.77,0.99-12.85,2.38-15.47c0.01-0.02,0.02-0.04,0.04-0.06c2.14-3.21,12.39-10.27,14.98-10.27
			c9.73,0,15.71,3.35,15.8,21.58c0,0.23-0.18,0.44-0.41,0.46l-22.77,1.93c-0.23,0.02-0.42,0.22-0.41,0.46
			c0.14,12.83,6.53,15.48,9.3,15.48c1.06,0,8.42-0.37,12.45-0.49c0.25-0.01,0.45,0.2,0.45,0.45l0,3.31c0,0.2-0.12,0.37-0.31,0.43
			c-4.85,1.49-13.03,3.4-14.89,3.4C246.2,95.55,237.8,89.05,237.8,74.35z M260.91,66.7c0.22-0.03,0.39-0.23,0.39-0.45
			c-0.06-7.36-1.89-11.7-6.9-11.7c-1.1,0-2.4,0.1-3.8,0.7c-1.75,0.78-2.93,6.93-3,12.69c0,0.27,0.24,0.48,0.51,0.45L260.91,66.7z"/>
		<path class="st0" d="M294.9,88.25h10.85c0.25,0,0.45,0.2,0.45,0.45l0,3.42c0,0.2-0.12,0.37-0.31,0.43c-3.05,0.93-7,1.86-9.88,2.44
			c-0.19,0.04-0.33,0.19-0.35,0.38l-0.46,3.88c0,0,0,0,0,0c4.5,0.6,8.8,3.3,8.8,6.5c0,1.46-0.29,2.93-0.95,4.39
			c-0.03,0.07-0.08,0.13-0.14,0.18c-1.49,1.18-3.91,2.75-12.06,5.99c-0.2,0.08-0.43,0.01-0.55-0.17l-1.64-2.58
			c-0.14-0.22-0.06-0.52,0.17-0.64c4.26-2.26,7.07-3.64,7.07-5.87c0-2-3.5-3.1-6.3-3.4c0,0,0,0,0,0l-0.57-2.27
			c-0.02-0.08-0.02-0.17,0.01-0.25l1.96-5.68c0,0,0,0,0,0c-6.4-0.9-12.7-7.5-12.7-21.1c0-6.57,0.99-12.85,2.38-15.47
			c0.01-0.02,0.02-0.04,0.04-0.06c2.14-3.21,12.09-9.87,14.48-9.87c3.01,0,7.14,0.75,10.67,1.8c0.19,0.06,0.32,0.24,0.32,0.44
			l-0.28,12.02c-0.01,0.24-0.2,0.44-0.45,0.44h-5.3c-0.21,0-0.4-0.15-0.44-0.36l-1.28-6.32c-0.03-0.14-0.11-0.25-0.24-0.31
			c-1.45-0.68-4.09-1.5-6-1.5c-0.5,0-1,0.1-1.4,0.4c-1.9,1.5-2.9,8.7-2.9,17.5C287.9,84.25,292.3,88.25,294.9,88.25z"/>
		<path class="st0" d="M312.7,73.75c0-6.37,0.99-12.04,2.38-14.86c0.01-0.03,0.03-0.05,0.05-0.08c2.16-3.02,12.08-9.86,14.47-9.86
			c1.63,0,13.76,1.75,17.12,2.24c0.22,0.03,0.38,0.22,0.38,0.44l0,36.92c0,0.18,0.11,0.34,0.28,0.41l2.85,1.17
			c0.17,0.07,0.28,0.23,0.28,0.41v3.03c0,0.21-0.14,0.4-0.35,0.44c-1.55,0.31-7.66,1.53-8.45,1.53c-0.5,0-3.4-2.6-3.4-3.3v-2.99
			c0-0.37-0.42-0.58-0.72-0.36c-3.45,2.65-8.63,6.65-9.28,6.65C320.4,95.55,312.7,88.95,312.7,73.75z M338,83.87V56.98
			c0-0.2-0.12-0.37-0.31-0.43c-3.31-0.98-9.75-2.1-11.59-1.81c-2.3,0.4-3.8,4.2-3.8,18.3c0,11.2,4.6,15.1,6.6,15.1
			c0.88,0,6-2.46,8.86-3.88C337.91,84.2,338,84.04,338,83.87z"/>
		<path class="st0" d="M360.6,92.25V55.77c0-0.19-0.12-0.36-0.3-0.42l-2.9-0.99c-0.18-0.06-0.3-0.23-0.3-0.42v-3.01
			c0-0.21,0.15-0.4,0.36-0.44c1.51-0.3,7.36-1.43,8.14-1.43c0.48,0,2.7,1.88,3.61,2.96c0.26,0.31,0.38,0.71,0.36,1.12l-0.1,1.8
			c-0.02,0.42,0.48,0.64,0.77,0.33c3.3-3.48,6.41-6.71,6.96-6.71c1.34,0,4.8,1.01,6.49,1.53c0.14,0.04,0.24,0.14,0.28,0.28
			c0.27,0.86,0.53,2.34,0.53,2.89c0,0.79-1.71,3.99-2.46,4.95c-0.12,0.16-0.33,0.22-0.52,0.15c-1.46-0.57-3.34-1.19-5.03-1.19
			c-0.88,0-3.56,1.33-6.57,3.07c-0.14,0.08-0.23,0.23-0.23,0.39v27.41c0,0.2,0.13,0.37,0.32,0.43l4.46,1.31
			c0.19,0.06,0.32,0.23,0.32,0.43v3.38c0,0.22-0.15,0.41-0.37,0.44c-1.81,0.29-9.63,1.54-10.43,1.54
			C363.4,95.55,360.6,92.95,360.6,92.25z"/>
		<path class="st0" d="M404.4,73.75c0-6.18,0.99-12.25,2.38-14.87c0.01-0.02,0.02-0.04,0.04-0.06c2.14-3.21,12.49-10.27,14.88-10.27
			c13.5,0,20.4,7.5,20.4,21.2c0,6.75-1.08,12.61-2.17,15.83c-0.02,0.05-0.04,0.09-0.07,0.14c-2.2,2.84-12.27,9.84-14.65,9.84
			C411.5,95.55,404.4,88.95,404.4,73.75z M430.62,87.44c0.12-0.06,0.19-0.16,0.22-0.29c0.7-3.1,1.66-7.78,1.66-16.1
			c0-10.1-3.7-16.6-11.3-16.6c-1.4,0-2.7,0.1-4,0.8c-1.8,1-3.2,7-3.2,17.1c0,14.43,6.24,17.47,11.62,17.5c0.05,0,0.1,0,0.15-0.02
			C426.54,89.56,429.82,87.86,430.62,87.44z"/>
		<path class="st0" d="M458,104.2v-3.91c0-0.25,0.2-0.45,0.44-0.45c3.01,0,9.13-0.01,10.56-0.3c3-0.6,3.2-8.4,3.2-11.9V40.48
			c0-0.2-0.13-0.37-0.32-0.43l-5.87-1.81c-0.19-0.06-0.32-0.23-0.32-0.43v-3.02c0-0.25,0.2-0.45,0.45-0.45h21.41
			c0.25,0,0.45,0.2,0.45,0.45v3.02c0,0.2-0.13,0.37-0.32,0.43l-5.87,1.81c-0.19,0.06-0.32,0.23-0.32,0.43v50.37
			c0,6.2-10.4,16.1-13.5,16.1c-1.55,0-6.11-1.41-9.67-2.32C458.13,104.58,458,104.41,458,104.2z"/>
		<path class="st0" d="M495.7,73.75c0-6.18,0.99-12.25,2.38-14.87c0.01-0.02,0.02-0.04,0.04-0.06c2.14-3.21,12.49-10.27,14.88-10.27
			c13.5,0,20.4,7.5,20.4,21.2c0,6.75-1.08,12.61-2.17,15.83c-0.02,0.05-0.04,0.09-0.07,0.14c-2.2,2.84-12.27,9.84-14.65,9.84
			C502.8,95.55,495.7,88.95,495.7,73.75z M521.92,87.44c0.12-0.06,0.19-0.16,0.22-0.29c0.7-3.1,1.66-7.78,1.66-16.1
			c0-10.1-3.7-16.6-11.3-16.6c-1.4,0-2.7,0.1-4,0.8c-1.8,1-3.2,7-3.2,17.1c0,14.43,6.24,17.47,11.62,17.5c0.05,0,0.1,0,0.15-0.02
			C517.84,89.56,521.12,87.86,521.92,87.44z"/>
		<path class="st0" d="M539.74,109.75l0.83-6.73c0.01-0.11,0.06-0.21,0.14-0.28L553,91.65c0,0,0,0,0,0c-5.1,0-11.8-7-11.8-19.9
			c0-3.78,0.69-9.63,2.07-12.84c0.02-0.04,0.04-0.07,0.06-0.11c2.18-2.83,12.28-9.85,14.66-9.85c1.53,0,12.96,1.74,16.13,2.24
			c0.22,0.03,0.37,0.22,0.37,0.44l0,45.12c0,6.6-10.2,16-14.3,16c-4.94,0-15.88-1.59-20.11-2.51
			C539.86,110.19,539.72,109.98,539.74,109.75z M565.7,93.15v-5l-0.5-0.2c-4.4,3.9-14.5,13.6-17.5,16.4v0.6
			c1.9,0.8,12.6,3.2,15.5,3.2C564.7,108.15,565.7,99.75,565.7,93.15z M565.4,82.42V56.97c0-0.19-0.12-0.36-0.3-0.42
			c-3.01-0.98-8.95-2.18-10.4-1.7c-2.8,1-4,7-4,17c0,11.9,5.3,15.2,7.4,15.2c0.9,0,6.05-3.53,7.11-4.27
			C565.33,82.7,565.4,82.56,565.4,82.42z"/>
		<path class="st0" d="M583.79,73.75c0-6.18,0.99-12.25,2.38-14.87c0.01-0.02,0.02-0.04,0.04-0.06
			c2.14-3.21,12.49-10.27,14.88-10.27c13.5,0,20.4,7.5,20.4,21.2c0,6.75-1.08,12.61-2.17,15.83c-0.02,0.05-0.04,0.09-0.07,0.14
			c-2.2,2.84-12.27,9.84-14.65,9.84C590.9,95.55,583.79,88.95,583.79,73.75z M610.02,87.44c0.12-0.06,0.19-0.16,0.22-0.29
			c0.7-3.1,1.66-7.78,1.66-16.1c0-10.1-3.7-16.6-11.3-16.6c-1.4,0-2.7,0.1-4,0.8c-1.8,1-3.2,7-3.2,17.1
			c0,14.43,6.24,17.47,11.62,17.5c0.05,0,0.1,0,0.15-0.02C605.94,89.56,609.21,87.86,610.02,87.44z"/>
	</g>
</g>
</svg>
