<?xml version="1.0" encoding="utf-8"?>
<!-- Generator: Adobe Illustrator 26.0.0, SVG Export Plug-In . SVG Version: 6.00 Build 0)  -->
<svg version="1.1" id="Camada_1" xmlns="http://www.w3.org/2000/svg" xmlns:xlink="http://www.w3.org/1999/xlink" x="0px" y="0px"
	 viewBox="0 0 300 400" style="enable-background:new 0 0 300 400;" xml:space="preserve">
<style type="text/css">
	.st0{fill:#F8C68C;}
	.st1{fill:#B38F4A;}
	.st2{fill:#8AC1EA;}
	.st3{fill:none;stroke:#60A8D7;stroke-width:1.671;stroke-linecap:round;stroke-linejoin:round;stroke-miterlimit:10;}
	.st4{fill:none;stroke:#000000;stroke-width:0.8355;stroke-linecap:round;stroke-linejoin:round;stroke-miterlimit:10;}
	.st5{fill:none;stroke:#7A6F65;stroke-width:1.671;stroke-miterlimit:10;}
	.st6{fill:none;stroke:#000000;stroke-width:2.5065;stroke-linecap:round;stroke-linejoin:round;stroke-miterlimit:10;}
	.st7{fill:#61ABDF;}
	.st8{fill:#E3F1FC;}
	.st9{fill:#FDC736;}
	.st10{fill:none;stroke:#FFFFFF;stroke-width:2.5065;stroke-miterlimit:10;}
	.st11{fill:none;stroke:#000000;stroke-width:0.8355;stroke-miterlimit:10;}
	.st12{fill:none;stroke:#000000;stroke-width:2.5065;stroke-miterlimit:10;}
	.st13{fill:#F1880C;}
	.st14{fill:#F6B6C7;}
	.st15{fill:#ED6E9D;}
</style>
<g>
	<g>
		<path class="st0" d="M64.24,195.25l2.69,18.73c0,1.06,4.92,1.92,10.98,1.92s10.98-0.86,10.98-1.92l2.69-18.73"/>
		<path class="st1" d="M91.59,195.25c0,1.06-6.12,1.92-13.67,1.92s-13.67-0.86-13.67-1.92c0-1.06,6.12-1.92,13.67-1.92
			S91.59,194.19,91.59,195.25z"/>
		<path class="st2" d="M136.03,86.37c-4.94-11.03-13.5-20.54-23.97-26.68c-11.26-6.6-24.74-9.13-37.7-7.99
			c-6.36,0.56-12.73,1.91-18.81,4.05c-14.75,4.65-27,15.29-34.94,28.73c-9.68,16.37-8.07,36.91,1.57,52.91
			c2.51,4.17,5.5,8,8.84,11.49c7.39,9.82,16.49,18.61,25.98,26.2c0.05,0.04,0.1,0.07,0.15,0.11c3.21,5.66,11.52,4.74,17.05,4.96
			c3.55,0.14,7.11,0.28,10.66,0.42c3.45,0.13,6.84,0.11,9.74-2.03c0.26-0.2,0.51-0.4,0.76-0.62c0.46-0.18,0.88-0.46,1.2-0.86
			c7.75-9.59,18.32-16.9,26.46-26.04c7.68-6.75,13.93-14.41,16.55-24.75C142.92,113.04,141.61,98.84,136.03,86.37z"/>
		<path class="st3" d="M70.16,148.58c0.53,5.35,1.22,10.68,2.06,16c0.82,5.17,1.93,10.34,1.97,15.59"/>
		<path class="st3" d="M69.19,103.65c-0.39,7.9-0.52,15.82-0.33,23.73"/>
		<path class="st3" d="M77.61,51.28c-5.47,7.66-6.84,25.43-6.84,25.43"/>
		<path class="st3" d="M83.61,158.07c-1.11,7.3-1.8,14.57-2.22,21.94"/>
		<path class="st3" d="M87.84,116.44c-0.47,8.54-1.15,17.07-2.09,25.58"/>
		<path class="st3" d="M79.3,52.25c4.99,12.34,7.52,25.53,8.5,38.6"/>
		<path class="st3" d="M62.1,157.7c2.55,7.25,5,14.59,6,22.19"/>
		<path class="st3" d="M52.18,117.13c0.17,7.99,1.59,15.89,4.06,23.55"/>
		<path class="st3" d="M74.36,51.71C67.58,54.23,63.53,60.35,60.49,66c-4.05,8.48-7.09,16.95-7.77,26.1"/>
		<path class="st3" d="M46.71,149.64c5.61,9.78,14.87,18.54,17.36,29.64"/>
		<path class="st3" d="M33.47,104.48c-0.16,8.67,1.41,17.3,4.21,25.55"/>
		<path class="st3" d="M69.67,52.49c-10.39,1.73-19.66,9.7-25.13,17.66c-2.08,3.03-3.82,6.27-5.32,9.58"/>
		<path class="st3" d="M94.32,150.83c-3.15,9.5-5.87,19.16-7.07,29.06"/>
		<path class="st3" d="M106.78,102.43c0.31,9.7-2.15,18.79-5.37,27.92"/>
		<path class="st3" d="M81,51.65c3.8,1.64,6.84,4.47,9.88,7.29c5.06,6.12,9.11,12.24,11.69,19.22"/>
		<path class="st4" d="M90.8,179.86"/>
		<path class="st3" d="M100.05,160.48c-3.75,6.14-7.06,12.6-9.24,19.38"/>
		<path class="st3" d="M123.67,118.04c-2.38,9.81-7.7,18.62-13.4,27.06"/>
		<path class="st3" d="M86.73,52.01c11.74,3.63,21.87,10.23,28.45,20.12c4.56,6.59,7.09,13.19,8.62,20.48"/>
		<path class="st5" d="M59.47,178.03c0,0,3.39,7.1,5.03,16.79"/>
		<path class="st5" d="M96.55,177.08c0,0-4.45,11.69-5.31,17.42"/>
		<path class="st5" d="M71.45,180.29c0,0,1.78,8.19,1.61,16.67"/>
		<path class="st5" d="M84.47,181.1c0,0-1.65,8.23-1.48,15.82"/>
		<path class="st6" d="M64.24,195.25"/>
		<path class="st7" d="M98.58,175.65c-10.83,0.87-21.56,0.93-32.3,0.22c-3.05-0.2-6.09-0.47-9.14-0.8c-0.26-0.03-0.43,0.07-0.5,0.2
			c-0.2,0.04-0.36,0.15-0.3,0.33c0.31,0.95,0.69,1.9,1.14,2.83c0.23,0.48,0.48,0.95,0.75,1.43c0.12,0.21,0.24,0.42,0.37,0.63
			c0.13,0.21,0.24,0.52,0.46,0.7c0.19,0.16,0.46,0.18,0.73,0.22c0.38,0.07,0.76,0.14,1.14,0.2c0.76,0.13,1.53,0.25,2.29,0.37
			c1.53,0.23,3.07,0.42,4.61,0.58c6.17,0.63,12.42,0.71,18.61,0.22c3.53-0.28,7.04-0.73,10.52-1.37c0.25-0.04,0.39-0.17,0.45-0.33
			c0.61-1.69,1.19-3.39,1.72-5.09C99.22,175.75,98.86,175.63,98.58,175.65z"/>
	</g>
	<g>
		<g>
			<path class="st8" d="M69.78,101.47c2.82,1.84,5.62,3.7,8.39,5.58c1.69,1.14,3.36,2.29,5.03,3.44c0.82,0.56,1.63,1.13,2.44,1.7
				c0.41,0.28,0.81,0.57,1.22,0.85c0.05,0.04,0.32,0.23,0.62,0.44c0.06-1.22,0.12-2.45,0.17-3.71c0.26-6.12,0.13-11.9-0.24-17.26
				c-5.54-4.46-10.36-8.74-16.44-12.81c-0.27,2.86-0.5,5.99-0.66,9.41C70.1,93.39,69.92,97.51,69.78,101.47z"/>
			<path class="st8" d="M88.66,109.79c-0.07,1.66-0.15,3.29-0.23,4.88c0.18-0.01,0.35-0.08,0.48-0.22c0.16-0.17,1.32-1.4,1.87-1.78
				c0.81-0.57,1.62-1.14,2.42-1.72c1.64-1.18,3.25-2.39,4.85-3.62c2.79-2.15,5.51-4.38,8.18-6.69c-0.24-7.49-1.45-13.91-3.16-19.36
				c-5.24,4.95-8.6,7.96-14.46,12.17c-0.04-0.03-0.09-0.07-0.13-0.1C88.81,98.48,88.91,103.98,88.66,109.79z"/>
			<path class="st8" d="M52.57,115.28c0.03-0.02,0.06-0.03,0.08-0.06c5.04-4.99,15.92-14.54,16.13-14.41
				c0.14-3.77,0.31-7.69,0.51-11.77c0.17-3.57,0.41-6.83,0.7-9.8c-0.1,0.02-0.2,0.06-0.28,0.13C64.5,83.87,58.34,88.41,53.12,93
				C52.11,100.73,52.1,108.37,52.57,115.28z"/>
			<path class="st8" d="M34,103.03c6.15,3.66,12,7.64,17.54,11.92c-0.43-6.52-0.42-13.67,0.44-20.92
				c-0.22,0.2-7.95-8.17-13.04-12.33c-2.73,6.49-3.9,11.73-3.92,11.82C35,93.57,34.15,97.02,34,103.03z"/>
			<path class="st8" d="M123.43,115.79c0.05,0.07,0.12,0.13,0.2,0.18c1.49-7.22,1.49-14.44,0.02-21.64
				c-5.94-5.26-12.22-9.42-19.4-13.67c-0.09-0.05-0.23-0.08-0.35-0.07c1.75,5.43,2.99,11.81,3.3,19.25
				C113.57,104.34,119.05,109.74,123.43,115.79z"/>
			<path class="st8" d="M139.22,93.49c0.03-0.02,0.07-0.04,0.1-0.06c0.55-0.34-0.76-0.68-0.89-0.6c-0.62-2.2-1.16-3.41-1.2-3.38
				c-4.24,2.57-12.22,6.13-12.34,6.02c1.22,6.77,1.15,13.57-0.21,20.36c4.51-1.45,8.91-5.12,13-7.35c1.01-0.55,2.13-1.1,3.02-1.82
				C141.55,105.99,139.62,96.24,139.22,93.49z"/>
			<path class="st8" d="M38.05,81.22c-0.09,0.01-0.17,0.03-0.24,0.08c-7.63,5.13-17.54,13.71-24,20.04
				c-0.29-0.17-0.46,5.71-0.27,8.66c0.12,1.83,0.31,3.66,0.59,5.48c0.09,0.6,0.27,1.28,0.65,1.76
				c-0.38,0.47,17.85-15.01,18.22-14.79c0.18-5.71,0.98-8.94,1.02-9.12C34.04,93.23,35.24,87.86,38.05,81.22z"/>
			<path class="st8" d="M68.03,129.3c-3.83,4.24-7.45,8.63-10.88,13.15c0.15,0.53,0.24,0.83,0.25,0.86
				c0.19,0.47,2.19,5.53,4.45,11.88c0.01-0.01,0.02-0.02,0.03-0.03c2.13-3.32,4.58-6.44,7.32-9.35c-0.45-5.31-0.71-10.81-0.82-16.64
				C68.25,129.16,68.12,129.2,68.03,129.3z"/>
			<path class="st8" d="M100.64,132.46c-4.57,4.21-9.46,8.12-14.62,11.68c-0.49,4.21-0.98,7.9-1.44,11.11
				c3.36-2.01,6.59-4.19,9.69-6.52c0.88-2.47,1.85-4.92,2.92-7.29C98.52,138.49,99.66,135.46,100.64,132.46z"/>
			<path class="st8" d="M101.49,159.11c0.06,0,0.12,0,0.18-0.02c2.33-0.88,4.72-1.61,7.15-2.18c2.37-0.56,4.78-0.82,7.18-1.27
				c1.06-0.2,2.11-0.5,3.04-1.04c0.95-0.55,1.74-1.28,2.51-2.02c1.78-1.7,3.54-3.42,5.27-5.17c1.95-1.97,3.86-3.97,5.74-5.99
				c0.31-0.34,0.02-0.93-0.49-0.79c-7.55,2.08-15.04,4.31-22.48,6.69c-1.41,2.08-2.69,3.92-3.83,5.49
				C104.25,154.89,102.83,156.99,101.49,159.11z"/>
			<path class="st8" d="M69.4,129.85c0.12,5.74,0.39,11.16,0.85,16.39c4.49,2.93,8.82,6.05,12.97,9.39c0.07,0.06,0.17,0.1,0.26,0.12
				c0.45-3.16,0.95-6.81,1.44-10.98C80.14,139.46,74.95,134.47,69.4,129.85z"/>
			<path class="st8" d="M108.24,147.53l-6.59-14.93c-1,3.07-2.16,6.18-3.52,9.2c-0.92,2.05-1.78,4.17-2.56,6.31
				c1.93,3.31,3.69,6.71,5.26,10.18c1.29-2.02,2.65-4.03,4.08-6.01C105.91,150.91,107.02,149.31,108.24,147.53z"/>
			<path class="st8" d="M37.5,131.28c0,0-0.01,0.01-0.01,0.01c-3.58,5.14-6.43,10.71-8.47,16.53c-0.18,0.51,0.57,0.76,0.88,0.41
				c2.18,4.14,5.29,7.83,9.11,10.77c0.31,0.24,0.7,0.14,0.85-0.21c1.56-3.82,3.33-7.57,5.28-11.23c-0.37-0.64-0.74-1.28-1.11-1.93
				C41.37,140.96,39.2,136.17,37.5,131.28z"/>
			<path class="st8" d="M56.39,143.44c-0.02,0.03-0.04,0.05-0.06,0.08c-6.35-3.4-12.28-7.43-17.69-12.03
				c1.66,4.67,3.75,9.24,6.28,13.7c0.46,0.81,0.91,1.6,1.37,2.38c4.92,2.31,9.74,4.8,14.43,7.49c-2.27-6.36-4.24-11.35-4.29-11.47
				C56.43,143.59,56.41,143.53,56.39,143.44z"/>
		</g>
	</g>
</g>
<g>
	<path class="st0" d="M187.76,330.72l3.08,20.25c0,1.14,5.62,2.07,12.56,2.07s12.56-0.93,12.56-2.07l3.08-20.25"/>
	<ellipse class="st1" cx="203.4" cy="330.72" rx="15.64" ry="2.07"/>
	<g>
		<path class="st9" d="M269.88,213.01c-5.65-11.93-15.44-22.21-27.42-28.84c-12.88-7.13-28.3-9.87-43.12-8.63
			c-7.27,0.61-14.56,2.06-21.52,4.38c-16.88,5.03-30.88,16.53-39.97,31.06c-11.07,17.69-9.24,39.91,1.79,57.21
			c2.88,4.51,6.29,8.65,10.12,12.43c8.46,10.62,18.87,20.12,29.71,28.32c0.06,0.04,0.12,0.08,0.17,0.12
			c3.67,6.12,13.18,5.13,19.5,5.36c4.07,0.15,8.13,0.31,12.2,0.45c3.95,0.14,7.83,0.11,11.14-2.2c0.3-0.21,0.59-0.44,0.87-0.67
			c0.53-0.19,1.01-0.5,1.38-0.93c8.86-10.37,20.95-18.27,30.27-28.15c8.79-7.3,15.93-15.58,18.93-26.75
			C277.76,241.85,276.26,226.49,269.88,213.01z"/>
		<path class="st10" d="M203.05,175.08c0,0-7.3,8.25-8.94,40.85c-1.64,32.6-1.79,54.46,1.64,75.15c3.43,20.68,3.39,23.35,3.39,23.35
			"/>
		<path class="st10" d="M204.99,176.13c0,0,11.77,25.14,10.13,62.19c-1.64,37.05-6.26,56.82-6.85,63.89
			c-0.6,7.07-0.89,12.04-0.89,12.04"/>
		<path class="st10" d="M199.34,175.54c0,0-15.35,4.25-23.09,35.28s3.13,63.89,3.13,63.89s12.51,29.85,12.81,39.41"/>
		<path class="st10" d="M193.97,176.39c0,0-12.36,1.7-24.13,13.62c-11.77,11.91-16.09,30.63-16.09,30.63s-1.74,6.45-1.01,17.48
			c0.89,13.54,5.2,26.73,12.4,38.72c3.38,5.63,7.79,12.5,12.59,18.81c10.57,13.88,9.83,17.8,9.83,17.8"/>
		<path class="st10" d="M206.92,175.47c0,0,30.24,13.62,29.49,57.6c0,0-1.64,21.21-10.43,39.67c-8.79,18.46-11.92,41.37-11.92,41.37
			"/>
		<path class="st11" d="M218.14,314.08"/>
		<path class="st10" d="M213.48,175.86c0,0,27.87,7.03,37.53,30.37c0.4,0.96,0.77,1.89,1.13,2.82c7.86,20.13,5.54,42.29-6.78,60.61
			c-0.1,0.15-0.21,0.31-0.31,0.46c-4.85,7.12-8.15,11.64-10.3,14.44c-5.01,6.53-9.37,13.44-12.89,20.68
			c-1.42,2.92-2.74,5.95-3.72,8.84"/>
		<path class="st5" d="M182.3,312.1c0,0,3.87,7.68,5.76,18.15"/>
		<path class="st5" d="M224.72,311.08c0,0-5.09,12.63-6.08,18.83"/>
		<path class="st5" d="M196,314.55c0,0,2.04,8.86,1.84,18.02"/>
		<path class="st5" d="M210.9,315.42c0,0-1.89,8.9-1.69,17.11"/>
		<path class="st12" d="M187.76,330.72"/>
		<path class="st13" d="M227.04,309.54c-12.39,0.94-24.66,1.01-36.94,0.24c-3.48-0.22-6.97-0.5-10.46-0.86
			c-0.3-0.03-0.49,0.08-0.57,0.22c-0.23,0.05-0.41,0.16-0.34,0.36c0.36,1.03,0.79,2.05,1.3,3.06c0.26,0.52,0.55,1.03,0.86,1.54
			c0.14,0.23,0.28,0.45,0.42,0.68c0.15,0.23,0.28,0.56,0.53,0.76c0.22,0.17,0.53,0.19,0.83,0.24c0.44,0.08,0.87,0.15,1.31,0.22
			c0.87,0.14,1.75,0.27,2.62,0.4c1.75,0.25,3.51,0.45,5.28,0.62c7.06,0.68,14.2,0.76,21.29,0.24c4.04-0.3,8.05-0.79,12.03-1.48
			c0.28-0.05,0.45-0.18,0.52-0.35c0.7-1.83,1.36-3.67,1.97-5.51C227.77,309.64,227.36,309.51,227.04,309.54z"/>
	</g>
</g>
<g>
	<path class="st0" d="M204.55,108.19l1.6,11.55c0,0.65,2.93,1.18,6.54,1.18c3.61,0,6.54-0.53,6.54-1.18l1.6-11.55"/>
	<ellipse class="st1" cx="212.69" cy="108.19" rx="8.14" ry="1.18"/>
	<g>
		<path class="st14" d="M247.31,41.04c-2.94-6.81-8.04-12.67-14.28-16.46c-6.71-4.07-14.73-5.63-22.45-4.93
			c-3.79,0.35-7.58,1.18-11.2,2.5c-8.79,2.87-16.08,9.43-20.81,17.72c-5.77,10.09-4.81,22.77,0.93,32.64
			c1.5,2.57,3.28,4.93,5.27,7.09c4.4,6.06,9.82,11.48,15.47,16.16c0.03,0.02,0.06,0.05,0.09,0.07c1.91,3.49,6.86,2.93,10.15,3.06
			c2.12,0.09,4.23,0.17,6.35,0.26c2.06,0.08,4.08,0.07,5.8-1.25c0.16-0.12,0.31-0.25,0.45-0.38c0.28-0.11,0.53-0.28,0.72-0.53
			c4.61-5.92,10.91-10.42,15.76-16.06c4.58-4.16,8.3-8.89,9.86-15.26C251.41,57.49,250.63,48.73,247.31,41.04z"/>
		<path class="st10" d="M212.51,19.39c0,0-3.8,4.71-4.65,23.3c-0.85,18.6-0.93,31.07,0.85,42.87c1.78,11.8,1.76,13.32,1.76,13.32"/>
		<path class="st10" d="M213.52,19.99c0,0,6.13,14.34,5.27,35.48c-0.85,21.14-3.26,32.42-3.57,36.45c-0.31,4.03-0.47,6.87-0.47,6.87
			"/>
		<path class="st10" d="M210.58,19.66c0,0-7.99,2.43-12.02,20.13c-4.03,17.7,1.63,36.45,1.63,36.45s6.51,17.03,6.67,22.48"/>
		<path class="st10" d="M207.78,20.14c0,0-6.44,0.97-12.56,7.77c-6.13,6.8-8.38,17.48-8.38,17.48s-0.91,3.68-0.53,9.97
			c0.46,7.72,2.71,15.25,6.46,22.09c1.76,3.21,4.05,7.13,6.56,10.73c5.51,7.92,5.12,10.16,5.12,10.16"/>
		<path class="st10" d="M214.53,19.62c0,0,15.74,7.77,15.35,32.87c0,0-0.85,12.1-5.43,22.63c-4.58,10.53-6.2,23.6-6.2,23.6"/>
		<path class="st11" d="M220.37,98.7"/>
		<path class="st10" d="M217.94,19.84c0,0,14.51,4.01,19.54,17.33c0.21,0.55,0.4,1.08,0.59,1.61c4.09,11.48,2.88,24.13-3.53,34.58
			c-0.05,0.09-0.11,0.18-0.16,0.26c-2.52,4.06-4.24,6.64-5.36,8.24c-2.61,3.73-4.88,7.67-6.71,11.8c-0.74,1.67-1.43,3.39-1.94,5.04"
			/>
		<path class="st5" d="M201.71,97.57c0,0,2.02,4.38,3,10.36"/>
		<path class="st5" d="M223.79,96.99c0,0-2.65,7.21-3.17,10.74"/>
		<path class="st5" d="M208.84,98.97c0,0,1.06,5.05,0.96,10.28"/>
		<path class="st5" d="M216.6,99.47c0,0-0.98,5.08-0.88,9.76"/>
		<path class="st12" d="M204.55,108.19"/>
		<path class="st15" d="M225,96.11c-6.45,0.54-12.84,0.58-19.24,0.14c-1.81-0.12-3.63-0.29-5.44-0.49c-0.15-0.02-0.26,0.04-0.3,0.13
			c-0.12,0.03-0.21,0.09-0.18,0.2c0.19,0.59,0.41,1.17,0.68,1.75c0.14,0.3,0.29,0.59,0.45,0.88c0.07,0.13,0.14,0.26,0.22,0.39
			c0.08,0.13,0.14,0.32,0.27,0.43c0.11,0.1,0.28,0.11,0.43,0.14c0.23,0.04,0.45,0.08,0.68,0.12c0.45,0.08,0.91,0.16,1.37,0.23
			c0.91,0.14,1.83,0.26,2.75,0.36c3.68,0.39,7.4,0.44,11.09,0.14c2.1-0.17,4.19-0.45,6.26-0.84c0.15-0.03,0.23-0.1,0.27-0.2
			c0.37-1.05,0.71-2.09,1.02-3.14C225.38,96.17,225.17,96.09,225,96.11z"/>
	</g>
</g>
</svg>
