<?xml version="1.0" encoding="utf-8"?>
<!-- Generator: Adobe Illustrator 26.0.0, SVG Export Plug-In . SVG Version: 6.00 Build 0)  -->
<svg version="1.1" id="Camada_1" xmlns="http://www.w3.org/2000/svg" xmlns:xlink="http://www.w3.org/1999/xlink" x="0px" y="0px"
	 viewBox="0 0 300 300" style="enable-background:new 0 0 300 300;" xml:space="preserve">
<style type="text/css">
	.st0{fill:#B2B2B2;}
	.st1{fill:none;stroke:#000000;stroke-linecap:round;stroke-linejoin:round;stroke-miterlimit:10;}
	.st2{stroke:#000000;stroke-linecap:round;stroke-linejoin:round;stroke-miterlimit:10;}
</style>
<g>
	<g>
		<g>
			<path class="st0" d="M232.65,134.73c-8.76-21.34-35.33-19.72-42.61,1.88c-0.26,1.01-1.76,1.1-2.14,0.15
				c-4.97-10.66-16.38-18.61-28.28-17.24c-11.68,1.14-21.28,10.58-24.46,21.6c-0.41,1.35-1.83,2.12-3.18,1.71
				c-1.39-0.41-2.16-1.91-1.68-3.28c2.14-6.26,5.91-11.99,10.98-16.26c16.75-14.29,40.33-7.09,48.71,12.51
				c0.01,0-2.14,0.15-2.14,0.15c1.39-5.17,4.21-10.02,8.23-13.73c8.29-7.96,21.4-8.93,30.94-2.43c4.74,3.08,8.47,7.62,10.8,12.76
				C239.26,136.06,234.14,138.23,232.65,134.73L232.65,134.73z"/>
		</g>
		<path class="st1" d="M230.8,132.59"/>
		<path class="st2" d="M235.23,133.65h-3.15c0,1.76,1.42,3.21,3.15,3.21c1.73,0,3.15-1.45,3.15-3.21c0-0.94-0.41-1.84-1.11-2.45
			L235.23,133.65z"/>
		<path class="st2" d="M132.91,140.1l-2.59-1.91c-0.94,1.45-0.55,3.5,0.87,4.55c1.42,1.05,3.36,0.72,4.3-0.72
			c0.39-0.6,0.57-1.32,0.51-2.06L132.91,140.1z"/>
		<path class="st2" d="M189.02,135.96l-1.14,0.61c0.23,0.48,0.7,0.78,1.21,0.75c0.5-0.03,0.95-0.37,1.13-0.87L189.02,135.96z"/>
	</g>
	<g>
		<g>
			<path class="st0" d="M147.28,175.14c-8.76-21.34-35.33-19.72-42.61,1.88c-0.26,1.01-1.76,1.1-2.14,0.15
				c-4.97-10.66-16.38-18.61-28.28-17.24c-11.68,1.14-21.28,10.58-24.46,21.6c-0.41,1.35-1.83,2.12-3.18,1.71
				c-1.39-0.41-2.16-1.91-1.68-3.28c2.14-6.26,5.91-11.99,10.98-16.26c16.75-14.29,40.33-7.09,48.71,12.51
				c0.01,0-2.14,0.15-2.14,0.15c1.39-5.17,4.21-10.02,8.23-13.73c8.29-7.96,21.4-8.93,30.94-2.43c4.74,3.08,8.47,7.62,10.8,12.76
				C153.9,176.47,148.77,178.64,147.28,175.14L147.28,175.14z"/>
		</g>
		<path class="st1" d="M145.43,173.01"/>
		<path class="st2" d="M149.86,174.07h-3.15c0,1.76,1.42,3.21,3.15,3.21c1.73,0,3.15-1.45,3.15-3.21c0-0.94-0.41-1.84-1.11-2.45
			L149.86,174.07z"/>
		<path class="st2" d="M47.54,180.52l-2.59-1.91c-0.94,1.45-0.55,3.5,0.87,4.55c1.42,1.05,3.36,0.72,4.3-0.72
			c0.39-0.6,0.57-1.32,0.51-2.06L47.54,180.52z"/>
		<path class="st2" d="M103.65,176.38l-1.14,0.61c0.23,0.48,0.7,0.78,1.21,0.75c0.5-0.03,0.95-0.37,1.13-0.87L103.65,176.38z"/>
	</g>
</g>
</svg>
