<?xml version="1.0" encoding="utf-8"?>
<!-- Generator: Adobe Illustrator 26.0.0, SVG Export Plug-In . SVG Version: 6.00 Build 0)  -->
<svg version="1.1" id="Camada_1" xmlns="http://www.w3.org/2000/svg" xmlns:xlink="http://www.w3.org/1999/xlink" x="0px" y="0px"
	 viewBox="0 0 300 300" style="enable-background:new 0 0 300 300;" xml:space="preserve">
<style type="text/css">
	.st0{fill:#B2B2B2;}
	.st1{fill:none;stroke:#000000;stroke-linecap:round;stroke-linejoin:round;stroke-miterlimit:10;}
	.st2{stroke:#000000;stroke-linecap:round;stroke-linejoin:round;stroke-miterlimit:10;}
</style>
<g>
	<g>
		<g>
			<path class="st0" d="M45.01,132.54c7.24-16.48,27.99-23.15,41.73-10.32c4.03,3.71,6.84,8.57,8.23,13.73c0,0-2.15-0.15-2.14-0.15
				c8.38-19.6,31.98-26.8,48.71-12.51c5.07,4.27,8.84,9.99,10.98,16.26c0.46,1.34-0.25,2.8-1.59,3.25c-1.37,0.47-2.86-0.3-3.28-1.68
				c-1.65-5.51-4.74-10.62-9.02-14.51c-14.57-13.37-35.6-7.07-43.72,10.15c-0.39,0.97-1.9,0.85-2.14-0.15
				c-2.91-9.2-11.37-16.94-21.16-17.12c-9.54-0.33-18.18,6.52-21.45,15.24C48.69,138.22,43.53,136.07,45.01,132.54L45.01,132.54z"/>
		</g>
		<path class="st1" d="M52.01,132.59"/>
		<path class="st2" d="M47.59,133.65h3.15c0,1.76-1.42,3.21-3.15,3.21s-3.15-1.45-3.15-3.21c0-0.94,0.41-1.84,1.11-2.45
			L47.59,133.65z"/>
		<path class="st2" d="M149.91,140.1l2.59-1.91c0.94,1.45,0.55,3.5-0.87,4.55c-1.42,1.05-3.36,0.72-4.3-0.72
			c-0.39-0.6-0.57-1.32-0.51-2.06L149.91,140.1z"/>
		<path class="st2" d="M93.79,135.96l1.14,0.61c-0.23,0.48-0.7,0.78-1.21,0.75c-0.5-0.03-0.95-0.37-1.13-0.87L93.79,135.96z"/>
	</g>
	<g>
		<g>
			<path class="st0" d="M130.37,172.96c7.24-16.48,27.99-23.15,41.73-10.32c4.03,3.71,6.84,8.57,8.23,13.73c0,0-2.15-0.15-2.14-0.15
				c8.38-19.6,31.98-26.8,48.71-12.51c5.07,4.27,8.84,9.99,10.98,16.26c0.46,1.34-0.25,2.8-1.59,3.25c-1.37,0.47-2.86-0.3-3.28-1.69
				c-1.65-5.51-4.74-10.62-9.02-14.51c-14.57-13.37-35.6-7.07-43.72,10.15c-0.39,0.97-1.9,0.85-2.14-0.15
				c-2.91-9.2-11.37-16.94-21.16-17.12c-9.54-0.33-18.18,6.52-21.45,15.24C134.06,178.63,128.9,176.49,130.37,172.96L130.37,172.96z
				"/>
		</g>
		<path class="st1" d="M137.38,173.01"/>
		<path class="st2" d="M132.95,174.07h3.15c0,1.76-1.42,3.21-3.15,3.21c-1.73,0-3.15-1.45-3.15-3.21c0-0.94,0.41-1.84,1.11-2.45
			L132.95,174.07z"/>
		<path class="st2" d="M235.28,180.52l2.59-1.91c0.94,1.45,0.55,3.5-0.87,4.55c-1.42,1.05-3.36,0.72-4.3-0.72
			c-0.39-0.6-0.57-1.32-0.51-2.06L235.28,180.52z"/>
		<path class="st2" d="M179.16,176.38l1.14,0.61c-0.23,0.48-0.7,0.78-1.21,0.75c-0.5-0.03-0.95-0.37-1.13-0.87L179.16,176.38z"/>
	</g>
</g>
</svg>
