<?xml version="1.0" encoding="utf-8"?>
<!-- Generator: Adobe Illustrator 26.0.0, SVG Export Plug-In . SVG Version: 6.00 Build 0)  -->
<svg version="1.1" id="Camada_1" xmlns="http://www.w3.org/2000/svg" xmlns:xlink="http://www.w3.org/1999/xlink" x="0px" y="0px"
	 viewBox="0 0 500 400" style="enable-background:new 0 0 500 400;" xml:space="preserve">
<style type="text/css">
	.st0{enable-background:new    ;}
	.st1{fill:#FFA500;}
	.st2{fill:#FFFFFF;}
	.st3{opacity:0.6;}
	.st4{fill:#FFFF00;}
</style>
<g>
	<g class="st0">
		<path class="st1" d="M86.4,204.22l-1-15.5h0.2c0.7,1.3,3.8,6.1,10.2,6.1c7.5,0,11.2-4,11.2-11.2v-34.5c0-8.4-2.8-13.2-5.4-14.9
			v-0.2h24.5v0.2c-2.5,1.7-5.4,6.6-5.4,14.8v31c0,17.7-7.3,25.7-24.3,25.7C93.9,205.72,90.2,205.22,86.4,204.22z"/>
		<path class="st1" d="M134.1,169.42c0-22.5,14-37.4,37.1-37.4c21.4,0,35.7,14.5,35.7,36c0,22.3-14.9,37.5-37.2,37.5
			C147.3,205.52,134.1,189.92,134.1,169.42z M192,169.02c0-16.9-8.2-26.6-21.8-26.6c-13.2,0-21.2,10.4-21.2,26
			c0,16.4,7.4,26.7,21.7,26.7C183,195.12,192,185.02,192,169.02z"/>
		<path class="st1" d="M279,166.32v0.2c-2.3,1.5-3.3,5.8-3.3,14.8v16.5c-6.7,4.3-16.8,7.2-24.8,7.2c-20.9,0-35.2-14.5-35.2-35.3
			c0-23.2,15-37.1,37.2-37.1c7.3,0,13.9,1.1,19,2.7l1.5,16.3l-0.2,0.1c-5.1-5.7-12-8.6-20.6-8.6c-14,0-22.1,9.9-22.1,25.6
			c0,15.9,8.1,25.7,21.4,25.7c4.2,0,7.8-0.7,11-2.2v-16.3c-5.2,0.1-11.1,1.2-14.9,5.2l-0.2-0.1l1.6-15.3c2.2,0.4,5.8,0.6,12.2,0.6
			H279z"/>
		<path class="st1" d="M350.9,203.32v0.2h-22.6v-0.2c1.7-1.3,2.5-5.4,0-12.3l-0.9-2.4h-25.8l-0.9,2.4c-2.6,6.9-1.6,11-0.2,12.3v0.2
			h-21v-0.2c2.7-2.4,7-8.5,9.7-16.2l14.3-41.2c2-5.9,0.1-10.1-1.8-11.7v-0.2h26.5v0.2c-1.9,1.7-3.9,5.8-1.8,11.7l14.7,41.2
			C343.8,194.82,348.1,201.02,350.9,203.32z M308.6,168.22l-3.7,10.6h19.2l-3.7-10.6c-2.3-6.5-4.8-13.2-5.8-20.9h-0.4
			C313.3,155.02,310.9,161.72,308.6,168.22z"/>
		<path class="st1" d="M417.4,201.72v0.2l-20.5,3.7c-1.3-3.9-2.9-7.4-5.1-11.1l-15.5-26.5h4.8c8.6,0,13.4-3.5,13.4-12.4
			c0-7.3-4.8-11.9-13.4-11.8l-7,0.1v45c0,7.9,2.8,12.7,5,14.4v0.2H355v-0.2c2.6-1.7,5.4-6.6,5.4-14.8v-39.9c0-7.9-2.8-12.7-5.4-14.4
			v-0.2h28.4c16,0,25.3,8.1,25.3,21.1c0,10.6-5.2,17.1-13.6,19.8l9.3,15.1C408.2,196.12,412.6,200.12,417.4,201.72z"/>
	</g>
	<g>
		<g>
			<path class="st2" d="M106.4,225.72c-3.56,0-8.13-0.67-12.54-1.83l-6.97-1.83l-2.15-33.34h16.84l2.83,5.26
				c0.5,0.84,1.17,0.84,1.39,0.84c0.5,0,0.87-0.03,1.13-0.07c0.04-0.26,0.07-0.63,0.07-1.13v-34.5c0-4.3-0.98-6.28-1.31-6.82
				l-4.09-2.68v-15.61h44.5v15.49l-3.98,2.71c-0.33,0.51-1.42,2.52-1.42,6.8v31C140.7,219.53,122.05,225.72,106.4,225.72z"/>
			<path class="st2" d="M179.7,225.52c-26.85,0-45.6-18.96-45.6-46.1c0-28.35,18.93-47.4,47.1-47.4c26.91,0,45.7,18.92,45.7,46
				C226.9,205.99,207.49,225.52,179.7,225.52z M180.2,162.42c-9.75,0-11.2,10.03-11.2,16c0,16.7,8.5,16.7,11.7,16.7
				c8.33,0,11.3-8.32,11.3-16.1C192,162.42,183.12,162.42,180.2,162.42z"/>
			<path class="st2" d="M260.9,225.02c-26.19,0-45.2-19.05-45.2-45.3c0-28.17,18.97-47.1,47.2-47.1c7.8,0,15.41,1.09,21.99,3.16
				l6.35,1.99l2.63,28.55H299v15.62l-2.86,1.86c-0.2,1.12-0.44,3.36-0.44,7.52v21.97l-4.6,2.95
				C282.79,221.57,270.94,225.02,260.9,225.02z M261.19,165.88c1.6,0.29,5.1,0.44,10.41,0.44h1.92c-2.87-2.17-6.41-3.2-10.92-3.2
				c-1.45,0-4.32,0-6.91,1.76L261.19,165.88z"/>
			<path class="st2" d="M328.3,223.52v-14.9h-8.17l0.37,0.34v14.56h-41v-14.69l3.36-2.98c1.22-1.09,4.66-5.63,6.91-12.04
				l14.29-41.17c0.24-0.71,0.3-1.22,0.3-1.53l-2.65-2.23v-14.85h46.5v14.67l-2.7,2.41c0.01,0.29,0.07,0.78,0.32,1.46l14.7,41.19
				c2.33,6.63,5.8,11.05,6.73,11.84l3.59,3l0.06,4.93v10H328.3V223.52z"/>
			<path class="st2" d="M398.99,223.52H355v-15.61l4.08-2.66c0.33-0.54,1.33-2.53,1.33-6.73v-39.9c0-3.94-0.97-5.8-1.29-6.3
				l-4.12-2.69v-15.61h38.4c21.45,0,35.3,12.21,35.3,31.1c0,9.77-3.43,17.83-9.69,23.31l3.91,6.35c2.48,3.98,5.2,6.64,7.65,7.46
				l6.84,2.28v15.76L400.15,227L398.99,223.52z M394.1,167.71c0.08-0.02,0.14-0.04,0.2-0.06c0.08-0.32,0.2-0.95,0.2-2.03
				c0-0.94-0.19-1.27-0.19-1.28c-0.03-0.03-0.1-0.07-0.21-0.11L394.1,167.71L394.1,167.71z"/>
		</g>
		<g>
			<path class="st2" d="M105.4,224.72c-3.56,0-8.13-0.67-12.54-1.83l-6.97-1.83l-2.15-33.34h16.84l2.83,5.26
				c0.5,0.84,1.17,0.84,1.39,0.84c0.5,0,0.87-0.03,1.13-0.07c0.04-0.26,0.07-0.63,0.07-1.13v-34.5c0-4.3-0.98-6.28-1.31-6.82
				l-4.09-2.68v-15.61h44.5v15.49l-3.98,2.71c-0.33,0.51-1.42,2.52-1.42,6.8v31C139.7,218.53,121.05,224.72,105.4,224.72z"/>
			<path class="st2" d="M178.7,224.52c-26.85,0-45.6-18.96-45.6-46.1c0-28.35,18.93-47.4,47.1-47.4c26.91,0,45.7,18.92,45.7,46
				C225.9,204.99,206.49,224.52,178.7,224.52z M179.2,161.42c-9.75,0-11.2,10.03-11.2,16c0,16.7,8.5,16.7,11.7,16.7
				c8.33,0,11.3-8.32,11.3-16.1C191,161.42,182.12,161.42,179.2,161.42z"/>
			<path class="st2" d="M259.9,224.02c-26.19,0-45.2-19.05-45.2-45.3c0-28.17,18.97-47.1,47.2-47.1c7.8,0,15.41,1.09,21.99,3.16
				l6.35,1.99l2.63,28.55H298v15.62l-2.86,1.86c-0.2,1.12-0.44,3.36-0.44,7.52v21.97l-4.6,2.95
				C281.79,220.57,269.94,224.02,259.9,224.02z M260.19,164.88c1.6,0.29,5.1,0.44,10.41,0.44h1.92c-2.87-2.17-6.41-3.2-10.92-3.2
				c-1.45,0-4.32,0-6.91,1.76L260.19,164.88z"/>
			<path class="st2" d="M327.3,222.52v-14.9h-8.17l0.37,0.34v14.56h-41v-14.69l3.36-2.98c1.22-1.09,4.66-5.63,6.91-12.04
				l14.29-41.17c0.24-0.71,0.3-1.22,0.3-1.53l-2.65-2.23v-14.85h46.5v14.67l-2.7,2.41c0.01,0.29,0.07,0.78,0.32,1.46l14.7,41.19
				c2.33,6.63,5.8,11.05,6.73,11.84l3.59,3l0.06,4.93v10H327.3V222.52z"/>
			<path class="st2" d="M397.99,222.52H354v-15.61l4.08-2.66c0.33-0.54,1.33-2.53,1.33-6.73v-39.9c0-3.94-0.97-5.8-1.29-6.3
				l-4.12-2.69v-15.61h38.4c21.45,0,35.3,12.21,35.3,31.1c0,9.77-3.43,17.83-9.69,23.31l3.91,6.35c2.48,3.98,5.2,6.64,7.65,7.46
				l6.84,2.28v15.76L399.15,226L397.99,222.52z M393.1,166.71c0.08-0.02,0.14-0.04,0.2-0.06c0.08-0.32,0.2-0.95,0.2-2.03
				c0-0.94-0.19-1.27-0.19-1.28c-0.03-0.03-0.1-0.07-0.21-0.11L393.1,166.71L393.1,166.71z"/>
		</g>
		<g>
			<path class="st2" d="M104.4,223.72c-3.56,0-8.13-0.67-12.54-1.83l-6.97-1.83l-2.15-33.34h16.84l2.83,5.26
				c0.5,0.84,1.17,0.84,1.39,0.84c0.5,0,0.87-0.03,1.13-0.07c0.04-0.26,0.07-0.63,0.07-1.13v-34.5c0-4.3-0.98-6.28-1.31-6.82
				l-4.09-2.68v-15.61h44.5v15.49l-3.98,2.71c-0.33,0.51-1.42,2.52-1.42,6.8v31C138.7,217.53,120.05,223.72,104.4,223.72z"/>
			<path class="st2" d="M177.7,223.52c-26.85,0-45.6-18.96-45.6-46.1c0-28.35,18.93-47.4,47.1-47.4c26.91,0,45.7,18.92,45.7,46
				C224.9,203.99,205.49,223.52,177.7,223.52z M178.2,160.42c-9.75,0-11.2,10.03-11.2,16c0,16.7,8.5,16.7,11.7,16.7
				c8.33,0,11.3-8.32,11.3-16.1C190,160.42,181.12,160.42,178.2,160.42z"/>
			<path class="st2" d="M258.9,223.02c-26.19,0-45.2-19.05-45.2-45.3c0-28.17,18.97-47.1,47.2-47.1c7.8,0,15.41,1.09,21.99,3.16
				l6.35,1.99l2.63,28.55H297v15.62l-2.86,1.86c-0.2,1.12-0.44,3.36-0.44,7.52v21.97l-4.6,2.95
				C280.79,219.57,268.94,223.02,258.9,223.02z M259.19,163.88c1.6,0.29,5.1,0.44,10.41,0.44h1.92c-2.87-2.17-6.41-3.2-10.92-3.2
				c-1.45,0-4.32,0-6.91,1.76L259.19,163.88z"/>
			<path class="st2" d="M326.3,221.52v-14.9h-8.17l0.37,0.34v14.56h-41v-14.69l3.36-2.98c1.22-1.09,4.66-5.63,6.91-12.04
				l14.29-41.17c0.24-0.71,0.3-1.22,0.3-1.53l-2.65-2.23v-14.85h46.5v14.67l-2.7,2.41c0.01,0.29,0.07,0.78,0.32,1.46l14.7,41.19
				c2.33,6.63,5.8,11.05,6.73,11.84l3.59,3l0.06,4.93v10H326.3V221.52z"/>
			<path class="st2" d="M396.99,221.52H353v-15.61l4.08-2.66c0.33-0.54,1.33-2.53,1.33-6.73v-39.9c0-3.94-0.97-5.8-1.29-6.3
				l-4.12-2.69v-15.61h38.4c21.45,0,35.3,12.21,35.3,31.1c0,9.77-3.43,17.83-9.69,23.31l3.91,6.35c2.48,3.98,5.2,6.64,7.65,7.46
				l6.84,2.28v15.76L398.15,225L396.99,221.52z M392.1,165.71c0.08-0.02,0.14-0.04,0.2-0.06c0.08-0.32,0.2-0.95,0.2-2.03
				c0-0.94-0.19-1.27-0.19-1.28c-0.03-0.03-0.1-0.07-0.21-0.11L392.1,165.71L392.1,165.71z"/>
		</g>
		<g>
			<path class="st2" d="M103.4,222.72c-3.56,0-8.13-0.67-12.54-1.83l-6.97-1.83l-2.15-33.34h16.84l2.83,5.26
				c0.5,0.84,1.17,0.84,1.39,0.84c0.5,0,0.87-0.03,1.13-0.07c0.04-0.26,0.07-0.63,0.07-1.13v-34.5c0-4.3-0.98-6.28-1.31-6.82
				l-4.09-2.68v-15.61h44.5v15.49l-3.98,2.71c-0.33,0.51-1.42,2.52-1.42,6.8v31C137.7,216.53,119.05,222.72,103.4,222.72z"/>
			<path class="st2" d="M176.7,222.52c-26.85,0-45.6-18.96-45.6-46.1c0-28.35,18.93-47.4,47.1-47.4c26.91,0,45.7,18.92,45.7,46
				C223.9,202.99,204.49,222.52,176.7,222.52z M177.2,159.42c-9.75,0-11.2,10.03-11.2,16c0,16.7,8.5,16.7,11.7,16.7
				c8.33,0,11.3-8.32,11.3-16.1C189,159.42,180.12,159.42,177.2,159.42z"/>
			<path class="st2" d="M257.9,222.02c-26.19,0-45.2-19.05-45.2-45.3c0-28.17,18.97-47.1,47.2-47.1c7.8,0,15.41,1.09,21.99,3.16
				l6.35,1.99l2.63,28.55H296v15.62l-2.86,1.86c-0.2,1.12-0.44,3.36-0.44,7.52v21.97l-4.6,2.95
				C279.79,218.57,267.94,222.02,257.9,222.02z M258.19,162.88c1.6,0.29,5.1,0.44,10.41,0.44h1.92c-2.87-2.17-6.41-3.2-10.92-3.2
				c-1.45,0-4.32,0-6.91,1.76L258.19,162.88z"/>
			<path class="st2" d="M325.3,220.52v-14.9h-8.17l0.37,0.34v14.56h-41v-14.69l3.36-2.98c1.22-1.09,4.66-5.63,6.91-12.04
				l14.29-41.17c0.24-0.71,0.3-1.22,0.3-1.53l-2.65-2.23v-14.85h46.5v14.67l-2.7,2.41c0.01,0.29,0.07,0.78,0.32,1.46l14.7,41.19
				c2.33,6.63,5.8,11.05,6.73,11.84l3.59,3l0.06,4.93v10H325.3V220.52z"/>
			<path class="st2" d="M395.99,220.52H352v-15.61l4.08-2.66c0.33-0.54,1.33-2.53,1.33-6.73v-39.9c0-3.94-0.97-5.8-1.29-6.3
				l-4.12-2.69v-15.61h38.4c21.45,0,35.3,12.21,35.3,31.1c0,9.77-3.43,17.83-9.69,23.31l3.91,6.35c2.48,3.98,5.2,6.64,7.65,7.46
				l6.84,2.28v15.76L397.15,224L395.99,220.52z M391.1,164.71c0.08-0.02,0.14-0.04,0.2-0.06c0.08-0.32,0.2-0.95,0.2-2.03
				c0-0.94-0.19-1.27-0.19-1.28c-0.03-0.03-0.1-0.07-0.21-0.11L391.1,164.71L391.1,164.71z"/>
		</g>
		<g>
			<path class="st2" d="M102.4,221.72c-3.56,0-8.13-0.67-12.54-1.83l-6.97-1.83l-2.15-33.34h16.84l2.83,5.26
				c0.5,0.84,1.17,0.84,1.39,0.84c0.5,0,0.87-0.03,1.13-0.07c0.04-0.26,0.07-0.63,0.07-1.13v-34.5c0-4.3-0.98-6.28-1.31-6.82
				l-4.09-2.68v-15.61h44.5v15.49l-3.98,2.71c-0.33,0.51-1.42,2.52-1.42,6.8v31C136.7,215.53,118.05,221.72,102.4,221.72z"/>
			<path class="st2" d="M175.7,221.52c-26.85,0-45.6-18.96-45.6-46.1c0-28.35,18.93-47.4,47.1-47.4c26.91,0,45.7,18.92,45.7,46
				C222.9,201.99,203.49,221.52,175.7,221.52z M176.2,158.42c-9.75,0-11.2,10.03-11.2,16c0,16.7,8.5,16.7,11.7,16.7
				c8.33,0,11.3-8.32,11.3-16.1C188,158.42,179.12,158.42,176.2,158.42z"/>
			<path class="st2" d="M256.9,221.02c-26.19,0-45.2-19.05-45.2-45.3c0-28.17,18.97-47.1,47.2-47.1c7.8,0,15.41,1.09,21.99,3.16
				l6.35,1.99l2.63,28.55H295v15.62l-2.86,1.86c-0.2,1.12-0.44,3.36-0.44,7.52v21.97l-4.6,2.95
				C278.79,217.57,266.94,221.02,256.9,221.02z M257.19,161.88c1.6,0.29,5.1,0.44,10.41,0.44h1.92c-2.87-2.17-6.41-3.2-10.92-3.2
				c-1.45,0-4.32,0-6.91,1.76L257.19,161.88z"/>
			<path class="st2" d="M324.3,219.52v-14.9h-8.17l0.37,0.34v14.56h-41v-14.69l3.36-2.98c1.22-1.09,4.66-5.63,6.91-12.04
				l14.29-41.17c0.24-0.71,0.3-1.22,0.3-1.53l-2.65-2.23v-14.85h46.5v14.67l-2.7,2.41c0.01,0.29,0.07,0.78,0.32,1.46l14.7,41.19
				c2.33,6.63,5.8,11.05,6.73,11.84l3.59,3l0.06,4.93v10H324.3V219.52z"/>
			<path class="st2" d="M394.99,219.52H351v-15.61l4.08-2.66c0.33-0.54,1.33-2.53,1.33-6.73v-39.9c0-3.94-0.97-5.8-1.29-6.3
				l-4.12-2.69v-15.61h38.4c21.45,0,35.3,12.21,35.3,31.1c0,9.77-3.43,17.83-9.69,23.31l3.91,6.35c2.48,3.98,5.2,6.64,7.65,7.46
				l6.84,2.28v15.76L396.15,223L394.99,219.52z M390.1,163.71c0.08-0.02,0.14-0.04,0.2-0.06c0.08-0.32,0.2-0.95,0.2-2.03
				c0-0.94-0.19-1.27-0.19-1.28c-0.03-0.03-0.1-0.07-0.21-0.11L390.1,163.71L390.1,163.71z"/>
		</g>
		<g>
			<path class="st2" d="M101.4,220.72c-3.56,0-8.13-0.67-12.54-1.83l-6.97-1.83l-2.15-33.34h16.84l2.83,5.26
				c0.5,0.84,1.17,0.84,1.39,0.84c0.5,0,0.87-0.03,1.13-0.07c0.04-0.26,0.07-0.63,0.07-1.13v-34.5c0-4.3-0.98-6.28-1.31-6.82
				l-4.09-2.68v-15.61h44.5v15.49l-3.98,2.71c-0.33,0.51-1.42,2.52-1.42,6.8v31C135.7,214.53,117.05,220.72,101.4,220.72z"/>
			<path class="st2" d="M174.7,220.52c-26.85,0-45.6-18.96-45.6-46.1c0-28.35,18.93-47.4,47.1-47.4c26.91,0,45.7,18.92,45.7,46
				C221.9,200.99,202.49,220.52,174.7,220.52z M175.2,157.42c-9.75,0-11.2,10.03-11.2,16c0,16.7,8.5,16.7,11.7,16.7
				c8.33,0,11.3-8.32,11.3-16.1C187,157.42,178.12,157.42,175.2,157.42z"/>
			<path class="st2" d="M255.9,220.02c-26.19,0-45.2-19.05-45.2-45.3c0-28.17,18.97-47.1,47.2-47.1c7.8,0,15.41,1.09,21.99,3.16
				l6.35,1.99l2.63,28.55H294v15.62l-2.86,1.86c-0.2,1.12-0.44,3.36-0.44,7.52v21.97l-4.6,2.95
				C277.79,216.57,265.94,220.02,255.9,220.02z M256.19,160.88c1.6,0.29,5.1,0.44,10.41,0.44h1.92c-2.87-2.17-6.41-3.2-10.92-3.2
				c-1.45,0-4.32,0-6.91,1.76L256.19,160.88z"/>
			<path class="st2" d="M323.3,218.52v-14.9h-8.17l0.37,0.34v14.56h-41v-14.69l3.36-2.98c1.22-1.09,4.66-5.63,6.91-12.04
				l14.29-41.17c0.24-0.71,0.3-1.22,0.3-1.53l-2.65-2.23v-14.85h46.5v14.67l-2.7,2.41c0.01,0.29,0.07,0.78,0.32,1.46l14.7,41.19
				c2.33,6.63,5.8,11.05,6.73,11.84l3.59,3l0.06,4.93v10H323.3V218.52z"/>
			<path class="st2" d="M393.99,218.52H350v-15.61l4.08-2.66c0.33-0.54,1.33-2.53,1.33-6.73v-39.9c0-3.94-0.97-5.8-1.29-6.3
				l-4.12-2.69v-15.61h38.4c21.45,0,35.3,12.21,35.3,31.1c0,9.77-3.43,17.83-9.69,23.31l3.91,6.35c2.48,3.98,5.2,6.64,7.65,7.46
				l6.84,2.28v15.76L395.15,222L393.99,218.52z M389.1,162.71c0.08-0.02,0.14-0.04,0.2-0.06c0.08-0.32,0.2-0.95,0.2-2.03
				c0-0.94-0.19-1.27-0.19-1.28c-0.03-0.03-0.1-0.07-0.21-0.11L389.1,162.71L389.1,162.71z"/>
		</g>
		<g>
			<path class="st2" d="M100.4,219.72c-3.56,0-8.13-0.67-12.54-1.83l-6.97-1.83l-2.15-33.34h16.84l2.83,5.26
				c0.5,0.84,1.17,0.84,1.39,0.84c0.5,0,0.87-0.03,1.13-0.07c0.04-0.26,0.07-0.63,0.07-1.13v-34.5c0-4.3-0.98-6.28-1.31-6.82
				l-4.09-2.68v-15.61h44.5v15.49l-3.98,2.71c-0.33,0.51-1.42,2.52-1.42,6.8v31C134.7,213.53,116.05,219.72,100.4,219.72z"/>
			<path class="st2" d="M173.7,219.52c-26.85,0-45.6-18.96-45.6-46.1c0-28.35,18.93-47.4,47.1-47.4c26.91,0,45.7,18.92,45.7,46
				C220.9,199.99,201.49,219.52,173.7,219.52z M174.2,156.42c-9.75,0-11.2,10.03-11.2,16c0,16.7,8.5,16.7,11.7,16.7
				c8.33,0,11.3-8.32,11.3-16.1C186,156.42,177.12,156.42,174.2,156.42z"/>
			<path class="st2" d="M254.9,219.02c-26.19,0-45.2-19.05-45.2-45.3c0-28.17,18.97-47.1,47.2-47.1c7.8,0,15.41,1.09,21.99,3.16
				l6.35,1.99l2.63,28.55H293v15.62l-2.86,1.86c-0.2,1.12-0.44,3.36-0.44,7.52v21.97l-4.6,2.95
				C276.79,215.57,264.94,219.02,254.9,219.02z M255.19,159.88c1.6,0.29,5.1,0.44,10.41,0.44h1.92c-2.87-2.17-6.41-3.2-10.92-3.2
				c-1.45,0-4.32,0-6.91,1.76L255.19,159.88z"/>
			<path class="st2" d="M322.3,217.52v-14.9h-8.17l0.37,0.34v14.56h-41v-14.69l3.36-2.98c1.22-1.09,4.66-5.63,6.91-12.04
				l14.29-41.17c0.24-0.71,0.3-1.22,0.3-1.53l-2.65-2.23v-14.85h46.5v14.67l-2.7,2.41c0.01,0.29,0.07,0.78,0.32,1.46l14.7,41.19
				c2.33,6.63,5.8,11.05,6.73,11.84l3.59,3l0.06,4.93v10H322.3V217.52z"/>
			<path class="st2" d="M392.99,217.52H349v-15.61l4.08-2.66c0.33-0.54,1.33-2.53,1.33-6.73v-39.9c0-3.94-0.97-5.8-1.29-6.3
				l-4.12-2.69v-15.61h38.4c21.45,0,35.3,12.21,35.3,31.1c0,9.77-3.43,17.83-9.69,23.31l3.91,6.35c2.48,3.98,5.2,6.64,7.65,7.46
				l6.84,2.28v15.76L394.15,221L392.99,217.52z M388.1,161.71c0.08-0.02,0.14-0.04,0.2-0.06c0.08-0.32,0.2-0.95,0.2-2.03
				c0-0.94-0.19-1.27-0.19-1.28c-0.03-0.03-0.1-0.07-0.21-0.11L388.1,161.71L388.1,161.71z"/>
		</g>
		<g>
			<path class="st2" d="M99.4,218.72c-3.56,0-8.13-0.67-12.54-1.83l-6.97-1.83l-2.15-33.34h16.84l2.83,5.26
				c0.5,0.84,1.17,0.84,1.39,0.84c0.5,0,0.87-0.03,1.13-0.07c0.04-0.26,0.07-0.63,0.07-1.13v-34.5c0-4.3-0.98-6.28-1.31-6.82
				l-4.09-2.68v-15.61h44.5v15.49l-3.98,2.71c-0.33,0.51-1.42,2.52-1.42,6.8v31C133.7,212.53,115.05,218.72,99.4,218.72z"/>
			<path class="st2" d="M172.7,218.52c-26.85,0-45.6-18.96-45.6-46.1c0-28.35,18.93-47.4,47.1-47.4c26.91,0,45.7,18.92,45.7,46
				C219.9,198.99,200.49,218.52,172.7,218.52z M173.2,155.42c-9.75,0-11.2,10.03-11.2,16c0,16.7,8.5,16.7,11.7,16.7
				c8.33,0,11.3-8.32,11.3-16.1C185,155.42,176.12,155.42,173.2,155.42z"/>
			<path class="st2" d="M253.9,218.02c-26.19,0-45.2-19.05-45.2-45.3c0-28.17,18.97-47.1,47.2-47.1c7.8,0,15.41,1.09,21.99,3.16
				l6.35,1.99l2.63,28.55H292v15.62l-2.86,1.86c-0.2,1.12-0.44,3.36-0.44,7.52v21.97l-4.6,2.95
				C275.79,214.57,263.94,218.02,253.9,218.02z M254.19,158.88c1.6,0.29,5.1,0.44,10.41,0.44h1.92c-2.87-2.17-6.41-3.2-10.92-3.2
				c-1.45,0-4.32,0-6.91,1.76L254.19,158.88z"/>
			<path class="st2" d="M321.3,216.52v-14.9h-8.17l0.37,0.34v14.56h-41v-14.69l3.36-2.98c1.22-1.09,4.66-5.63,6.91-12.04
				l14.29-41.17c0.24-0.71,0.3-1.22,0.3-1.53l-2.65-2.23v-14.85h46.5v14.67l-2.7,2.41c0.01,0.29,0.07,0.78,0.32,1.46l14.7,41.19
				c2.33,6.63,5.8,11.05,6.73,11.84l3.59,3l0.06,4.93v10H321.3V216.52z"/>
			<path class="st2" d="M391.99,216.52H348v-15.61l4.08-2.66c0.33-0.54,1.33-2.53,1.33-6.73v-39.9c0-3.94-0.97-5.8-1.29-6.3
				l-4.12-2.69v-15.61h38.4c21.45,0,35.3,12.21,35.3,31.1c0,9.77-3.43,17.83-9.69,23.31l3.91,6.35c2.48,3.98,5.2,6.64,7.65,7.46
				l6.84,2.28v15.76L393.15,220L391.99,216.52z M387.1,160.71c0.08-0.02,0.14-0.04,0.2-0.06c0.08-0.32,0.2-0.95,0.2-2.03
				c0-0.94-0.19-1.27-0.19-1.28c-0.03-0.03-0.1-0.07-0.21-0.11L387.1,160.71L387.1,160.71z"/>
		</g>
		<g>
			<path class="st2" d="M98.4,217.72c-3.56,0-8.13-0.67-12.54-1.83l-6.97-1.83l-2.15-33.34h16.84l2.83,5.26
				c0.5,0.84,1.17,0.84,1.39,0.84c0.5,0,0.87-0.03,1.13-0.07c0.04-0.26,0.07-0.63,0.07-1.13v-34.5c0-4.3-0.98-6.28-1.31-6.82
				l-4.09-2.68v-15.61h44.5v15.49l-3.98,2.71c-0.33,0.51-1.42,2.52-1.42,6.8v31C132.7,211.53,114.05,217.72,98.4,217.72z"/>
			<path class="st2" d="M171.7,217.52c-26.85,0-45.6-18.96-45.6-46.1c0-28.35,18.93-47.4,47.1-47.4c26.91,0,45.7,18.92,45.7,46
				C218.9,197.99,199.49,217.52,171.7,217.52z M172.2,154.42c-9.75,0-11.2,10.03-11.2,16c0,16.7,8.5,16.7,11.7,16.7
				c8.33,0,11.3-8.32,11.3-16.1C184,154.42,175.12,154.42,172.2,154.42z"/>
			<path class="st2" d="M252.9,217.02c-26.19,0-45.2-19.05-45.2-45.3c0-28.17,18.97-47.1,47.2-47.1c7.8,0,15.41,1.09,21.99,3.16
				l6.35,1.99l2.63,28.55H291v15.62l-2.86,1.86c-0.2,1.12-0.44,3.36-0.44,7.52v21.97l-4.6,2.95
				C274.79,213.57,262.94,217.02,252.9,217.02z M253.19,157.88c1.6,0.29,5.1,0.44,10.41,0.44h1.92c-2.87-2.17-6.41-3.2-10.92-3.2
				c-1.45,0-4.32,0-6.91,1.76L253.19,157.88z"/>
			<path class="st2" d="M320.3,215.52v-14.9h-8.17l0.37,0.34v14.56h-41v-14.69l3.36-2.98c1.22-1.09,4.66-5.63,6.91-12.04
				l14.29-41.17c0.24-0.71,0.3-1.22,0.3-1.53l-2.65-2.23v-14.85h46.5v14.67l-2.7,2.41c0.01,0.29,0.07,0.78,0.32,1.46l14.7,41.19
				c2.33,6.63,5.8,11.05,6.73,11.84l3.59,3l0.06,4.93v10H320.3V215.52z"/>
			<path class="st2" d="M390.99,215.52H347v-15.61l4.08-2.66c0.33-0.54,1.33-2.53,1.33-6.73v-39.9c0-3.94-0.97-5.8-1.29-6.3
				l-4.12-2.69v-15.61h38.4c21.45,0,35.3,12.21,35.3,31.1c0,9.77-3.43,17.83-9.69,23.31l3.91,6.35c2.48,3.98,5.2,6.64,7.65,7.46
				l6.84,2.28v15.76L392.15,219L390.99,215.52z M386.1,159.71c0.08-0.02,0.14-0.04,0.2-0.06c0.08-0.32,0.2-0.95,0.2-2.03
				c0-0.94-0.19-1.27-0.19-1.28c-0.03-0.03-0.1-0.07-0.21-0.11L386.1,159.71L386.1,159.71z"/>
		</g>
		<g>
			<path class="st2" d="M97.4,216.72c-3.56,0-8.13-0.67-12.54-1.83l-6.97-1.83l-2.15-33.34h16.84l2.83,5.26
				c0.5,0.84,1.17,0.84,1.39,0.84c0.5,0,0.87-0.03,1.13-0.07c0.04-0.26,0.07-0.63,0.07-1.13v-34.5c0-4.3-0.98-6.28-1.31-6.82
				l-4.09-2.68v-15.61h44.5v15.49l-3.98,2.71c-0.33,0.51-1.42,2.52-1.42,6.8v31C131.7,210.53,113.05,216.72,97.4,216.72z"/>
			<path class="st2" d="M170.7,216.52c-26.85,0-45.6-18.96-45.6-46.1c0-28.35,18.93-47.4,47.1-47.4c26.91,0,45.7,18.92,45.7,46
				C217.9,196.99,198.49,216.52,170.7,216.52z M171.2,153.42c-9.75,0-11.2,10.03-11.2,16c0,16.7,8.5,16.7,11.7,16.7
				c8.33,0,11.3-8.32,11.3-16.1C183,153.42,174.12,153.42,171.2,153.42z"/>
			<path class="st2" d="M251.9,216.02c-26.19,0-45.2-19.05-45.2-45.3c0-28.17,18.97-47.1,47.2-47.1c7.8,0,15.41,1.09,21.99,3.16
				l6.35,1.99l2.63,28.55H290v15.62l-2.86,1.86c-0.2,1.12-0.44,3.36-0.44,7.52v21.97l-4.6,2.95
				C273.79,212.57,261.94,216.02,251.9,216.02z M252.19,156.88c1.6,0.29,5.1,0.44,10.41,0.44h1.92c-2.87-2.17-6.41-3.2-10.92-3.2
				c-1.45,0-4.32,0-6.91,1.76L252.19,156.88z"/>
			<path class="st2" d="M319.3,214.52v-14.9h-8.17l0.37,0.34v14.56h-41v-14.69l3.36-2.98c1.22-1.09,4.66-5.63,6.91-12.04
				l14.29-41.17c0.24-0.71,0.3-1.22,0.3-1.53l-2.65-2.23v-14.85h46.5v14.67l-2.7,2.41c0.01,0.29,0.07,0.78,0.32,1.46l14.7,41.19
				c2.33,6.63,5.8,11.05,6.73,11.84l3.59,3l0.06,4.93v10H319.3V214.52z"/>
			<path class="st2" d="M389.99,214.52H346v-15.61l4.08-2.66c0.33-0.54,1.33-2.53,1.33-6.73v-39.9c0-3.94-0.97-5.8-1.29-6.3
				l-4.12-2.69v-15.61h38.4c21.45,0,35.3,12.21,35.3,31.1c0,9.77-3.43,17.83-9.69,23.31l3.91,6.35c2.48,3.98,5.2,6.64,7.65,7.46
				l6.84,2.28v15.76L391.15,218L389.99,214.52z M385.1,158.71c0.08-0.02,0.14-0.04,0.2-0.06c0.08-0.32,0.2-0.95,0.2-2.03
				c0-0.94-0.19-1.27-0.19-1.28c-0.03-0.03-0.1-0.07-0.21-0.11L385.1,158.71L385.1,158.71z"/>
		</g>
		<g>
			<path class="st2" d="M96.4,215.72c-3.56,0-8.13-0.67-12.54-1.83l-6.97-1.83l-2.15-33.34h16.84l2.83,5.26
				c0.5,0.84,1.17,0.84,1.39,0.84c0.5,0,0.87-0.03,1.13-0.07c0.04-0.26,0.07-0.63,0.07-1.13v-34.5c0-4.3-0.98-6.28-1.31-6.82
				l-4.09-2.68v-15.61h44.5v15.49l-3.98,2.71c-0.33,0.51-1.42,2.52-1.42,6.8v31C130.7,209.53,112.05,215.72,96.4,215.72z"/>
			<path class="st2" d="M169.7,215.52c-26.85,0-45.6-18.96-45.6-46.1c0-28.35,18.93-47.4,47.1-47.4c26.91,0,45.7,18.92,45.7,46
				C216.9,195.99,197.49,215.52,169.7,215.52z M170.2,152.42c-9.75,0-11.2,10.03-11.2,16c0,16.7,8.5,16.7,11.7,16.7
				c8.33,0,11.3-8.32,11.3-16.1C182,152.42,173.12,152.42,170.2,152.42z"/>
			<path class="st2" d="M250.9,215.02c-26.19,0-45.2-19.05-45.2-45.3c0-28.17,18.97-47.1,47.2-47.1c7.8,0,15.41,1.09,21.99,3.16
				l6.35,1.99l2.63,28.55H289v15.62l-2.86,1.86c-0.2,1.12-0.44,3.36-0.44,7.52v21.97l-4.6,2.95
				C272.79,211.57,260.94,215.02,250.9,215.02z M251.19,155.88c1.6,0.29,5.1,0.44,10.41,0.44h1.92c-2.87-2.17-6.41-3.2-10.92-3.2
				c-1.45,0-4.32,0-6.91,1.76L251.19,155.88z"/>
			<path class="st2" d="M318.3,213.52v-14.9h-8.17l0.37,0.34v14.56h-41v-14.69l3.36-2.98c1.22-1.09,4.66-5.63,6.91-12.04
				l14.29-41.17c0.24-0.71,0.3-1.22,0.3-1.53l-2.65-2.23v-14.85h46.5v14.67l-2.7,2.41c0.01,0.29,0.07,0.78,0.32,1.46l14.7,41.19
				c2.33,6.63,5.8,11.05,6.73,11.84l3.59,3l0.06,4.93v10H318.3V213.52z"/>
			<path class="st2" d="M388.99,213.52H345v-15.61l4.08-2.66c0.33-0.54,1.33-2.53,1.33-6.73v-39.9c0-3.94-0.97-5.8-1.29-6.3
				l-4.12-2.69v-15.61h38.4c21.45,0,35.3,12.21,35.3,31.1c0,9.77-3.43,17.83-9.69,23.31l3.91,6.35c2.48,3.98,5.2,6.64,7.65,7.46
				l6.84,2.28v15.76L390.15,217L388.99,213.52z M384.1,157.71c0.08-0.02,0.14-0.04,0.2-0.06c0.08-0.32,0.2-0.95,0.2-2.03
				c0-0.94-0.19-1.27-0.19-1.28c-0.03-0.03-0.1-0.07-0.21-0.11L384.1,157.71L384.1,157.71z"/>
		</g>
	</g>
	<g class="st3">
		<g>
			<path d="M106.4,220.72c-3.14,0-7.25-0.61-11.27-1.67l-3.49-0.92l-1.58-24.42h8.52l1.42,2.63c0.31,0.58,2.06,3.47,5.8,3.47
				c4.58,0,6.2-1.62,6.2-6.2v-34.5c0-7.11-2.26-10.15-3.14-10.72l-2.26-1.48v-7.9h34.5v7.85l-2.19,1.49
				c-0.83,0.57-3.21,3.74-3.21,10.67v31C135.7,210.68,126.12,220.72,106.4,220.72z"/>
			<path d="M179.7,220.52c-23.91,0-40.6-16.9-40.6-41.1c0-25.76,16.53-42.4,42.1-42.4c23.96,0,40.7,16.86,40.7,41
				C221.9,203.04,204.55,220.52,179.7,220.52z M180.2,157.42c-10.14,0-16.2,7.85-16.2,21c0,9.9,2.9,21.7,16.7,21.7
				c9.9,0,16.3-8.28,16.3-21.1C197,170.95,194.82,157.42,180.2,157.42z"/>
			<path d="M260.9,220.02c-23.67,0-40.2-16.57-40.2-40.3c0-25.58,16.57-42.1,42.2-42.1c9.22,0,16.24,1.59,20.5,2.93l3.18,1
				l2.12,23.02l-6.67,3.34l-2.55-2.85c-4.17-4.67-9.69-6.93-16.87-6.93c-14.88,0-17.1,12.91-17.1,20.6c0,6.22,1.6,20.7,16.4,20.7
				c2.22,0,4.21-0.23,6-0.7v-7.28c-2.75,0.58-4.85,1.62-6.28,3.12l-2.55,2.68l-6.61-3.3l2.52-24.11l5.31,0.96
				c1.95,0.35,5.54,0.52,11.31,0.52H294v7.91l-2.1,1.37c-0.29,0.47-1.2,2.59-1.2,10.72v19.23l-2.3,1.48
				C280.96,216.81,269.9,220.02,260.9,220.02z"/>
			<path d="M333.3,218.52v-7.67l1.5-1.15c0.12-0.61,0.3-2.46-0.89-6.08h-18.83c-1.32,3.86-1,5.8-0.85,6.34l1.27,1.18v7.38h-31v-7.44
				l1.68-1.49c1.88-1.67,5.8-6.99,8.3-14.12l14.3-41.19c1.28-3.78,0.09-5.89-0.3-6.24l-1.78-1.5v-2.52v-5h36.5v7.44l-1.67,1.49
				c-0.02,0.02-2,1.86-0.42,6.3l14.7,41.2c2.46,7.01,6.31,12.41,8.27,14.02l1.83,1.5v7.56L333.3,218.52L333.3,218.52z
				 M327.06,183.82l-1.38-3.95c0,0-0.94-2.64-1.18-3.34c-0.36,1.02-0.72,2.04-1.07,3.05l-1.48,4.24L327.06,183.82L327.06,183.82z"/>
			<path d="M402.16,217.2c-1.19-3.57-2.67-6.78-4.66-10.13l-8.4-14.37v6.21c0,6.6,2.26,9.83,3.06,10.44l1.94,1.5v7.65H360v-7.9
				l2.26-1.48c0.81-0.53,3.14-3.62,3.14-10.62v-39.9c0-6.67-2.32-9.68-3.14-10.22L360,146.9v-7.91h33.4c18.69,0,30.3,10,30.3,26.1
				c0,9.98-3.99,17.6-11.37,22.01l6.32,10.27c3.15,5.06,6.73,8.38,10.32,9.58l3.42,1.14v7.98l-28.88,5.21L402.16,217.2z
				 M391.1,173.02c7.1,0,8.4-2.49,8.4-7.4c0-1.68,0-6.8-8.13-6.8l-2.27,0.03v14.17H391.1z"/>
		</g>
		<g>
			<path d="M105.4,219.72c-3.14,0-7.25-0.61-11.27-1.67l-3.49-0.92l-1.58-24.42h8.52l1.42,2.63c0.31,0.58,2.06,3.47,5.8,3.47
				c4.58,0,6.2-1.62,6.2-6.2v-34.5c0-7.11-2.26-10.15-3.14-10.72l-2.26-1.48v-7.9h34.5v7.85l-2.19,1.49
				c-0.83,0.57-3.21,3.74-3.21,10.67v31C134.7,209.68,125.12,219.72,105.4,219.72z"/>
			<path d="M178.7,219.52c-23.91,0-40.6-16.9-40.6-41.1c0-25.76,16.53-42.4,42.1-42.4c23.96,0,40.7,16.86,40.7,41
				C220.9,202.04,203.55,219.52,178.7,219.52z M179.2,156.42c-10.14,0-16.2,7.85-16.2,21c0,9.9,2.9,21.7,16.7,21.7
				c9.9,0,16.3-8.28,16.3-21.1C196,169.95,193.82,156.42,179.2,156.42z"/>
			<path d="M259.9,219.02c-23.67,0-40.2-16.57-40.2-40.3c0-25.58,16.57-42.1,42.2-42.1c9.22,0,16.24,1.59,20.5,2.93l3.18,1
				l2.12,23.02l-6.67,3.34l-2.55-2.85c-4.17-4.67-9.69-6.93-16.87-6.93c-14.88,0-17.1,12.91-17.1,20.6c0,6.22,1.6,20.7,16.4,20.7
				c2.22,0,4.21-0.23,6-0.7v-7.28c-2.75,0.58-4.85,1.62-6.28,3.12l-2.55,2.68l-6.61-3.3l2.52-24.11l5.31,0.96
				c1.95,0.35,5.54,0.52,11.31,0.52H293v7.91l-2.1,1.37c-0.29,0.47-1.2,2.59-1.2,10.72v19.23l-2.3,1.48
				C279.96,215.81,268.9,219.02,259.9,219.02z"/>
			<path d="M332.3,217.52v-7.67l1.5-1.15c0.12-0.61,0.3-2.46-0.89-6.08h-18.83c-1.32,3.86-1,5.8-0.85,6.34l1.27,1.18v7.38h-31v-7.44
				l1.68-1.49c1.88-1.67,5.8-6.99,8.3-14.12l14.3-41.19c1.28-3.78,0.09-5.89-0.3-6.24l-1.78-1.5v-2.52v-5h36.5v7.44l-1.67,1.49
				c-0.02,0.02-2,1.86-0.42,6.3l14.7,41.2c2.46,7.01,6.31,12.41,8.27,14.02l1.83,1.5v7.56L332.3,217.52L332.3,217.52z
				 M326.06,182.82l-1.38-3.95c0,0-0.94-2.64-1.18-3.34c-0.36,1.02-0.72,2.04-1.07,3.05l-1.48,4.24L326.06,182.82L326.06,182.82z"/>
			<path d="M401.16,216.2c-1.19-3.57-2.67-6.78-4.66-10.13l-8.4-14.37v6.21c0,6.6,2.26,9.83,3.06,10.44l1.94,1.5v7.65H359v-7.9
				l2.26-1.48c0.81-0.53,3.14-3.62,3.14-10.62v-39.9c0-6.67-2.32-9.68-3.14-10.22L359,145.9v-7.91h33.4c18.69,0,30.3,10,30.3,26.1
				c0,9.98-3.99,17.6-11.37,22.01l6.32,10.27c3.15,5.06,6.73,8.38,10.32,9.58l3.42,1.14v7.98l-28.88,5.21L401.16,216.2z
				 M390.1,172.02c7.1,0,8.4-2.49,8.4-7.4c0-1.68,0-6.8-8.13-6.8l-2.27,0.03v14.17H390.1z"/>
		</g>
		<g>
			<path d="M104.4,218.72c-3.14,0-7.25-0.61-11.27-1.67l-3.49-0.92l-1.58-24.42h8.52l1.42,2.63c0.31,0.58,2.06,3.47,5.8,3.47
				c4.58,0,6.2-1.62,6.2-6.2v-34.5c0-7.11-2.26-10.15-3.14-10.72l-2.26-1.48v-7.9h34.5v7.85l-2.19,1.49
				c-0.83,0.57-3.21,3.74-3.21,10.67v31C133.7,208.68,124.12,218.72,104.4,218.72z"/>
			<path d="M177.7,218.52c-23.91,0-40.6-16.9-40.6-41.1c0-25.76,16.53-42.4,42.1-42.4c23.96,0,40.7,16.86,40.7,41
				C219.9,201.04,202.55,218.52,177.7,218.52z M178.2,155.42c-10.14,0-16.2,7.85-16.2,21c0,9.9,2.9,21.7,16.7,21.7
				c9.9,0,16.3-8.28,16.3-21.1C195,168.95,192.82,155.42,178.2,155.42z"/>
			<path d="M258.9,218.02c-23.67,0-40.2-16.57-40.2-40.3c0-25.58,16.57-42.1,42.2-42.1c9.22,0,16.24,1.59,20.5,2.93l3.18,1
				l2.12,23.02l-6.67,3.34l-2.55-2.85c-4.17-4.67-9.69-6.93-16.87-6.93c-14.88,0-17.1,12.91-17.1,20.6c0,6.22,1.6,20.7,16.4,20.7
				c2.22,0,4.21-0.23,6-0.7v-7.28c-2.75,0.58-4.85,1.62-6.28,3.12l-2.55,2.68l-6.61-3.3l2.52-24.11l5.31,0.96
				c1.95,0.35,5.54,0.52,11.31,0.52H292v7.91l-2.1,1.37c-0.29,0.47-1.2,2.59-1.2,10.72v19.23l-2.3,1.48
				C278.96,214.81,267.9,218.02,258.9,218.02z"/>
			<path d="M331.3,216.52v-7.67l1.5-1.15c0.12-0.61,0.3-2.46-0.89-6.08h-18.83c-1.32,3.86-1,5.8-0.85,6.34l1.27,1.18v7.38h-31v-7.44
				l1.68-1.49c1.88-1.67,5.8-6.99,8.3-14.12l14.3-41.19c1.28-3.78,0.09-5.89-0.3-6.24l-1.78-1.5v-2.52v-5h36.5v7.44l-1.67,1.49
				c-0.02,0.02-2,1.86-0.42,6.3l14.7,41.2c2.46,7.01,6.31,12.41,8.27,14.02l1.83,1.5v7.56L331.3,216.52L331.3,216.52z
				 M325.06,181.82l-1.38-3.95c0,0-0.94-2.64-1.18-3.34c-0.36,1.02-0.72,2.04-1.07,3.05l-1.48,4.24L325.06,181.82L325.06,181.82z"/>
			<path d="M400.16,215.2c-1.19-3.57-2.67-6.78-4.66-10.13l-8.4-14.37v6.21c0,6.6,2.26,9.83,3.06,10.44l1.94,1.5v7.65H358v-7.9
				l2.26-1.48c0.81-0.53,3.14-3.62,3.14-10.62v-39.9c0-6.67-2.32-9.68-3.14-10.22L358,144.9v-7.91h33.4c18.69,0,30.3,10,30.3,26.1
				c0,9.98-3.99,17.6-11.37,22.01l6.32,10.27c3.15,5.06,6.73,8.38,10.32,9.58l3.42,1.14v7.98l-28.88,5.21L400.16,215.2z
				 M389.1,171.02c7.1,0,8.4-2.49,8.4-7.4c0-1.68,0-6.8-8.13-6.8l-2.27,0.03v14.17H389.1z"/>
		</g>
		<g>
			<path d="M103.4,217.72c-3.14,0-7.25-0.61-11.27-1.67l-3.49-0.92l-1.58-24.42h8.52l1.42,2.63c0.31,0.58,2.06,3.47,5.8,3.47
				c4.58,0,6.2-1.62,6.2-6.2v-34.5c0-7.11-2.26-10.15-3.14-10.72l-2.26-1.48v-7.9h34.5v7.85l-2.19,1.49
				c-0.83,0.57-3.21,3.74-3.21,10.67v31C132.7,207.68,123.12,217.72,103.4,217.72z"/>
			<path d="M176.7,217.52c-23.91,0-40.6-16.9-40.6-41.1c0-25.76,16.53-42.4,42.1-42.4c23.96,0,40.7,16.86,40.7,41
				C218.9,200.04,201.55,217.52,176.7,217.52z M177.2,154.42c-10.14,0-16.2,7.85-16.2,21c0,9.9,2.9,21.7,16.7,21.7
				c9.9,0,16.3-8.28,16.3-21.1C194,167.95,191.82,154.42,177.2,154.42z"/>
			<path d="M257.9,217.02c-23.67,0-40.2-16.57-40.2-40.3c0-25.58,16.57-42.1,42.2-42.1c9.22,0,16.24,1.59,20.5,2.93l3.18,1
				l2.12,23.02l-6.67,3.34l-2.55-2.85c-4.17-4.67-9.69-6.93-16.87-6.93c-14.88,0-17.1,12.91-17.1,20.6c0,6.22,1.6,20.7,16.4,20.7
				c2.22,0,4.21-0.23,6-0.7v-7.28c-2.75,0.58-4.85,1.62-6.28,3.12l-2.55,2.68l-6.61-3.3l2.52-24.11l5.31,0.96
				c1.95,0.35,5.54,0.52,11.31,0.52H291v7.91l-2.1,1.37c-0.29,0.47-1.2,2.59-1.2,10.72v19.23l-2.3,1.48
				C277.96,213.81,266.9,217.02,257.9,217.02z"/>
			<path d="M330.3,215.52v-7.67l1.5-1.15c0.12-0.61,0.3-2.46-0.89-6.08h-18.83c-1.32,3.86-1,5.8-0.85,6.34l1.27,1.18v7.38h-31v-7.44
				l1.68-1.49c1.88-1.67,5.8-6.99,8.3-14.12l14.3-41.19c1.28-3.78,0.09-5.89-0.3-6.24l-1.78-1.5v-2.52v-5h36.5v7.44l-1.67,1.49
				c-0.02,0.02-2,1.86-0.42,6.3l14.7,41.2c2.46,7.01,6.31,12.41,8.27,14.02l1.83,1.5v7.56L330.3,215.52L330.3,215.52z
				 M324.06,180.82l-1.38-3.95c0,0-0.94-2.64-1.18-3.34c-0.36,1.02-0.72,2.04-1.07,3.05l-1.48,4.24L324.06,180.82L324.06,180.82z"/>
			<path d="M399.16,214.2c-1.19-3.57-2.67-6.78-4.66-10.13l-8.4-14.37v6.21c0,6.6,2.26,9.83,3.06,10.44l1.94,1.5v7.65H357v-7.9
				l2.26-1.48c0.81-0.53,3.14-3.62,3.14-10.62v-39.9c0-6.67-2.32-9.68-3.14-10.22L357,143.9v-7.91h33.4c18.69,0,30.3,10,30.3,26.1
				c0,9.98-3.99,17.6-11.37,22.01l6.32,10.27c3.15,5.06,6.73,8.38,10.32,9.58l3.42,1.14v7.98l-28.88,5.21L399.16,214.2z
				 M388.1,170.02c7.1,0,8.4-2.49,8.4-7.4c0-1.68,0-6.8-8.13-6.8l-2.27,0.03v14.17H388.1z"/>
		</g>
		<g>
			<path d="M102.4,216.72c-3.14,0-7.25-0.61-11.27-1.67l-3.49-0.92l-1.58-24.42h8.52l1.42,2.63c0.31,0.58,2.06,3.47,5.8,3.47
				c4.58,0,6.2-1.62,6.2-6.2v-34.5c0-7.11-2.26-10.15-3.14-10.72l-2.26-1.48v-7.9h34.5v7.85l-2.19,1.49
				c-0.83,0.57-3.21,3.74-3.21,10.67v31C131.7,206.68,122.12,216.72,102.4,216.72z"/>
			<path d="M175.7,216.52c-23.91,0-40.6-16.9-40.6-41.1c0-25.76,16.53-42.4,42.1-42.4c23.96,0,40.7,16.86,40.7,41
				C217.9,199.04,200.55,216.52,175.7,216.52z M176.2,153.42c-10.14,0-16.2,7.85-16.2,21c0,9.9,2.9,21.7,16.7,21.7
				c9.9,0,16.3-8.28,16.3-21.1C193,166.95,190.82,153.42,176.2,153.42z"/>
			<path d="M256.9,216.02c-23.67,0-40.2-16.57-40.2-40.3c0-25.58,16.57-42.1,42.2-42.1c9.22,0,16.24,1.59,20.5,2.93l3.18,1
				l2.12,23.02l-6.67,3.34l-2.55-2.85c-4.17-4.67-9.69-6.93-16.87-6.93c-14.88,0-17.1,12.91-17.1,20.6c0,6.22,1.6,20.7,16.4,20.7
				c2.22,0,4.21-0.23,6-0.7v-7.28c-2.75,0.58-4.85,1.62-6.28,3.12l-2.55,2.68l-6.61-3.3l2.52-24.11l5.31,0.96
				c1.95,0.35,5.54,0.52,11.31,0.52H290v7.91l-2.1,1.37c-0.29,0.47-1.2,2.59-1.2,10.72v19.23l-2.3,1.48
				C276.96,212.81,265.9,216.02,256.9,216.02z"/>
			<path d="M329.3,214.52v-7.67l1.5-1.15c0.12-0.61,0.3-2.46-0.89-6.08h-18.83c-1.32,3.86-1,5.8-0.85,6.34l1.27,1.18v7.38h-31v-7.44
				l1.68-1.49c1.88-1.67,5.8-6.99,8.3-14.12l14.3-41.19c1.28-3.78,0.09-5.89-0.3-6.24l-1.78-1.5v-2.52v-5h36.5v7.44l-1.67,1.49
				c-0.02,0.02-2,1.86-0.42,6.3l14.7,41.2c2.46,7.01,6.31,12.41,8.27,14.02l1.83,1.5v7.56L329.3,214.52L329.3,214.52z
				 M323.06,179.82l-1.38-3.95c0,0-0.94-2.64-1.18-3.34c-0.36,1.02-0.72,2.04-1.07,3.05l-1.48,4.24L323.06,179.82L323.06,179.82z"/>
			<path d="M398.16,213.2c-1.19-3.57-2.67-6.78-4.66-10.13l-8.4-14.37v6.21c0,6.6,2.26,9.83,3.06,10.44l1.94,1.5v7.65H356v-7.9
				l2.26-1.48c0.81-0.53,3.14-3.62,3.14-10.62v-39.9c0-6.67-2.32-9.68-3.14-10.22L356,142.9v-7.91h33.4c18.69,0,30.3,10,30.3,26.1
				c0,9.98-3.99,17.6-11.37,22.01l6.32,10.27c3.15,5.06,6.73,8.38,10.32,9.58l3.42,1.14v7.98l-28.88,5.21L398.16,213.2z
				 M387.1,169.02c7.1,0,8.4-2.49,8.4-7.4c0-1.68,0-6.8-8.13-6.8l-2.27,0.03v14.17H387.1z"/>
		</g>
		<g>
			<path d="M101.4,215.72c-3.14,0-7.25-0.61-11.27-1.67l-3.49-0.92l-1.58-24.42h8.52l1.42,2.63c0.31,0.58,2.06,3.47,5.8,3.47
				c4.58,0,6.2-1.62,6.2-6.2v-34.5c0-7.11-2.26-10.15-3.14-10.72l-2.26-1.48v-7.9h34.5v7.85l-2.19,1.49
				c-0.83,0.57-3.21,3.74-3.21,10.67v31C130.7,205.68,121.12,215.72,101.4,215.72z"/>
			<path d="M174.7,215.52c-23.91,0-40.6-16.9-40.6-41.1c0-25.76,16.53-42.4,42.1-42.4c23.96,0,40.7,16.86,40.7,41
				C216.9,198.04,199.55,215.52,174.7,215.52z M175.2,152.42c-10.14,0-16.2,7.85-16.2,21c0,9.9,2.9,21.7,16.7,21.7
				c9.9,0,16.3-8.28,16.3-21.1C192,165.95,189.82,152.42,175.2,152.42z"/>
			<path d="M255.9,215.02c-23.67,0-40.2-16.57-40.2-40.3c0-25.58,16.57-42.1,42.2-42.1c9.22,0,16.24,1.59,20.5,2.93l3.18,1
				l2.12,23.02l-6.67,3.34l-2.55-2.85c-4.17-4.67-9.69-6.93-16.87-6.93c-14.88,0-17.1,12.91-17.1,20.6c0,6.22,1.6,20.7,16.4,20.7
				c2.22,0,4.21-0.23,6-0.7v-7.28c-2.75,0.58-4.85,1.62-6.28,3.12l-2.55,2.68l-6.61-3.3l2.52-24.11l5.31,0.96
				c1.95,0.35,5.54,0.52,11.31,0.52H289v7.91l-2.1,1.37c-0.29,0.47-1.2,2.59-1.2,10.72v19.23l-2.3,1.48
				C275.96,211.81,264.9,215.02,255.9,215.02z"/>
			<path d="M328.3,213.52v-7.67l1.5-1.15c0.12-0.61,0.3-2.46-0.89-6.08h-18.83c-1.32,3.86-1,5.8-0.85,6.34l1.27,1.18v7.38h-31v-7.44
				l1.68-1.49c1.88-1.67,5.8-6.99,8.3-14.12l14.3-41.19c1.28-3.78,0.09-5.89-0.3-6.24l-1.78-1.5v-2.52v-5h36.5v7.44l-1.67,1.49
				c-0.02,0.02-2,1.86-0.42,6.3l14.7,41.2c2.46,7.01,6.31,12.41,8.27,14.02l1.83,1.5v7.56L328.3,213.52L328.3,213.52z
				 M322.06,178.82l-1.38-3.95c0,0-0.94-2.64-1.18-3.34c-0.36,1.02-0.72,2.04-1.07,3.05l-1.48,4.24L322.06,178.82L322.06,178.82z"/>
			<path d="M397.16,212.2c-1.19-3.57-2.67-6.78-4.66-10.13l-8.4-14.37v6.21c0,6.6,2.26,9.83,3.06,10.44l1.94,1.5v7.65H355v-7.9
				l2.26-1.48c0.81-0.53,3.14-3.62,3.14-10.62v-39.9c0-6.67-2.32-9.68-3.14-10.22L355,141.9v-7.91h33.4c18.69,0,30.3,10,30.3,26.1
				c0,9.98-3.99,17.6-11.37,22.01l6.32,10.27c3.15,5.06,6.73,8.38,10.32,9.58l3.42,1.14v7.98l-28.88,5.21L397.16,212.2z
				 M386.1,168.02c7.1,0,8.4-2.49,8.4-7.4c0-1.68,0-6.8-8.13-6.8l-2.27,0.03v14.17H386.1z"/>
		</g>
		<g>
			<path d="M100.4,214.72c-3.14,0-7.25-0.61-11.27-1.67l-3.49-0.92l-1.58-24.42h8.52l1.42,2.63c0.31,0.58,2.06,3.47,5.8,3.47
				c4.58,0,6.2-1.62,6.2-6.2v-34.5c0-7.11-2.26-10.15-3.14-10.72l-2.26-1.48v-7.9h34.5v7.85l-2.19,1.49
				c-0.83,0.57-3.21,3.74-3.21,10.67v31C129.7,204.68,120.12,214.72,100.4,214.72z"/>
			<path d="M173.7,214.52c-23.91,0-40.6-16.9-40.6-41.1c0-25.76,16.53-42.4,42.1-42.4c23.96,0,40.7,16.86,40.7,41
				C215.9,197.04,198.55,214.52,173.7,214.52z M174.2,151.42c-10.14,0-16.2,7.85-16.2,21c0,9.9,2.9,21.7,16.7,21.7
				c9.9,0,16.3-8.28,16.3-21.1C191,164.95,188.82,151.42,174.2,151.42z"/>
			<path d="M254.9,214.02c-23.67,0-40.2-16.57-40.2-40.3c0-25.58,16.57-42.1,42.2-42.1c9.22,0,16.24,1.59,20.5,2.93l3.18,1
				l2.12,23.02l-6.67,3.34l-2.55-2.85c-4.17-4.67-9.69-6.93-16.87-6.93c-14.88,0-17.1,12.91-17.1,20.6c0,6.22,1.6,20.7,16.4,20.7
				c2.22,0,4.21-0.23,6-0.7v-7.28c-2.75,0.58-4.85,1.62-6.28,3.12l-2.55,2.68l-6.61-3.3l2.52-24.11l5.31,0.96
				c1.95,0.35,5.54,0.52,11.31,0.52H288v7.91l-2.1,1.37c-0.29,0.47-1.2,2.59-1.2,10.72v19.23l-2.3,1.48
				C274.96,210.81,263.9,214.02,254.9,214.02z"/>
			<path d="M327.3,212.52v-7.67l1.5-1.15c0.12-0.61,0.3-2.46-0.89-6.08h-18.83c-1.32,3.86-1,5.8-0.85,6.34l1.27,1.18v7.38h-31v-7.44
				l1.68-1.49c1.88-1.67,5.8-6.99,8.3-14.12l14.3-41.19c1.28-3.78,0.09-5.89-0.3-6.24l-1.78-1.5v-2.52v-5h36.5v7.44l-1.67,1.49
				c-0.02,0.02-2,1.86-0.42,6.3l14.7,41.2c2.46,7.01,6.31,12.41,8.27,14.02l1.83,1.5v7.56L327.3,212.52L327.3,212.52z
				 M321.06,177.82l-1.38-3.95c0,0-0.94-2.64-1.18-3.34c-0.36,1.02-0.72,2.04-1.07,3.05l-1.48,4.24L321.06,177.82L321.06,177.82z"/>
			<path d="M396.16,211.2c-1.19-3.57-2.67-6.78-4.66-10.13l-8.4-14.37v6.21c0,6.6,2.26,9.83,3.06,10.44l1.94,1.5v7.65H354v-7.9
				l2.26-1.48c0.81-0.53,3.14-3.62,3.14-10.62v-39.9c0-6.67-2.32-9.68-3.14-10.22L354,140.9v-7.91h33.4c18.69,0,30.3,10,30.3,26.1
				c0,9.98-3.99,17.6-11.37,22.01l6.32,10.27c3.15,5.06,6.73,8.38,10.32,9.58l3.42,1.14v7.98l-28.88,5.21L396.16,211.2z
				 M385.1,167.02c7.1,0,8.4-2.49,8.4-7.4c0-1.68,0-6.8-8.13-6.8l-2.27,0.03v14.17H385.1z"/>
		</g>
		<g>
			<path d="M99.4,213.72c-3.14,0-7.25-0.61-11.27-1.67l-3.49-0.92l-1.58-24.42h8.52l1.42,2.63c0.31,0.58,2.06,3.47,5.8,3.47
				c4.58,0,6.2-1.62,6.2-6.2v-34.5c0-7.11-2.26-10.15-3.14-10.72l-2.26-1.48v-7.9h34.5v7.85l-2.19,1.49
				c-0.83,0.57-3.21,3.74-3.21,10.67v31C128.7,203.68,119.12,213.72,99.4,213.72z"/>
			<path d="M172.7,213.52c-23.91,0-40.6-16.9-40.6-41.1c0-25.76,16.53-42.4,42.1-42.4c23.96,0,40.7,16.86,40.7,41
				C214.9,196.04,197.55,213.52,172.7,213.52z M173.2,150.42c-10.14,0-16.2,7.85-16.2,21c0,9.9,2.9,21.7,16.7,21.7
				c9.9,0,16.3-8.28,16.3-21.1C190,163.95,187.82,150.42,173.2,150.42z"/>
			<path d="M253.9,213.02c-23.67,0-40.2-16.57-40.2-40.3c0-25.58,16.57-42.1,42.2-42.1c9.22,0,16.24,1.59,20.5,2.93l3.18,1
				l2.12,23.02l-6.67,3.34l-2.55-2.85c-4.17-4.67-9.69-6.93-16.87-6.93c-14.88,0-17.1,12.91-17.1,20.6c0,6.22,1.6,20.7,16.4,20.7
				c2.22,0,4.21-0.23,6-0.7v-7.28c-2.75,0.58-4.85,1.62-6.28,3.12l-2.55,2.68l-6.61-3.3l2.52-24.11l5.31,0.96
				c1.95,0.35,5.54,0.52,11.31,0.52H287v7.91l-2.1,1.37c-0.29,0.47-1.2,2.59-1.2,10.72v19.23l-2.3,1.48
				C273.96,209.81,262.9,213.02,253.9,213.02z"/>
			<path d="M326.3,211.52v-7.67l1.5-1.15c0.12-0.61,0.3-2.46-0.89-6.08h-18.83c-1.32,3.86-1,5.8-0.85,6.34l1.27,1.18v7.38h-31v-7.44
				l1.68-1.49c1.88-1.67,5.8-6.99,8.3-14.12l14.3-41.19c1.28-3.78,0.09-5.89-0.3-6.24l-1.78-1.5v-2.52v-5h36.5v7.44l-1.67,1.49
				c-0.02,0.02-2,1.86-0.42,6.3l14.7,41.2c2.46,7.01,6.31,12.41,8.27,14.02l1.83,1.5v7.56L326.3,211.52L326.3,211.52z
				 M320.06,176.82l-1.38-3.95c0,0-0.94-2.64-1.18-3.34c-0.36,1.02-0.72,2.04-1.07,3.05l-1.48,4.24L320.06,176.82L320.06,176.82z"/>
			<path d="M395.16,210.2c-1.19-3.57-2.67-6.78-4.66-10.13l-8.4-14.37v6.21c0,6.6,2.26,9.83,3.06,10.44l1.94,1.5v7.65H353v-7.9
				l2.26-1.48c0.81-0.53,3.14-3.62,3.14-10.62v-39.9c0-6.67-2.32-9.68-3.14-10.22L353,139.9v-7.91h33.4c18.69,0,30.3,10,30.3,26.1
				c0,9.98-3.99,17.6-11.37,22.01l6.32,10.27c3.15,5.06,6.73,8.38,10.32,9.58l3.42,1.14v7.98l-28.88,5.21L395.16,210.2z
				 M384.1,166.02c7.1,0,8.4-2.49,8.4-7.4c0-1.68,0-6.8-8.13-6.8l-2.27,0.03v14.17H384.1z"/>
		</g>
		<g>
			<path d="M98.4,212.72c-3.14,0-7.25-0.61-11.27-1.67l-3.49-0.92l-1.58-24.42h8.52l1.42,2.63c0.31,0.58,2.06,3.47,5.8,3.47
				c4.58,0,6.2-1.62,6.2-6.2v-34.5c0-7.11-2.26-10.15-3.14-10.72l-2.26-1.48v-7.9h34.5v7.85l-2.19,1.49
				c-0.83,0.57-3.21,3.74-3.21,10.67v31C127.7,202.68,118.12,212.72,98.4,212.72z"/>
			<path d="M171.7,212.52c-23.91,0-40.6-16.9-40.6-41.1c0-25.76,16.53-42.4,42.1-42.4c23.96,0,40.7,16.86,40.7,41
				C213.9,195.04,196.55,212.52,171.7,212.52z M172.2,149.42c-10.14,0-16.2,7.85-16.2,21c0,9.9,2.9,21.7,16.7,21.7
				c9.9,0,16.3-8.28,16.3-21.1C189,162.95,186.82,149.42,172.2,149.42z"/>
			<path d="M252.9,212.02c-23.67,0-40.2-16.57-40.2-40.3c0-25.58,16.57-42.1,42.2-42.1c9.22,0,16.24,1.59,20.5,2.93l3.18,1
				l2.12,23.02l-6.67,3.34l-2.55-2.85c-4.17-4.67-9.69-6.93-16.87-6.93c-14.88,0-17.1,12.91-17.1,20.6c0,6.22,1.6,20.7,16.4,20.7
				c2.22,0,4.21-0.23,6-0.7v-7.28c-2.75,0.58-4.85,1.62-6.28,3.12l-2.55,2.68l-6.61-3.3l2.52-24.11l5.31,0.96
				c1.95,0.35,5.54,0.52,11.31,0.52H286v7.91l-2.1,1.37c-0.29,0.47-1.2,2.59-1.2,10.72v19.23l-2.3,1.48
				C272.96,208.81,261.9,212.02,252.9,212.02z"/>
			<path d="M325.3,210.52v-7.67l1.5-1.15c0.12-0.61,0.3-2.46-0.89-6.08h-18.83c-1.32,3.86-1,5.8-0.85,6.34l1.27,1.18v7.38h-31v-7.44
				l1.68-1.49c1.88-1.67,5.8-6.99,8.3-14.12l14.3-41.19c1.28-3.78,0.09-5.89-0.3-6.24l-1.78-1.5v-2.52v-5h36.5v7.44l-1.67,1.49
				c-0.02,0.02-2,1.86-0.42,6.3l14.7,41.2c2.46,7.01,6.31,12.41,8.27,14.02l1.83,1.5v7.56L325.3,210.52L325.3,210.52z
				 M319.06,175.82l-1.38-3.95c0,0-0.94-2.64-1.18-3.34c-0.36,1.02-0.72,2.04-1.07,3.05l-1.48,4.24L319.06,175.82L319.06,175.82z"/>
			<path d="M394.16,209.2c-1.19-3.57-2.67-6.78-4.66-10.13l-8.4-14.37v6.21c0,6.6,2.26,9.83,3.06,10.44l1.94,1.5v7.65H352v-7.9
				l2.26-1.48c0.81-0.53,3.14-3.62,3.14-10.62v-39.9c0-6.67-2.32-9.68-3.14-10.22L352,138.9v-7.91h33.4c18.69,0,30.3,10,30.3,26.1
				c0,9.98-3.99,17.6-11.37,22.01l6.32,10.27c3.15,5.06,6.73,8.38,10.32,9.58l3.42,1.14v7.98l-28.88,5.21L394.16,209.2z
				 M383.1,165.02c7.1,0,8.4-2.49,8.4-7.4c0-1.68,0-6.8-8.13-6.8l-2.27,0.03v14.17H383.1z"/>
		</g>
		<g>
			<path d="M97.4,211.72c-3.14,0-7.25-0.61-11.27-1.67l-3.49-0.92l-1.58-24.42h8.52l1.42,2.63c0.31,0.58,2.06,3.47,5.8,3.47
				c4.58,0,6.2-1.62,6.2-6.2v-34.5c0-7.11-2.26-10.15-3.14-10.72l-2.26-1.48v-7.9h34.5v7.85l-2.19,1.49
				c-0.83,0.57-3.21,3.74-3.21,10.67v31C126.7,201.68,117.12,211.72,97.4,211.72z"/>
			<path d="M170.7,211.52c-23.91,0-40.6-16.9-40.6-41.1c0-25.76,16.53-42.4,42.1-42.4c23.96,0,40.7,16.86,40.7,41
				C212.9,194.04,195.55,211.52,170.7,211.52z M171.2,148.42c-10.14,0-16.2,7.85-16.2,21c0,9.9,2.9,21.7,16.7,21.7
				c9.9,0,16.3-8.28,16.3-21.1C188,161.95,185.82,148.42,171.2,148.42z"/>
			<path d="M251.9,211.02c-23.67,0-40.2-16.57-40.2-40.3c0-25.58,16.57-42.1,42.2-42.1c9.22,0,16.24,1.59,20.5,2.93l3.18,1
				l2.12,23.02l-6.67,3.34l-2.55-2.85c-4.17-4.67-9.69-6.93-16.87-6.93c-14.88,0-17.1,12.91-17.1,20.6c0,6.22,1.6,20.7,16.4,20.7
				c2.22,0,4.21-0.23,6-0.7v-7.28c-2.75,0.58-4.85,1.62-6.28,3.12l-2.55,2.68l-6.61-3.3l2.52-24.11l5.31,0.96
				c1.95,0.35,5.54,0.52,11.31,0.52H285v7.91l-2.1,1.37c-0.29,0.47-1.2,2.59-1.2,10.72v19.23l-2.3,1.48
				C271.96,207.81,260.9,211.02,251.9,211.02z"/>
			<path d="M324.3,209.52v-7.67l1.5-1.15c0.12-0.61,0.3-2.46-0.89-6.08h-18.83c-1.32,3.86-1,5.8-0.85,6.34l1.27,1.18v7.38h-31v-7.44
				l1.68-1.49c1.88-1.67,5.8-6.99,8.3-14.12l14.3-41.19c1.28-3.78,0.09-5.89-0.3-6.24l-1.78-1.5v-2.52v-5h36.5v7.44l-1.67,1.49
				c-0.02,0.02-2,1.86-0.42,6.3l14.7,41.2c2.46,7.01,6.31,12.41,8.27,14.02l1.83,1.5v7.56L324.3,209.52L324.3,209.52z
				 M318.06,174.82l-1.38-3.95c0,0-0.94-2.64-1.18-3.34c-0.36,1.02-0.72,2.04-1.07,3.05l-1.48,4.24L318.06,174.82L318.06,174.82z"/>
			<path d="M393.16,208.2c-1.19-3.57-2.67-6.78-4.66-10.13l-8.4-14.37v6.21c0,6.6,2.26,9.83,3.06,10.44l1.94,1.5v7.65H351v-7.9
				l2.26-1.48c0.81-0.53,3.14-3.62,3.14-10.62v-39.9c0-6.67-2.32-9.68-3.14-10.22L351,137.9v-7.91h33.4c18.69,0,30.3,10,30.3,26.1
				c0,9.98-3.99,17.6-11.37,22.01l6.32,10.27c3.15,5.06,6.73,8.38,10.32,9.58l3.42,1.14v7.98l-28.88,5.21L393.16,208.2z
				 M382.1,164.02c7.1,0,8.4-2.49,8.4-7.4c0-1.68,0-6.8-8.13-6.8l-2.27,0.03v14.17H382.1z"/>
		</g>
		<g>
			<path d="M96.4,210.72c-3.14,0-7.25-0.61-11.27-1.67l-3.49-0.92l-1.58-24.42h8.52l1.42,2.63c0.31,0.58,2.06,3.47,5.8,3.47
				c4.58,0,6.2-1.62,6.2-6.2v-34.5c0-7.11-2.26-10.15-3.14-10.72l-2.26-1.48v-7.9h34.5v7.85l-2.19,1.49
				c-0.83,0.57-3.21,3.74-3.21,10.67v31C125.7,200.68,116.12,210.72,96.4,210.72z"/>
			<path d="M169.7,210.52c-23.91,0-40.6-16.9-40.6-41.1c0-25.76,16.53-42.4,42.1-42.4c23.96,0,40.7,16.86,40.7,41
				C211.9,193.04,194.55,210.52,169.7,210.52z M170.2,147.42c-10.14,0-16.2,7.85-16.2,21c0,9.9,2.9,21.7,16.7,21.7
				c9.9,0,16.3-8.28,16.3-21.1C187,160.95,184.82,147.42,170.2,147.42z"/>
			<path d="M250.9,210.02c-23.67,0-40.2-16.57-40.2-40.3c0-25.58,16.57-42.1,42.2-42.1c9.22,0,16.24,1.59,20.5,2.93l3.18,1
				l2.12,23.02l-6.67,3.34l-2.55-2.85c-4.17-4.67-9.69-6.93-16.87-6.93c-14.88,0-17.1,12.91-17.1,20.6c0,6.22,1.6,20.7,16.4,20.7
				c2.22,0,4.21-0.23,6-0.7v-7.28c-2.75,0.58-4.85,1.62-6.28,3.12l-2.55,2.68l-6.61-3.3l2.52-24.11l5.31,0.96
				c1.95,0.35,5.54,0.52,11.31,0.52H284v7.91l-2.1,1.37c-0.29,0.47-1.2,2.59-1.2,10.72v19.23l-2.3,1.48
				C270.96,206.81,259.9,210.02,250.9,210.02z"/>
			<path d="M323.3,208.52v-7.67l1.5-1.15c0.12-0.61,0.3-2.46-0.89-6.08h-18.83c-1.32,3.86-1,5.8-0.85,6.34l1.27,1.18v7.38h-31v-7.44
				l1.68-1.49c1.88-1.67,5.8-6.99,8.3-14.12l14.3-41.19c1.28-3.78,0.09-5.89-0.3-6.24l-1.78-1.5v-2.52v-5h36.5v7.44l-1.67,1.49
				c-0.02,0.02-2,1.86-0.42,6.3l14.7,41.2c2.46,7.01,6.31,12.41,8.27,14.02l1.83,1.5v7.56L323.3,208.52L323.3,208.52z
				 M317.06,173.82l-1.38-3.95c0,0-0.94-2.64-1.18-3.34c-0.36,1.02-0.72,2.04-1.07,3.05l-1.48,4.24L317.06,173.82L317.06,173.82z"/>
			<path d="M392.16,207.2c-1.19-3.57-2.67-6.78-4.66-10.13l-8.4-14.37v6.21c0,6.6,2.26,9.83,3.06,10.44l1.94,1.5v7.65H350v-7.9
				l2.26-1.48c0.81-0.53,3.14-3.62,3.14-10.62v-39.9c0-6.67-2.32-9.68-3.14-10.22L350,136.9v-7.91h33.4c18.69,0,30.3,10,30.3,26.1
				c0,9.98-3.99,17.6-11.37,22.01l6.32,10.27c3.15,5.06,6.73,8.38,10.32,9.58l3.42,1.14v7.98l-28.88,5.21L392.16,207.2z
				 M381.1,163.02c7.1,0,8.4-2.49,8.4-7.4c0-1.68,0-6.8-8.13-6.8l-2.27,0.03v14.17H381.1z"/>
		</g>
	</g>
	<g>
		<g>
			<path class="st1" d="M101.4,215.72c-3.14,0-7.25-0.61-11.27-1.67l-3.49-0.92l-1.58-24.42h8.52l1.42,2.63
				c0.31,0.58,2.06,3.47,5.8,3.47c4.58,0,6.2-1.62,6.2-6.2v-34.5c0-7.11-2.26-10.15-3.14-10.72l-2.26-1.48v-7.9h34.5v7.85
				l-2.19,1.49c-0.83,0.57-3.21,3.74-3.21,10.67v31C130.7,205.68,121.12,215.72,101.4,215.72z"/>
			<path class="st1" d="M174.7,215.52c-23.91,0-40.6-16.9-40.6-41.1c0-25.76,16.53-42.4,42.1-42.4c23.96,0,40.7,16.86,40.7,41
				C216.9,198.04,199.55,215.52,174.7,215.52z M175.2,152.42c-10.14,0-16.2,7.85-16.2,21c0,9.9,2.9,21.7,16.7,21.7
				c9.9,0,16.3-8.28,16.3-21.1C192,165.95,189.82,152.42,175.2,152.42z"/>
			<path class="st1" d="M255.9,215.02c-23.67,0-40.2-16.57-40.2-40.3c0-25.58,16.57-42.1,42.2-42.1c9.22,0,16.24,1.59,20.5,2.93
				l3.18,1l2.12,23.02l-6.67,3.34l-2.55-2.85c-4.17-4.67-9.69-6.93-16.87-6.93c-14.88,0-17.1,12.91-17.1,20.6
				c0,6.22,1.6,20.7,16.4,20.7c2.22,0,4.21-0.23,6-0.7v-7.28c-2.75,0.58-4.85,1.62-6.28,3.12l-2.55,2.68l-6.61-3.3l2.52-24.11
				l5.31,0.96c1.95,0.35,5.54,0.52,11.31,0.52H289v7.91l-2.1,1.37c-0.29,0.47-1.2,2.59-1.2,10.72v19.23l-2.3,1.48
				C275.96,211.81,264.9,215.02,255.9,215.02z"/>
			<path class="st1" d="M328.3,213.52v-7.67l1.5-1.15c0.12-0.61,0.3-2.46-0.89-6.08h-18.83c-1.32,3.86-1,5.8-0.85,6.34l1.27,1.18
				v7.38h-31v-7.44l1.68-1.49c1.88-1.67,5.8-6.99,8.3-14.12l14.3-41.19c1.28-3.78,0.09-5.89-0.3-6.24l-1.78-1.5v-2.52v-5h36.5v7.44
				l-1.67,1.49c-0.02,0.02-2,1.86-0.42,6.3l14.7,41.2c2.46,7.01,6.31,12.41,8.27,14.02l1.83,1.5v7.56L328.3,213.52L328.3,213.52z
				 M322.06,178.82l-1.38-3.95c0,0-0.94-2.64-1.18-3.34c-0.36,1.02-0.72,2.04-1.07,3.05l-1.48,4.24L322.06,178.82L322.06,178.82z"/>
			<path class="st1" d="M397.16,212.2c-1.19-3.57-2.67-6.78-4.66-10.13l-8.4-14.37v6.21c0,6.6,2.26,9.83,3.06,10.44l1.94,1.5v7.65
				H355v-7.9l2.26-1.48c0.81-0.53,3.14-3.62,3.14-10.62v-39.9c0-6.67-2.32-9.68-3.14-10.22L355,141.9v-7.91h33.4
				c18.69,0,30.3,10,30.3,26.1c0,9.98-3.99,17.6-11.37,22.01l6.32,10.27c3.15,5.06,6.73,8.38,10.32,9.58l3.42,1.14v7.98l-28.88,5.21
				L397.16,212.2z M386.1,168.02c7.1,0,8.4-2.49,8.4-7.4c0-1.68,0-6.8-8.13-6.8l-2.27,0.03v14.17H386.1z"/>
		</g>
		<g>
			<path class="st1" d="M100.4,214.72c-3.14,0-7.25-0.61-11.27-1.67l-3.49-0.92l-1.58-24.42h8.52l1.42,2.63
				c0.31,0.58,2.06,3.47,5.8,3.47c4.58,0,6.2-1.62,6.2-6.2v-34.5c0-7.11-2.26-10.15-3.14-10.72l-2.26-1.48v-7.9h34.5v7.85
				l-2.19,1.49c-0.83,0.57-3.21,3.74-3.21,10.67v31C129.7,204.68,120.12,214.72,100.4,214.72z"/>
			<path class="st1" d="M173.7,214.52c-23.91,0-40.6-16.9-40.6-41.1c0-25.76,16.53-42.4,42.1-42.4c23.96,0,40.7,16.86,40.7,41
				C215.9,197.04,198.55,214.52,173.7,214.52z M174.2,151.42c-10.14,0-16.2,7.85-16.2,21c0,9.9,2.9,21.7,16.7,21.7
				c9.9,0,16.3-8.28,16.3-21.1C191,164.95,188.82,151.42,174.2,151.42z"/>
			<path class="st1" d="M254.9,214.02c-23.67,0-40.2-16.57-40.2-40.3c0-25.58,16.57-42.1,42.2-42.1c9.22,0,16.24,1.59,20.5,2.93
				l3.18,1l2.12,23.02l-6.67,3.34l-2.55-2.85c-4.17-4.67-9.69-6.93-16.87-6.93c-14.88,0-17.1,12.91-17.1,20.6
				c0,6.22,1.6,20.7,16.4,20.7c2.22,0,4.21-0.23,6-0.7v-7.28c-2.75,0.58-4.85,1.62-6.28,3.12l-2.55,2.68l-6.61-3.3l2.52-24.11
				l5.31,0.96c1.95,0.35,5.54,0.52,11.31,0.52H288v7.91l-2.1,1.37c-0.29,0.47-1.2,2.59-1.2,10.72v19.23l-2.3,1.48
				C274.96,210.81,263.9,214.02,254.9,214.02z"/>
			<path class="st1" d="M327.3,212.52v-7.67l1.5-1.15c0.12-0.61,0.3-2.46-0.89-6.08h-18.83c-1.32,3.86-1,5.8-0.85,6.34l1.27,1.18
				v7.38h-31v-7.44l1.68-1.49c1.88-1.67,5.8-6.99,8.3-14.12l14.3-41.19c1.28-3.78,0.09-5.89-0.3-6.24l-1.78-1.5v-2.52v-5h36.5v7.44
				l-1.67,1.49c-0.02,0.02-2,1.86-0.42,6.3l14.7,41.2c2.46,7.01,6.31,12.41,8.27,14.02l1.83,1.5v7.56L327.3,212.52L327.3,212.52z
				 M321.06,177.82l-1.38-3.95c0,0-0.94-2.64-1.18-3.34c-0.36,1.02-0.72,2.04-1.07,3.05l-1.48,4.24L321.06,177.82L321.06,177.82z"/>
			<path class="st1" d="M396.16,211.2c-1.19-3.57-2.67-6.78-4.66-10.13l-8.4-14.37v6.21c0,6.6,2.26,9.83,3.06,10.44l1.94,1.5v7.65
				H354v-7.9l2.26-1.48c0.81-0.53,3.14-3.62,3.14-10.62v-39.9c0-6.67-2.32-9.68-3.14-10.22L354,140.9v-7.91h33.4
				c18.69,0,30.3,10,30.3,26.1c0,9.98-3.99,17.6-11.37,22.01l6.32,10.27c3.15,5.06,6.73,8.38,10.32,9.58l3.42,1.14v7.98l-28.88,5.21
				L396.16,211.2z M385.1,167.02c7.1,0,8.4-2.49,8.4-7.4c0-1.68,0-6.8-8.13-6.8l-2.27,0.03v14.17H385.1z"/>
		</g>
		<g>
			<path class="st1" d="M99.4,213.72c-3.14,0-7.25-0.61-11.27-1.67l-3.49-0.92l-1.58-24.42h8.52l1.42,2.63
				c0.31,0.58,2.06,3.47,5.8,3.47c4.58,0,6.2-1.62,6.2-6.2v-34.5c0-7.11-2.26-10.15-3.14-10.72l-2.26-1.48v-7.9h34.5v7.85
				l-2.19,1.49c-0.83,0.57-3.21,3.74-3.21,10.67v31C128.7,203.68,119.12,213.72,99.4,213.72z"/>
			<path class="st1" d="M172.7,213.52c-23.91,0-40.6-16.9-40.6-41.1c0-25.76,16.53-42.4,42.1-42.4c23.96,0,40.7,16.86,40.7,41
				C214.9,196.04,197.55,213.52,172.7,213.52z M173.2,150.42c-10.14,0-16.2,7.85-16.2,21c0,9.9,2.9,21.7,16.7,21.7
				c9.9,0,16.3-8.28,16.3-21.1C190,163.95,187.82,150.42,173.2,150.42z"/>
			<path class="st1" d="M253.9,213.02c-23.67,0-40.2-16.57-40.2-40.3c0-25.58,16.57-42.1,42.2-42.1c9.22,0,16.24,1.59,20.5,2.93
				l3.18,1l2.12,23.02l-6.67,3.34l-2.55-2.85c-4.17-4.67-9.69-6.93-16.87-6.93c-14.88,0-17.1,12.91-17.1,20.6
				c0,6.22,1.6,20.7,16.4,20.7c2.22,0,4.21-0.23,6-0.7v-7.28c-2.75,0.58-4.85,1.62-6.28,3.12l-2.55,2.68l-6.61-3.3l2.52-24.11
				l5.31,0.96c1.95,0.35,5.54,0.52,11.31,0.52H287v7.91l-2.1,1.37c-0.29,0.47-1.2,2.59-1.2,10.72v19.23l-2.3,1.48
				C273.96,209.81,262.9,213.02,253.9,213.02z"/>
			<path class="st1" d="M326.3,211.52v-7.67l1.5-1.15c0.12-0.61,0.3-2.46-0.89-6.08h-18.83c-1.32,3.86-1,5.8-0.85,6.34l1.27,1.18
				v7.38h-31v-7.44l1.68-1.49c1.88-1.67,5.8-6.99,8.3-14.12l14.3-41.19c1.28-3.78,0.09-5.89-0.3-6.24l-1.78-1.5v-2.52v-5h36.5v7.44
				l-1.67,1.49c-0.02,0.02-2,1.86-0.42,6.3l14.7,41.2c2.46,7.01,6.31,12.41,8.27,14.02l1.83,1.5v7.56L326.3,211.52L326.3,211.52z
				 M320.06,176.82l-1.38-3.95c0,0-0.94-2.64-1.18-3.34c-0.36,1.02-0.72,2.04-1.07,3.05l-1.48,4.24L320.06,176.82L320.06,176.82z"/>
			<path class="st1" d="M395.16,210.2c-1.19-3.57-2.67-6.78-4.66-10.13l-8.4-14.37v6.21c0,6.6,2.26,9.83,3.06,10.44l1.94,1.5v7.65
				H353v-7.9l2.26-1.48c0.81-0.53,3.14-3.62,3.14-10.62v-39.9c0-6.67-2.32-9.68-3.14-10.22L353,139.9v-7.91h33.4
				c18.69,0,30.3,10,30.3,26.1c0,9.98-3.99,17.6-11.37,22.01l6.32,10.27c3.15,5.06,6.73,8.38,10.32,9.58l3.42,1.14v7.98l-28.88,5.21
				L395.16,210.2z M384.1,166.02c7.1,0,8.4-2.49,8.4-7.4c0-1.68,0-6.8-8.13-6.8l-2.27,0.03v14.17H384.1z"/>
		</g>
		<g>
			<path class="st1" d="M98.4,212.72c-3.14,0-7.25-0.61-11.27-1.67l-3.49-0.92l-1.58-24.42h8.52l1.42,2.63
				c0.31,0.58,2.06,3.47,5.8,3.47c4.58,0,6.2-1.62,6.2-6.2v-34.5c0-7.11-2.26-10.15-3.14-10.72l-2.26-1.48v-7.9h34.5v7.85
				l-2.19,1.49c-0.83,0.57-3.21,3.74-3.21,10.67v31C127.7,202.68,118.12,212.72,98.4,212.72z"/>
			<path class="st1" d="M171.7,212.52c-23.91,0-40.6-16.9-40.6-41.1c0-25.76,16.53-42.4,42.1-42.4c23.96,0,40.7,16.86,40.7,41
				C213.9,195.04,196.55,212.52,171.7,212.52z M172.2,149.42c-10.14,0-16.2,7.85-16.2,21c0,9.9,2.9,21.7,16.7,21.7
				c9.9,0,16.3-8.28,16.3-21.1C189,162.95,186.82,149.42,172.2,149.42z"/>
			<path class="st1" d="M252.9,212.02c-23.67,0-40.2-16.57-40.2-40.3c0-25.58,16.57-42.1,42.2-42.1c9.22,0,16.24,1.59,20.5,2.93
				l3.18,1l2.12,23.02l-6.67,3.34l-2.55-2.85c-4.17-4.67-9.69-6.93-16.87-6.93c-14.88,0-17.1,12.91-17.1,20.6
				c0,6.22,1.6,20.7,16.4,20.7c2.22,0,4.21-0.23,6-0.7v-7.28c-2.75,0.58-4.85,1.62-6.28,3.12l-2.55,2.68l-6.61-3.3l2.52-24.11
				l5.31,0.96c1.95,0.35,5.54,0.52,11.31,0.52H286v7.91l-2.1,1.37c-0.29,0.47-1.2,2.59-1.2,10.72v19.23l-2.3,1.48
				C272.96,208.81,261.9,212.02,252.9,212.02z"/>
			<path class="st1" d="M325.3,210.52v-7.67l1.5-1.15c0.12-0.61,0.3-2.46-0.89-6.08h-18.83c-1.32,3.86-1,5.8-0.85,6.34l1.27,1.18
				v7.38h-31v-7.44l1.68-1.49c1.88-1.67,5.8-6.99,8.3-14.12l14.3-41.19c1.28-3.78,0.09-5.89-0.3-6.24l-1.78-1.5v-2.52v-5h36.5v7.44
				l-1.67,1.49c-0.02,0.02-2,1.86-0.42,6.3l14.7,41.2c2.46,7.01,6.31,12.41,8.27,14.02l1.83,1.5v7.56L325.3,210.52L325.3,210.52z
				 M319.06,175.82l-1.38-3.95c0,0-0.94-2.64-1.18-3.34c-0.36,1.02-0.72,2.04-1.07,3.05l-1.48,4.24L319.06,175.82L319.06,175.82z"/>
			<path class="st1" d="M394.16,209.2c-1.19-3.57-2.67-6.78-4.66-10.13l-8.4-14.37v6.21c0,6.6,2.26,9.83,3.06,10.44l1.94,1.5v7.65
				H352v-7.9l2.26-1.48c0.81-0.53,3.14-3.62,3.14-10.62v-39.9c0-6.67-2.32-9.68-3.14-10.22L352,138.9v-7.91h33.4
				c18.69,0,30.3,10,30.3,26.1c0,9.98-3.99,17.6-11.37,22.01l6.32,10.27c3.15,5.06,6.73,8.38,10.32,9.58l3.42,1.14v7.98l-28.88,5.21
				L394.16,209.2z M383.1,165.02c7.1,0,8.4-2.49,8.4-7.4c0-1.68,0-6.8-8.13-6.8l-2.27,0.03v14.17H383.1z"/>
		</g>
		<g>
			<path class="st1" d="M97.4,211.72c-3.14,0-7.25-0.61-11.27-1.67l-3.49-0.92l-1.58-24.42h8.52l1.42,2.63
				c0.31,0.58,2.06,3.47,5.8,3.47c4.58,0,6.2-1.62,6.2-6.2v-34.5c0-7.11-2.26-10.15-3.14-10.72l-2.26-1.48v-7.9h34.5v7.85
				l-2.19,1.49c-0.83,0.57-3.21,3.74-3.21,10.67v31C126.7,201.68,117.12,211.72,97.4,211.72z"/>
			<path class="st1" d="M170.7,211.52c-23.91,0-40.6-16.9-40.6-41.1c0-25.76,16.53-42.4,42.1-42.4c23.96,0,40.7,16.86,40.7,41
				C212.9,194.04,195.55,211.52,170.7,211.52z M171.2,148.42c-10.14,0-16.2,7.85-16.2,21c0,9.9,2.9,21.7,16.7,21.7
				c9.9,0,16.3-8.28,16.3-21.1C188,161.95,185.82,148.42,171.2,148.42z"/>
			<path class="st1" d="M251.9,211.02c-23.67,0-40.2-16.57-40.2-40.3c0-25.58,16.57-42.1,42.2-42.1c9.22,0,16.24,1.59,20.5,2.93
				l3.18,1l2.12,23.02l-6.67,3.34l-2.55-2.85c-4.17-4.67-9.69-6.93-16.87-6.93c-14.88,0-17.1,12.91-17.1,20.6
				c0,6.22,1.6,20.7,16.4,20.7c2.22,0,4.21-0.23,6-0.7v-7.28c-2.75,0.58-4.85,1.62-6.28,3.12l-2.55,2.68l-6.61-3.3l2.52-24.11
				l5.31,0.96c1.95,0.35,5.54,0.52,11.31,0.52H285v7.91l-2.1,1.37c-0.29,0.47-1.2,2.59-1.2,10.72v19.23l-2.3,1.48
				C271.96,207.81,260.9,211.02,251.9,211.02z"/>
			<path class="st1" d="M324.3,209.52v-7.67l1.5-1.15c0.12-0.61,0.3-2.46-0.89-6.08h-18.83c-1.32,3.86-1,5.8-0.85,6.34l1.27,1.18
				v7.38h-31v-7.44l1.68-1.49c1.88-1.67,5.8-6.99,8.3-14.12l14.3-41.19c1.28-3.78,0.09-5.89-0.3-6.24l-1.78-1.5v-2.52v-5h36.5v7.44
				l-1.67,1.49c-0.02,0.02-2,1.86-0.42,6.3l14.7,41.2c2.46,7.01,6.31,12.41,8.27,14.02l1.83,1.5v7.56L324.3,209.52L324.3,209.52z
				 M318.06,174.82l-1.38-3.95c0,0-0.94-2.64-1.18-3.34c-0.36,1.02-0.72,2.04-1.07,3.05l-1.48,4.24L318.06,174.82L318.06,174.82z"/>
			<path class="st1" d="M393.16,208.2c-1.19-3.57-2.67-6.78-4.66-10.13l-8.4-14.37v6.21c0,6.6,2.26,9.83,3.06,10.44l1.94,1.5v7.65
				H351v-7.9l2.26-1.48c0.81-0.53,3.14-3.62,3.14-10.62v-39.9c0-6.67-2.32-9.68-3.14-10.22L351,137.9v-7.91h33.4
				c18.69,0,30.3,10,30.3,26.1c0,9.98-3.99,17.6-11.37,22.01l6.32,10.27c3.15,5.06,6.73,8.38,10.32,9.58l3.42,1.14v7.98l-28.88,5.21
				L393.16,208.2z M382.1,164.02c7.1,0,8.4-2.49,8.4-7.4c0-1.68,0-6.8-8.13-6.8l-2.27,0.03v14.17H382.1z"/>
		</g>
		<g>
			<path class="st1" d="M96.4,210.72c-3.14,0-7.25-0.61-11.27-1.67l-3.49-0.92l-1.58-24.42h8.52l1.42,2.63
				c0.31,0.58,2.06,3.47,5.8,3.47c4.58,0,6.2-1.62,6.2-6.2v-34.5c0-7.11-2.26-10.15-3.14-10.72l-2.26-1.48v-7.9h34.5v7.85
				l-2.19,1.49c-0.83,0.57-3.21,3.74-3.21,10.67v31C125.7,200.68,116.12,210.72,96.4,210.72z"/>
			<path class="st1" d="M169.7,210.52c-23.91,0-40.6-16.9-40.6-41.1c0-25.76,16.53-42.4,42.1-42.4c23.96,0,40.7,16.86,40.7,41
				C211.9,193.04,194.55,210.52,169.7,210.52z M170.2,147.42c-10.14,0-16.2,7.85-16.2,21c0,9.9,2.9,21.7,16.7,21.7
				c9.9,0,16.3-8.28,16.3-21.1C187,160.95,184.82,147.42,170.2,147.42z"/>
			<path class="st1" d="M250.9,210.02c-23.67,0-40.2-16.57-40.2-40.3c0-25.58,16.57-42.1,42.2-42.1c9.22,0,16.24,1.59,20.5,2.93
				l3.18,1l2.12,23.02l-6.67,3.34l-2.55-2.85c-4.17-4.67-9.69-6.93-16.87-6.93c-14.88,0-17.1,12.91-17.1,20.6
				c0,6.22,1.6,20.7,16.4,20.7c2.22,0,4.21-0.23,6-0.7v-7.28c-2.75,0.58-4.85,1.62-6.28,3.12l-2.55,2.68l-6.61-3.3l2.52-24.11
				l5.31,0.96c1.95,0.35,5.54,0.52,11.31,0.52H284v7.91l-2.1,1.37c-0.29,0.47-1.2,2.59-1.2,10.72v19.23l-2.3,1.48
				C270.96,206.81,259.9,210.02,250.9,210.02z"/>
			<path class="st1" d="M323.3,208.52v-7.67l1.5-1.15c0.12-0.61,0.3-2.46-0.89-6.08h-18.83c-1.32,3.86-1,5.8-0.85,6.34l1.27,1.18
				v7.38h-31v-7.44l1.68-1.49c1.88-1.67,5.8-6.99,8.3-14.12l14.3-41.19c1.28-3.78,0.09-5.89-0.3-6.24l-1.78-1.5v-2.52v-5h36.5v7.44
				l-1.67,1.49c-0.02,0.02-2,1.86-0.42,6.3l14.7,41.2c2.46,7.01,6.31,12.41,8.27,14.02l1.83,1.5v7.56L323.3,208.52L323.3,208.52z
				 M317.06,173.82l-1.38-3.95c0,0-0.94-2.64-1.18-3.34c-0.36,1.02-0.72,2.04-1.07,3.05l-1.48,4.24L317.06,173.82L317.06,173.82z"/>
			<path class="st1" d="M392.16,207.2c-1.19-3.57-2.67-6.78-4.66-10.13l-8.4-14.37v6.21c0,6.6,2.26,9.83,3.06,10.44l1.94,1.5v7.65
				H350v-7.9l2.26-1.48c0.81-0.53,3.14-3.62,3.14-10.62v-39.9c0-6.67-2.32-9.68-3.14-10.22L350,136.9v-7.91h33.4
				c18.69,0,30.3,10,30.3,26.1c0,9.98-3.99,17.6-11.37,22.01l6.32,10.27c3.15,5.06,6.73,8.38,10.32,9.58l3.42,1.14v7.98l-28.88,5.21
				L392.16,207.2z M381.1,163.02c7.1,0,8.4-2.49,8.4-7.4c0-1.68,0-6.8-8.13-6.8l-2.27,0.03v14.17H381.1z"/>
		</g>
	</g>
	<g class="st0">
		<path class="st4" d="M86.4,204.22l-1-15.5h0.2c0.7,1.3,3.8,6.1,10.2,6.1c7.5,0,11.2-4,11.2-11.2v-34.5c0-8.4-2.8-13.2-5.4-14.9
			v-0.2h24.5v0.2c-2.5,1.7-5.4,6.6-5.4,14.8v31c0,17.7-7.3,25.7-24.3,25.7C93.9,205.72,90.2,205.22,86.4,204.22z"/>
		<path class="st4" d="M134.1,169.42c0-22.5,14-37.4,37.1-37.4c21.4,0,35.7,14.5,35.7,36c0,22.3-14.9,37.5-37.2,37.5
			C147.3,205.52,134.1,189.92,134.1,169.42z M192,169.02c0-16.9-8.2-26.6-21.8-26.6c-13.2,0-21.2,10.4-21.2,26
			c0,16.4,7.4,26.7,21.7,26.7C183,195.12,192,185.02,192,169.02z"/>
		<path class="st4" d="M279,166.32v0.2c-2.3,1.5-3.3,5.8-3.3,14.8v16.5c-6.7,4.3-16.8,7.2-24.8,7.2c-20.9,0-35.2-14.5-35.2-35.3
			c0-23.2,15-37.1,37.2-37.1c7.3,0,13.9,1.1,19,2.7l1.5,16.3l-0.2,0.1c-5.1-5.7-12-8.6-20.6-8.6c-14,0-22.1,9.9-22.1,25.6
			c0,15.9,8.1,25.7,21.4,25.7c4.2,0,7.8-0.7,11-2.2v-16.3c-5.2,0.1-11.1,1.2-14.9,5.2l-0.2-0.1l1.6-15.3c2.2,0.4,5.8,0.6,12.2,0.6
			H279z"/>
		<path class="st4" d="M350.9,203.32v0.2h-22.6v-0.2c1.7-1.3,2.5-5.4,0-12.3l-0.9-2.4h-25.8l-0.9,2.4c-2.6,6.9-1.6,11-0.2,12.3v0.2
			h-21v-0.2c2.7-2.4,7-8.5,9.7-16.2l14.3-41.2c2-5.9,0.1-10.1-1.8-11.7v-0.2h26.5v0.2c-1.9,1.7-3.9,5.8-1.8,11.7l14.7,41.2
			C343.8,194.82,348.1,201.02,350.9,203.32z M308.6,168.22l-3.7,10.6h19.2l-3.7-10.6c-2.3-6.5-4.8-13.2-5.8-20.9h-0.4
			C313.3,155.02,310.9,161.72,308.6,168.22z"/>
		<path class="st4" d="M417.4,201.72v0.2l-20.5,3.7c-1.3-3.9-2.9-7.4-5.1-11.1l-15.5-26.5h4.8c8.6,0,13.4-3.5,13.4-12.4
			c0-7.3-4.8-11.9-13.4-11.8l-7,0.1v45c0,7.9,2.8,12.7,5,14.4v0.2H355v-0.2c2.6-1.7,5.4-6.6,5.4-14.8v-39.9c0-7.9-2.8-12.7-5.4-14.4
			v-0.2h28.4c16,0,25.3,8.1,25.3,21.1c0,10.6-5.2,17.1-13.6,19.8l9.3,15.1C408.2,196.12,412.6,200.12,417.4,201.72z"/>
	</g>
</g>
</svg>
