<?xml version="1.0" encoding="utf-8"?>
<!-- Generator: Adobe Illustrator 26.0.0, SVG Export Plug-In . SVG Version: 6.00 Build 0)  -->
<svg version="1.1" id="Camada_1" xmlns="http://www.w3.org/2000/svg" xmlns:xlink="http://www.w3.org/1999/xlink" x="0px" y="0px"
	 viewBox="0 0 500 300" style="enable-background:new 0 0 500 300;" xml:space="preserve">
<style type="text/css">
	.st0{fill:#DCDCDC;stroke:#000000;stroke-miterlimit:10;}
	.st1{fill:#8CCDF2;stroke:#000000;stroke-miterlimit:10;}
</style>
<path class="st0" d="M380.83,176.45c0,17.2-13.94,31.14-31.14,31.14H150.31c-8.6,0-16.38-3.48-22.02-9.12s-9.12-13.42-9.12-22.02
	c0-6.28,1.85-12.12,5.05-17.01c-2.41-4.16-3.78-8.99-3.78-14.14c0-15.67,12.7-28.37,28.36-28.37c4.51,0,8.78,1.05,12.56,2.93
	c3.99-15.77,18.28-27.44,35.29-27.44c17.57,0,32.23,12.45,35.66,29.01c2.12-0.66,4.37-1.02,6.7-1.02c5.94,0,11.34,2.31,15.35,6.1
	c3.18-7.94,11.2-13.57,20.58-13.57c3.62,0,7.03,0.84,10.04,2.33c6.69-8.58,17.82-14.19,30.43-14.19c18.85,0,34.42,12.56,36.75,28.8
	c0.1-0.01,0.2-0.01,0.3-0.01c9.76,0,17.67,7.91,17.67,17.67c0,1.67-0.23,3.29-0.68,4.83c0.79,0.65,1.54,1.33,2.26,2.05
	C377.35,160.06,380.83,167.85,380.83,176.45z"/>
<path class="st1" d="M230.62,149.92c0,2.79-1.15,5.32-3,7.15c-1.85,1.83-4.41,2.96-7.23,2.96h-12.42c0,3.71-3.05,6.72-6.8,6.72
	c-1.4,0-2.7-0.42-3.78-1.14c-2.01,2.4-5.27,3.96-8.95,3.96c-6.1,0-11.04-4.27-11.04-9.54c0-0.48,0.04-0.96,0.12-1.42
	c-3-1.76-5-4.99-5-8.69c0-2.62,1.01-5.01,2.67-6.81c-0.33-0.77-0.52-1.61-0.52-2.5c0-3.47,2.85-6.29,6.36-6.29
	c1.28,0,2.49,0.38,3.49,1.03c1.66-2.31,4.39-3.82,7.48-3.82c3.5,0,6.54,1.93,8.09,4.78c1.03-0.56,2.21-0.88,3.46-0.88
	c0.74,0,1.45,0.11,2.12,0.31c2.2-3.21,5.92-5.31,10.14-5.31c6.77,0,12.26,5.43,12.26,12.12c0,0.22-0.01,0.43-0.02,0.65
	C229.64,144.99,230.62,147.34,230.62,149.92z"/>
<path class="st1" d="M263.46,149.92c0,2.79,1.15,5.32,3,7.15c1.85,1.83,4.41,2.96,7.23,2.96h12.42c0,3.71,3.05,6.72,6.8,6.72
	c1.4,0,2.7-0.42,3.78-1.14c2.01,2.4,5.27,3.96,8.95,3.96c6.1,0,11.04-4.27,11.04-9.54c0-0.48-0.04-0.96-0.12-1.42
	c3-1.76,5-4.99,5-8.69c0-2.62-1.01-5.01-2.67-6.81c0.33-0.77,0.52-1.61,0.52-2.5c0-3.47-2.85-6.29-6.36-6.29
	c-1.28,0-2.49,0.38-3.49,1.03c-1.66-2.31-4.39-3.82-7.48-3.82c-3.5,0-6.54,1.93-8.09,4.78c-1.03-0.56-2.21-0.88-3.46-0.88
	c-0.74,0-1.45,0.11-2.12,0.31c-2.2-3.21-5.92-5.31-10.14-5.31c-6.77,0-12.26,5.43-12.26,12.12c0,0.22,0.01,0.43,0.02,0.65
	C264.44,144.99,263.46,147.34,263.46,149.92z"/>
</svg>
