<?xml version="1.0" encoding="utf-8"?>
<!-- Generator: Adobe Illustrator 26.0.0, SVG Export Plug-In . SVG Version: 6.00 Build 0)  -->
<svg version="1.1" id="Camada_1" xmlns="http://www.w3.org/2000/svg" xmlns:xlink="http://www.w3.org/1999/xlink" x="0px" y="0px"
	 viewBox="0 0 500 300" style="enable-background:new 0 0 500 300;" xml:space="preserve">
<style type="text/css">
	.st0{fill:#FFFFFF;stroke:#000000;stroke-width:0.5;stroke-miterlimit:10;}
</style>
<g>
	<g>
		<path class="st0" d="M435.5,149.98c0,7.98-2.56,15.37-6.92,21.4c-0.5,14.52-12.58,26.13-27.39,26.13
			c-8.24,0-15.63-3.59-20.66-9.28c-4.33,2.85-9.54,4.5-15.13,4.5c-5.85,0-11.26-1.8-15.7-4.88c-4.8,4.07-11.05,6.53-17.86,6.53
			c-6.97,0-13.33-2.57-18.17-6.8c-4.98,5.01-11.91,8.12-19.57,8.12c-7.5,0-14.3-2.97-19.25-7.8c-4.78,4.04-11,6.47-17.78,6.47
			c-6.1,0-11.73-1.97-16.29-5.29c-4.04,2.31-8.74,3.64-13.74,3.64c-14.59,0-26.52-11.27-27.37-25.48
			c-2.77-5.15-4.33-11.02-4.33-17.26c0-10.17,4.17-19.39,10.92-26.05c1.59-1.57,3.31-2.99,5.17-4.26c-0.53-2.09-0.8-4.27-0.8-6.53
			c0-10.06,5.56-18.85,13.81-23.52c-0.01-0.14-0.01-0.29-0.01-0.43c0-14.95,12.27-27.08,27.41-27.08c10.96,0,20.42,6.36,24.8,15.54
			c0.85-0.08,1.73-0.12,2.61-0.12c8.68,0,16.43,3.99,21.45,10.21c4.98-5.01,11.91-8.13,19.57-8.13c11.27,0,20.95,6.72,25.16,16.32
			c3.9-3.4,8.8-5.72,14.2-6.46c3.99-10.08,13.92-17.22,25.53-17.22c15.13,0,27.41,12.12,27.41,27.08c0,1.17-0.08,2.32-0.22,3.45
			c6.24,4.61,10.44,11.79,10.97,19.95C430.8,129.47,435.5,139.18,435.5,149.98z"/>
		<path class="st0" d="M326.16,208.21c0,17.2-13.94,31.14-31.14,31.14H95.64c-8.6,0-16.38-3.48-22.02-9.12
			c-5.64-5.64-9.12-13.42-9.12-22.02c0-6.28,1.85-12.12,5.05-17.01c-2.41-4.16-3.78-8.99-3.78-14.14c0-15.67,12.7-28.37,28.36-28.37
			c4.51,0,8.78,1.05,12.56,2.93c3.99-15.77,18.28-27.44,35.29-27.44c17.57,0,32.23,12.45,35.66,29.01c2.12-0.66,4.37-1.02,6.7-1.02
			c5.94,0,11.34,2.31,15.35,6.1c3.18-7.94,11.2-13.57,20.58-13.57c3.62,0,7.03,0.84,10.04,2.33c6.69-8.58,17.82-14.19,30.43-14.19
			c18.85,0,34.42,12.56,36.75,28.8c0.1-0.01,0.2-0.01,0.3-0.01c9.76,0,17.67,7.91,17.67,17.67c0,1.67-0.23,3.29-0.68,4.83
			c0.79,0.65,1.54,1.33,2.26,2.05C322.68,191.82,326.16,199.61,326.16,208.21z"/>
	</g>
	<path class="st0" d="M162.03,80.78c0,3.38-1.52,6.44-3.98,8.66c-2.46,2.22-5.85,3.59-9.6,3.59h-16.5c0,4.5-4.05,8.14-9.03,8.14
		c-1.86,0-3.59-0.51-5.02-1.38c-2.67,2.91-7,4.79-11.89,4.79c-8.1,0-14.66-5.17-14.66-11.55c0-0.59,0.06-1.16,0.16-1.72
		c-3.98-2.13-6.64-6.05-6.64-10.52c0-3.17,1.34-6.07,3.54-8.24c-0.44-0.93-0.69-1.95-0.69-3.03c0-4.21,3.78-7.62,8.45-7.62
		c1.71,0,3.3,0.46,4.63,1.25c2.21-2.8,5.83-4.62,9.94-4.62c4.64,0,8.68,2.34,10.74,5.79c1.37-0.68,2.94-1.06,4.6-1.06
		c0.98,0,1.92,0.13,2.81,0.38c2.92-3.88,7.87-6.43,13.47-6.43c9,0,16.29,6.57,16.29,14.68c0,0.26-0.01,0.53-0.02,0.79
		C160.73,74.82,162.03,77.67,162.03,80.78z"/>
</g>
</svg>
