<?xml version="1.0" encoding="utf-8"?>
<!-- Generator: Adobe Illustrator 26.0.0, SVG Export Plug-In . SVG Version: 6.00 Build 0)  -->
<svg version="1.1" id="Camada_1" xmlns="http://www.w3.org/2000/svg" xmlns:xlink="http://www.w3.org/1999/xlink" x="0px" y="0px"
	 viewBox="0 0 150 100" style="enable-background:new 0 0 150 100;" xml:space="preserve">
<style type="text/css">
	.st0{fill:#FFFFFF;stroke:#000000;stroke-width:0.25;stroke-miterlimit:10;}
</style>
<g>
	<path class="st0" d="M141.8,56.64c0,3.58-2.9,6.48-6.49,6.48c-1.33,0-2.57-0.41-3.6-1.1c-1.36,0.98-3.07,1.56-4.94,1.56
		c-3.27,0-6.09-1.79-7.36-4.37c-0.9,0.38-1.89,0.59-2.92,0.59c-4.2,0-7.6-3.4-7.6-7.6c0-4.19,3.4-7.6,7.6-7.6
		c3.2,0,5.94,1.99,7.05,4.8c0.99-0.4,2.08-0.62,3.23-0.62c2.18,0,4.14,0.79,5.59,2.08c0.88-0.45,1.89-0.71,2.95-0.71
		C138.9,50.15,141.8,53.06,141.8,56.64z"/>
	<path class="st0" d="M113.68,32.62c0,4.12-3.25,7.48-7.33,7.65c-2.22,2.6-6.5,4.35-11.41,4.35c-7.2,0-13.03-3.76-13.03-8.4
		c0-0.58,0.09-1.16,0.27-1.71c-3.78-1.44-6.44-4.86-6.44-8.86c0-5.3,4.68-9.6,10.45-9.6c5.78,0,10.46,4.3,10.46,9.6
		c0,0.76-0.1,1.51-0.28,2.22c1.15,0.08,2.25,0.26,3.28,0.52c1.36-2.06,3.71-3.42,6.37-3.42C110.25,24.97,113.68,28.4,113.68,32.62z"
		/>
	<path class="st0" d="M128.2,68.18c0,4.33-1.78,8.28-4.63,11.14c-2.86,2.85-6.81,4.63-11.14,4.63H23.97
		c-8.67,0-15.77-7.1-15.77-15.77c0-4.34,1.78-8.29,4.63-11.15c0.79-0.79,1.67-1.5,2.62-2.11c-0.92-2.01-1.42-4.24-1.42-6.57
		c0-9.06,7.57-16.4,16.91-16.4c1.19,0,2.34,0.12,3.46,0.34c3.56-6.2,10.51-10.4,18.49-10.4c8.39,0,15.63,4.65,19,11.37
		c2.45-0.84,5.14-1.31,7.97-1.31c8.75,0,16.21,4.46,19.07,10.71c0.47-0.05,0.95-0.08,1.44-0.08c6.19,0,11.33,4.23,12.41,9.83
		C121.29,52.59,128.2,59.62,128.2,68.18z"/>
</g>
</svg>
