<?xml version="1.0" encoding="utf-8"?>
<!-- Generator: Adobe Illustrator 26.0.0, SVG Export Plug-In . SVG Version: 6.00 Build 0)  -->
<svg version="1.1" id="Camada_1" xmlns="http://www.w3.org/2000/svg" xmlns:xlink="http://www.w3.org/1999/xlink" x="0px" y="0px"
	 viewBox="0 0 150 100" style="enable-background:new 0 0 150 100;" xml:space="preserve">
<style type="text/css">
	.st0{fill:#FFFFFF;stroke:#000000;stroke-width:0.25;stroke-miterlimit:10;}
</style>
<g>
	<path class="st0" d="M144.33,65.11c0,1.89-1.54,3.43-3.43,3.43c-0.25,0-0.49-0.03-0.72-0.08c-0.35,1.93-2.04,3.39-4.07,3.39
		c-1.81,0-3.34-1.15-3.9-2.77c-0.72,0.31-1.54,0.49-2.41,0.49c-2.94,0-5.32-2-5.32-4.46c0-2.46,2.38-4.46,5.32-4.46
		c2.37,0,4.38,1.31,5.06,3.12c0.39-0.13,0.81-0.2,1.25-0.2c0.57,0,1.1,0.11,1.59,0.31c0.5-1.29,1.74-2.2,3.2-2.2
		C142.79,61.68,144.33,63.22,144.33,65.11z"/>
	<path class="st0" d="M138.31,50c0,3.12-1.28,5.97-3.34,8.03c-0.4,0.4-0.83,0.77-1.28,1.1c-0.07,4.61-4.07,8.33-8.98,8.33
		c-2.83,0-5.36-1.24-7-3.18c-1.43,3.36-4.77,5.72-8.65,5.72c-2.53,0-4.81-0.99-6.5-2.61c-1.64,4.41-5.89,7.55-10.87,7.55
		c-3.79,0-7.15-1.81-9.26-4.62c-2.11,2.81-5.47,4.62-9.26,4.62c-3.67,0-6.94-1.7-9.05-4.36c-2.13,2.66-5.4,4.36-9.06,4.36
		c-4.53,0-8.45-2.59-10.36-6.37C43.25,69.48,41.54,70,39.71,70c-3.43,0-6.43-1.84-8.07-4.58c-1.56,1.27-3.6,2.04-5.84,2.04
		c-4.77,0-8.68-3.52-8.95-7.95c-3.1-2.03-5.16-5.54-5.16-9.51c0-3.12,1.28-5.97,3.34-8.03c0.79-0.79,1.7-1.47,2.69-1.99
		c-0.57-1.11-0.89-2.35-0.89-3.67c0-4.67,4.02-8.45,8.97-8.45c2.24,0,4.29,0.77,5.85,2.04c1.65-2.73,4.64-4.56,8.06-4.56
		c2.04,0,3.93,0.65,5.47,1.75c2.04-3.31,5.7-5.52,9.88-5.52c3.73,0,7.06,1.76,9.17,4.51c2.08-3.1,5.62-5.14,9.63-5.14
		c3.6,0,6.82,1.65,8.95,4.22c2.11-2.21,5.09-3.59,8.39-3.59c4.81,0,8.93,2.92,10.69,7.08c1.74-2.03,4.3-3.31,7.17-3.31
		c3.88,0,7.21,2.35,8.64,5.7c1.64-1.94,4.17-3.18,7.01-3.18c4.96,0,8.98,3.78,8.98,8.45c0,1.41-0.36,2.73-1.01,3.89
		C136.04,42.18,138.31,45.84,138.31,50z"/>
	<path class="st0" d="M22.14,20.66c0,2.02-1.64,3.65-3.66,3.65c-0.92,0-1.76-0.34-2.4-0.9c-0.64,0.71-1.47,1.27-2.42,1.62
		c0.74,1.03,1.17,2.29,1.17,3.65C14.83,32.17,12,35,8.51,35c-3.48,0-6.31-2.83-6.31-6.32c0-2.6,1.58-4.84,3.83-5.8
		c-0.68-0.94-1.09-2.09-1.09-3.31c0-3.25,2.84-5.89,6.34-5.89c2.63,0,4.88,1.48,5.84,3.59C17.54,17.09,18,17,18.48,17
		C20.5,17,22.14,18.64,22.14,20.66z"/>
	<path class="st0" d="M37.51,75.57c0-1.89-1.54-3.43-3.43-3.43c-0.25,0-0.49,0.03-0.72,0.08c-0.35-1.93-2.04-3.39-4.07-3.39
		c-1.81,0-3.34,1.15-3.9,2.77c-0.72-0.31-1.54-0.49-2.41-0.49c-2.94,0-5.32,2-5.32,4.46c0,2.46,2.38,4.46,5.32,4.46
		c2.37,0,4.38-1.31,5.06-3.12c0.39,0.13,0.81,0.2,1.25,0.2c0.57,0,1.1-0.11,1.59-0.31c0.5,1.29,1.74,2.2,3.2,2.2
		C35.97,79,37.51,77.46,37.51,75.57z"/>
	<path class="st0" d="M20.23,84.97c0,1.75-2.17,3.17-4.85,3.17c-1.9,0-3.55-0.72-4.34-1.77c-0.66,1.06-1.84,1.77-3.18,1.77
		c-2.07,0-3.75-1.67-3.75-3.74c0-2.07,1.68-3.74,3.75-3.74c1.63,0,3.03,1.05,3.53,2.51c0.87-0.83,2.33-1.38,3.99-1.38
		C18.06,81.79,20.23,83.21,20.23,84.97z"/>
</g>
</svg>
