<?xml version="1.0" encoding="utf-8"?>
<!-- Generator: Adobe Illustrator 26.0.0, SVG Export Plug-In . SVG Version: 6.00 Build 0)  -->
<svg version="1.1" id="Camada_1" xmlns="http://www.w3.org/2000/svg" xmlns:xlink="http://www.w3.org/1999/xlink" x="0px" y="0px"
	 viewBox="0 0 500 300" style="enable-background:new 0 0 500 300;" xml:space="preserve">
<style type="text/css">
	.st0{fill:#DCDCDC;stroke:#000000;stroke-miterlimit:10;}
	.st1{fill:#8CCDF2;stroke:#000000;stroke-miterlimit:10;}
</style>
<path class="st0" d="M386.34,173.18c0,9.17-2.91,17.66-7.86,24.59c-0.57,16.69-14.28,30.03-31.1,30.03
	c-9.36,0-17.75-4.13-23.46-10.67c-4.92,3.27-10.83,5.17-17.18,5.17c-6.64,0-12.78-2.07-17.83-5.61c-5.45,4.68-12.54,7.51-20.28,7.51
	c-7.91,0-15.13-2.95-20.63-7.81c-5.65,5.76-13.52,9.33-22.22,9.33c-8.52,0-16.23-3.41-21.85-8.96c-5.43,4.64-12.49,7.44-20.19,7.44
	c-6.93,0-13.32-2.26-18.49-6.08c-4.59,2.66-9.92,4.18-15.6,4.18c-16.56,0-30.11-12.95-31.07-29.28c-3.14-5.92-4.92-12.67-4.92-19.84
	c0-11.69,4.74-22.28,12.4-29.94c1.8-1.8,3.76-3.44,5.87-4.9c-0.6-2.4-0.91-4.91-0.91-7.5c0-11.56,6.31-21.66,15.68-27.03
	c-0.01-0.16-0.01-0.33-0.01-0.49c0-17.18,13.93-31.12,31.12-31.12c12.44,0,23.18,7.31,28.16,17.86c0.97-0.09,1.96-0.14,2.96-0.14
	c9.86,0,18.65,4.58,24.35,11.73c5.65-5.76,13.52-9.34,22.22-9.34c12.8,0,23.78,7.72,28.57,18.76c4.43-3.91,9.99-6.57,16.12-7.43
	c4.53-11.59,15.8-19.79,28.99-19.79c17.18,0,31.12,13.93,31.12,31.12c0,1.35-0.09,2.67-0.25,3.97c7.09,5.3,11.85,13.55,12.45,22.93
	C381,149.61,386.34,160.77,386.34,173.18z"/>
<path class="st1" d="M229.76,167.7c-2.2,3.74-5.69,6.25-9.53,7.29s-8.05,0.6-11.71-1.55l-16.1-9.49c-2.93,4.97-9.26,6.67-14.12,3.81
	c-1.81-1.07-3.17-2.62-4-4.42c-4.5,1.68-9.95,1.28-14.73-1.54c-7.9-4.66-10.93-14.16-6.77-21.21c0.38-0.65,0.81-1.25,1.28-1.81
	c-2.5-4.65-2.54-10.51,0.38-15.46c2.07-3.51,5.27-5.94,8.83-7.08c0.17-1.28,0.6-2.56,1.3-3.75c2.74-4.65,8.66-6.25,13.21-3.57
	c1.66,0.98,2.92,2.41,3.7,4.04c3.98-1.83,8.7-1.76,12.71,0.6c4.53,2.67,6.95,7.58,6.7,12.58c1.78,0.03,3.56,0.51,5.18,1.47
	c0.95,0.56,1.79,1.25,2.5,2.04c5.39-2.62,11.87-2.59,17.34,0.63c8.78,5.18,11.61,16.64,6.32,25.61c-0.17,0.29-0.35,0.58-0.54,0.86
	C232.38,160.35,231.79,164.25,229.76,167.7z"/>
<path class="st1" d="M271.07,167.7c2.2,3.74,5.69,6.25,9.53,7.29s8.05,0.6,11.71-1.55l16.1-9.49c2.93,4.97,9.26,6.67,14.12,3.81
	c1.81-1.07,3.17-2.62,4-4.42c4.5,1.68,9.95,1.28,14.73-1.54c7.9-4.66,10.93-14.16,6.77-21.21c-0.38-0.65-0.81-1.25-1.28-1.81
	c2.5-4.65,2.54-10.51-0.38-15.46c-2.07-3.51-5.27-5.94-8.83-7.08c-0.17-1.28-0.6-2.56-1.3-3.75c-2.74-4.65-8.66-6.25-13.21-3.57
	c-1.66,0.98-2.92,2.41-3.7,4.04c-3.98-1.83-8.7-1.76-12.71,0.6c-4.53,2.67-6.95,7.58-6.7,12.58c-1.78,0.03-3.56,0.51-5.18,1.47
	c-0.95,0.56-1.79,1.25-2.5,2.04c-5.39-2.62-11.87-2.59-17.34,0.63c-8.78,5.18-11.61,16.64-6.32,25.61c0.17,0.29,0.35,0.58,0.54,0.86
	C268.45,160.35,269.04,164.25,271.07,167.7z"/>
</svg>
